<svg width="136" height="72" viewBox="0 0 136 72" fill="none" xmlns="http://www.w3.org/2000/svg">
<g >
<path d="M2.26712 53.343V55.6029L96.0275 55.3401L95.9748 52.9226L2.26712 53.343Z" fill="#606060"/>
<path d="M3.3748 55.3403V61.8571L13.1305 61.6469L13.5524 59.86L35.3841 60.2805L36.7552 63.5914L58.5869 64.1169L58.8506 65.7987L63.122 64.9578V63.5388H65.3895V65.5359L69.0809 64.6951L69.9246 65.7987L80.6823 65.5359L82.1061 63.5388L84.11 63.8016V65.4834H88.065V64.1169L90.0689 63.8542L89.8052 65.5359L93.1802 65.7987L92.6001 62.698L129.988 62.4352C129.988 62.4352 133.363 62.698 132.519 57.3374L3.3748 55.3403Z" fill="#606060"/>
<path d="M26.2084 71.6848C30.81 71.6848 34.5403 67.9672 34.5403 63.3812C34.5403 58.7952 30.81 55.0776 26.2084 55.0776C21.6068 55.0776 17.8765 58.7952 17.8765 63.3812C17.8765 67.9672 21.6068 71.6848 26.2084 71.6848Z" fill="#444444"/>
<path d="M4.53509 6.10352e-05L0 52.2395L96.3971 51.3986L97.7681 0.578163L4.53509 6.10352e-05Z" fill="#DFDFDF"/>
<path d="M96.0282 14.1374L97.452 20.3389H117.86L98.2957 13.8221L96.0282 14.1374Z" fill="#DFDFDF"/>
<path d="M96.3439 22.5984L122.394 21.7575L132.308 42.937L132.888 56.7589L116.172 57.0217L109.369 51.6611H100.035L96.3439 56.7589H93.2326L97.7677 50.2421L96.3439 22.5984Z" fill="#DFDFDF"/>
<path d="M26.0506 69.4249C29.4872 69.4249 32.2732 66.6484 32.2732 63.2234C32.2732 59.7985 29.4872 57.022 26.0506 57.022C22.614 57.022 19.828 59.7985 19.828 63.2234C19.828 66.6484 22.614 69.4249 26.0506 69.4249Z" fill="#DFDFDF"/>
<path d="M106.364 71.9999C110.965 71.9999 114.695 68.2822 114.695 63.6962C114.695 59.1102 110.965 55.3926 106.364 55.3926C101.762 55.3926 98.0316 59.1102 98.0316 63.6962C98.0316 68.2822 101.762 71.9999 106.364 71.9999Z" fill="#444444"/>
<path d="M106.786 70.3182C110.223 70.3182 113.009 67.5417 113.009 64.1168C113.009 60.6918 110.223 57.9153 106.786 57.9153C103.349 57.9153 100.563 60.6918 100.563 64.1168C100.563 67.5417 103.349 70.3182 106.786 70.3182Z" fill="#DFDFDF"/>
<path d="M106.522 66.9022C107.92 66.9022 109.054 65.7727 109.054 64.3795C109.054 62.9863 107.92 61.8569 106.522 61.8569C105.124 61.8569 103.991 62.9863 103.991 64.3795C103.991 65.7727 105.124 66.9022 106.522 66.9022Z" fill="white"/>
<path d="M26.0506 65.746C27.4486 65.746 28.5818 64.6166 28.5818 63.2234C28.5818 61.8302 27.4486 60.7008 26.0506 60.7008C24.6527 60.7008 23.5194 61.8302 23.5194 63.2234C23.5194 64.6166 24.6527 65.746 26.0506 65.746Z" fill="white"/>
<path d="M14.1851 65.2207L15.6089 65.4835C15.6089 65.4835 16.7163 53.6061 26.3666 53.9215C36.0168 54.2368 36.5442 65.4835 36.5442 65.4835L39.0754 65.2207C39.0754 65.2207 38.759 51.7142 26.5775 52.2397C14.396 52.7653 14.1851 65.2207 14.1851 65.2207Z" fill="#444444"/>
<path d="M94.0766 65.4835L95.5004 65.7463C95.5004 65.7463 96.6078 53.8689 106.258 54.1843C115.908 54.4996 116.436 65.7463 116.436 65.7463L118.967 65.4835C118.967 65.4835 118.65 51.977 106.469 52.5025C94.2875 53.0281 94.0766 65.4835 94.0766 65.4835Z" fill="#444444"/>
<path d="M43.9275 51.3987L43.0838 58.1783L49.3063 57.8629L49.8864 51.9768L43.9275 51.3987Z" fill="#444444"/>
<path d="M60.9073 52.2396L66.8662 51.3987L66.0225 58.1783L61.7511 58.441L60.9073 52.2396Z" fill="#444444"/>
<path d="M77.888 51.9768L83.5833 51.6615L83.0032 57.3374L78.4681 58.4411L77.888 51.9768Z" fill="#444444"/>
<path d="M100.879 46.5637C100.879 46.5637 105.15 43.2002 107.418 45.4601C109.686 47.7199 107.154 47.9827 107.154 47.9827L105.15 46.5637L103.147 47.4046L100.879 46.5637Z" fill="#5E5E5E"/>
<path d="M103.147 27.1185L103.885 37.5769L124.399 44.6193L123.871 40.6777L120.707 29.0631L118.387 27.5915L103.147 27.1185Z" fill="#606060"/>
<path d="M130.041 49.4015L128.934 54.7621L136 54.2365L135.156 49.4015H130.041Z" fill="#F2F2F2"/>
<path d="M96.0282 26.2774C96.0282 26.2774 95.1844 48.8759 92.6532 48.8759C90.122 48.8759 95.1844 48.8759 95.1844 48.8759L97.7157 26.4351L96.0282 26.2774Z" fill="#606060"/>
<path d="M124.926 24.543L123.607 24.9109L130.094 39.4686L130.463 40.2569L124.926 24.543Z" fill="#606060"/>
<path d="M130.622 42.9372L132.045 40.362L124.399 24.0175L122.975 24.543L130.622 42.9372Z" fill="#606060"/>
</g>
<defs>
<clipPath id="clip0">
<rect y="6.10352e-05" width="136" height="72" fill="white"/>
</clipPath>
</defs>
</svg>
