<svg width="77" height="91" viewBox="0 0 77 91" fill="none" xmlns="http://www.w3.org/2000/svg">
<g >
<path d="M0 1.10003L77 3.05176e-05L73.9 87.1L4 90.6L0 1.10003Z" fill="#D7F9DF"/>
<path d="M6.79999 7.30002L70.6 6.80002L68 80.3L9.89999 83.4L6.79999 7.30002Z" stroke="#4BCC6A" stroke-miterlimit="10"/>
<path d="M3.29999 3.70004L74.6 2.70004L71.1 84.4L6.39999 87.6L3.29999 3.70004Z" stroke="#4BCC6A" stroke-miterlimit="10"/>
<path d="M16.5 14.5L62.5 13.5" stroke="#EE7754" stroke-miterlimit="10"/>
<path d="M25.5 18.5L53.5 17.5" stroke="#EE7754" stroke-miterlimit="10"/>
<path d="M29.5 37.5L50.5 36.5" stroke="#EE7754" stroke-miterlimit="10"/>
<path d="M17.5 41.5L61.5 39.5" stroke="#EE7754" stroke-miterlimit="10"/>
<path d="M49.9 78.2004C58.6813 78.2004 65.8 71.0817 65.8 62.3004C65.8 53.5191 58.6813 46.4004 49.9 46.4004C41.1187 46.4004 34 53.5191 34 62.3004C34 71.0817 41.1187 78.2004 49.9 78.2004Z" stroke="#EE7754" stroke-miterlimit="10"/>
<path d="M49.9 75.2004C57.0245 75.2004 62.8 69.4249 62.8 62.3004C62.8 55.1759 57.0245 49.4004 49.9 49.4004C42.7755 49.4004 37 55.1759 37 62.3004C37 69.4249 42.7755 75.2004 49.9 75.2004Z" stroke="#EE7754" stroke-miterlimit="10"/>
<path d="M41.1992 66.5002V57.9002H42.2992V66.5002H41.1992Z" fill="#EE7754"/>
<path d="M43.8992 63.7002L44.9992 63.6002C45.0992 64.0002 45.1992 64.4002 45.3992 64.7002C45.5992 65.0002 45.8992 65.2002 46.2992 65.4002C46.6992 65.6002 47.0992 65.7002 47.5992 65.7002C47.9992 65.7002 48.3992 65.6002 48.6992 65.5002C48.9992 65.4002 49.2992 65.2002 49.3992 65.0002C49.4992 64.8002 49.5992 64.5002 49.5992 64.3002C49.5992 64.0002 49.4992 63.8002 49.3992 63.6002C49.2992 63.4002 48.9992 63.0002 48.6992 62.9002C48.4992 62.8002 47.9992 62.7002 47.1992 62.5002C46.3992 62.3002 45.8992 62.1002 45.4992 62.0002C45.0992 61.8002 44.7992 61.5002 44.5992 61.2002C44.3992 60.9002 44.2992 60.5002 44.2992 60.1002C44.2992 59.7002 44.3992 59.3002 44.6992 58.9002C44.9992 58.5002 45.2992 58.2002 45.7992 58.0002C46.2992 57.8002 46.7992 57.7002 47.3992 57.7002C47.9992 57.7002 48.5992 57.8002 49.0992 58.0002C49.5992 58.2002 49.9992 58.5002 50.1992 58.9002C50.3992 59.3002 50.5992 59.7002 50.5992 60.3002L49.4992 60.4002C49.3992 59.9002 49.1992 59.4002 48.8992 59.2002C48.5992 59.0002 48.0992 58.8002 47.3992 58.8002C46.6992 58.8002 46.1992 58.9002 45.8992 59.2002C45.5992 59.5002 45.3992 59.8002 45.3992 60.1002C45.3992 60.4002 45.4992 60.7002 45.6992 60.9002C45.8992 61.1002 46.4992 61.3002 47.3992 61.5002C48.2992 61.7002 48.9992 61.9002 49.2992 62.0002C49.7992 62.2002 50.1992 62.5002 50.3992 62.9002C50.5992 63.3002 50.7992 63.7002 50.7992 64.1002C50.7992 64.6002 50.6992 65.0002 50.3992 65.4002C50.0992 65.8002 49.7992 66.1002 49.2992 66.3002C48.7992 66.5002 48.2992 66.6002 47.5992 66.6002C46.7992 66.6002 46.1992 66.5002 45.5992 66.3002C44.9992 66.1002 44.6992 65.7002 44.3992 65.3002C44.0992 64.9002 43.8992 64.3002 43.8992 63.7002Z" fill="#EE7754"/>
<path d="M51.9992 62.3002C51.9992 60.9002 52.3992 59.8002 53.0992 59.0002C53.7992 58.2002 54.8992 57.8002 56.0992 57.8002C56.8992 57.8002 57.5992 58.0002 58.1992 58.4002C58.7992 58.8002 59.2992 59.3002 59.6992 60.0002C60.0992 60.7002 60.1992 61.4002 60.1992 62.3002C60.1992 63.2002 59.9992 64.0002 59.6992 64.6002C59.3992 65.2002 58.8992 65.8002 58.1992 66.2002C57.4992 66.6002 56.8992 66.7002 56.0992 66.7002C55.2992 66.7002 54.5992 66.5002 53.8992 66.1002C53.1992 65.7002 52.7992 65.2002 52.4992 64.5002C52.1992 63.8002 51.9992 63.0002 51.9992 62.3002ZM53.0992 62.3002C53.0992 63.3002 53.3992 64.2002 53.8992 64.7002C54.3992 65.2002 55.1992 65.6002 55.9992 65.6002C56.8992 65.6002 57.5992 65.3002 58.0992 64.7002C58.5992 64.1002 58.8992 63.2002 58.8992 62.1002C58.8992 61.4002 58.7992 60.8002 58.4992 60.3002C58.1992 59.8002 57.8992 59.4002 57.4992 59.1002C57.0992 58.8002 56.4992 58.7002 55.9992 58.7002C55.1992 58.7002 54.4992 59.0002 53.8992 59.5002C53.2992 60.0002 53.0992 61.0002 53.0992 62.3002Z" fill="#EE7754"/>
</g>
<defs>
<clipPath id="clip0">
<rect y="3.05176e-05" width="77" height="90.6" fill="white"/>
</clipPath>
</defs>
</svg>
