<svg width="151" height="96" viewBox="0 0 151 96" fill="none" xmlns="http://www.w3.org/2000/svg">
<g >
<path d="M82.4274 35.5619C98.6324 35.5619 112.544 38.3031 122.324 42.3498C121.318 30.5942 115.782 19.6618 106.85 11.7915C97.9183 3.92108 86.2662 -0.291742 74.2801 0.0157188C62.2939 0.32318 50.8807 5.12766 42.3778 13.4453C33.8749 21.7629 28.9256 32.9642 28.5435 44.7554C45.7954 38.5225 64.0499 35.4079 82.4274 35.5619Z" fill="#03BBEF"/>
<path d="M82.4274 35.562C94.3176 35.4183 106.157 37.1174 117.51 40.597C106.138 22.9932 87.1846 9.32422 87.1846 9.32422C90.3457 13.6483 92.1152 18.8063 92.2641 24.1307C89.8546 24.1786 87.4958 24.8197 85.403 25.9955C86.3797 24.3837 87.5093 22.8664 88.7767 21.4641C83.9626 22.6762 76.5329 27.245 71.9842 31.2916C72.4344 29.2416 73.4359 27.3481 74.884 25.8091C74.884 25.8091 71.0934 26.6109 60.8208 33.6226C60.8208 33.6226 62.9435 31.4408 66.0518 28.3825C62.5823 26.24 58.8988 24.4529 55.059 23.0492C56.4053 24.9925 57.1793 27.2642 57.2955 29.6133C54.7005 30.6169 52.248 31.9457 49.9985 33.5666C49.9985 33.5666 51.0788 31.4035 51.7801 30.1727C48.6084 31.2186 45.5537 32.5808 42.6636 34.238L32.7132 43.2636C48.7503 38.0603 65.5411 35.4591 82.4274 35.562Z" fill="#0069B4"/>
<path d="M42.6636 34.238C45.5503 32.5793 48.6059 31.223 51.7801 30.1914C51.0788 31.4035 49.9985 33.5666 49.9985 33.5666C52.2508 31.9247 54.7099 30.577 57.3144 29.5573C57.1983 27.2083 56.4243 24.9365 55.078 22.9932L42.6636 34.182V34.238ZM60.8397 33.5666C60.8397 33.5666 80.9112 13.203 87.1847 9.32422C90.3458 13.6483 92.1152 18.8063 92.2641 24.1307C89.8547 24.1786 87.4958 24.8197 85.4031 25.9955C86.3746 24.3804 87.5046 22.8626 88.7767 21.4641C83.9626 22.6762 76.533 27.245 71.9842 31.2916C72.4232 29.2431 73.4264 27.3528 74.884 25.8277C74.884 25.8277 71.0934 26.6109 60.8208 33.6226L60.8397 33.5666Z" fill="white"/>
<path d="M96.8318 41.0257C103.901 40.8765 118.514 43.9907 132.521 48.1306C124.124 41.1189 105.607 35.5059 82.4274 35.5059C55.5328 35.5059 33.2439 41.8275 20.6969 48.1306C37.2159 45.0131 53.9894 43.3839 70.8091 43.2634C83.8937 43.1947 96.951 44.4444 109.777 46.993C105.986 42.9464 96.8318 41.0257 96.8318 41.0257Z" fill="#61B55A"/>
<path d="M9.89356 60.3451C6.59571 60.7927 3.29785 61.2775 0 61.781C0.534268 62.4024 0.882102 63.1579 1.00452 63.9629C1.89532 69.5573 2.76716 75.0398 3.65796 80.5782C3.79183 81.3752 3.70677 82.1928 3.41157 82.9465L8.13092 82.2193C7.59364 81.6018 7.25112 80.8436 7.14535 80.0374C6.31141 74.5922 5.49642 69.1656 4.66248 63.7204L7.67604 63.2915C8.58234 63.1221 9.52004 63.2464 10.3484 63.6458L9.89356 60.3451ZM34.9876 60.8859C35.9731 64.3172 36.8829 67.7484 37.8685 71.1796L34.0778 71.4967C34.3811 67.9535 34.6906 64.4166 35.0065 60.8859H34.9876ZM144.764 60.0095C144.191 59.992 143.629 59.8528 143.115 59.6015C142.602 59.3503 142.15 58.9928 141.79 58.5536C141.43 58.1144 141.17 57.6039 141.03 57.057C140.889 56.51 140.87 55.9396 140.974 55.3848L144.196 55.8323C143.476 56.9326 143.893 57.809 145.03 57.9768C146.167 58.1447 146.811 57.4174 146.451 56.112L149.673 56.5782C149.615 57.1385 149.434 57.6798 149.144 58.1652C148.853 58.6506 148.46 59.0686 147.991 59.3907C147.521 59.7129 146.986 59.9316 146.423 60.0319C145.86 60.1323 145.281 60.1119 144.727 59.9722L144.764 60.0095ZM54.4714 56.3918C51.1357 56.5409 47.8189 56.7088 44.5021 56.9139C44.9711 57.5808 45.2464 58.3609 45.2981 59.1703C45.6582 64.7647 45.9994 70.3591 46.3784 75.9535C46.4449 76.7708 46.2809 77.5903 45.9046 78.3218L50.6619 78.0421C50.1827 77.3816 49.9124 76.5967 49.8848 75.7857C49.5626 70.3032 49.2593 64.802 48.9561 59.3195L51.9886 59.1703C52.9008 59.0827 53.8176 59.2853 54.6041 59.7484C54.6041 58.6482 54.6041 57.5293 54.4714 56.4291V56.3918ZM100.073 73.5666C99.7729 74.0605 99.3523 74.4728 98.8491 74.7659C98.3459 75.059 97.7763 75.2237 97.1919 75.2449C94.4058 75.1144 93.5529 71.0118 93.7045 67.0211C93.8562 62.6575 95.2208 58.9092 97.7984 59.0398C98.4188 59.1113 99.0117 59.3326 99.5242 59.684C100.037 60.0353 100.453 60.5059 100.736 61.0538L101.134 57.3242C100.194 56.5983 99.0488 56.1751 97.8553 56.112C93.2118 55.9069 90.1224 60.3824 89.9329 67.1144C89.7433 73.2682 91.8282 77.781 96.2632 77.9675C97.6222 78.0532 98.9672 77.6562 100.054 76.8486V73.5666H100.073ZM108.261 59.3381C108.319 58.5299 108.608 57.7543 109.095 57.1004C107.446 56.9698 105.778 56.8766 104.129 56.7834C104.507 57.5014 104.677 58.3076 104.622 59.1144L103.598 75.8976C103.557 76.7032 103.295 77.4828 102.84 78.154L107.578 78.4524C107.201 77.7345 107.037 76.9267 107.104 76.1214L107.616 68.6622H108.355C109.777 68.7927 110.364 69.4454 110.687 70.9932C111.009 72.5409 111.141 74.5922 111.388 76.1027C111.541 77.0143 111.808 77.9038 112.184 78.7507L116.221 79.0864C115.689 78.2859 115.316 77.3938 115.122 76.457C114.837 75.1517 114.572 72.485 114.174 70.3591C114.083 69.5065 113.741 68.6987 113.188 68.0357C112.636 67.3728 111.898 66.8839 111.066 66.6295C112.595 64.3918 114.161 62.1602 115.766 59.9349C116.309 59.102 117.011 58.3801 117.832 57.809C116.107 57.6598 114.382 57.5106 112.639 57.3988C112.639 57.3988 113.454 58.126 112.468 59.6738C111.104 61.8183 109.758 63.9629 108.431 66.126H107.806L108.261 59.4314V59.3381ZM39.3279 76.457C39.5937 77.1992 39.5937 78.0085 39.3279 78.7507L44.142 78.3218C43.5279 77.7206 43.1062 76.9557 42.929 76.1214C41.4506 70.527 39.9217 64.9325 38.3423 59.3381C38.0795 58.666 38.0795 57.9218 38.3423 57.2496C36.2574 57.3988 34.1915 57.5666 32.1067 57.7531C32.5 58.369 32.6359 59.1107 32.4858 59.823C31.9361 65.0071 31.4244 70.1726 30.9505 75.3568C30.8953 76.7742 30.5606 78.1676 29.965 79.4594L34.0968 79.0864C33.7479 77.7979 33.6642 76.4538 33.8504 75.133C33.8504 74.7601 33.8504 74.3871 33.8504 74.0141L38.5697 73.6225L39.3279 76.457ZM87.1846 58.3871C87.201 57.5711 87.4506 56.7762 87.9049 56.0934H82.9391C83.3345 56.8014 83.5369 57.598 83.5267 58.4057L83.394 64.9885C81.6693 64.9885 79.9256 64.9885 78.1819 64.9885C78.1819 62.7507 78.1819 60.5316 78.1819 58.3125C78.1827 57.471 78.433 56.6479 78.9021 55.9442H73.9174C74.3489 56.6341 74.5784 57.4278 74.5808 58.2379C74.5808 63.8323 74.5808 69.4267 74.5808 75.0211C74.5875 75.8441 74.3575 76.6522 73.9174 77.3521H78.6747C78.2415 76.6578 78.024 75.8541 78.0492 75.0398C78.0492 72.5409 78.0492 70.0235 78.0492 67.5806C79.7739 67.5806 81.5176 67.5806 83.2424 67.5806C83.2424 70.0794 83.2424 72.5969 83.1097 75.0398C83.115 75.8483 82.8919 76.6424 82.4653 77.3335L87.2225 77.4267C86.8016 76.7289 86.5973 75.925 86.635 75.1144C86.7677 69.52 86.9003 63.9256 87.052 58.3312L87.1846 58.3871ZM19.4081 67.9162C18.7527 70.0619 18.2149 72.2406 17.797 74.443C17.797 72.0374 17.3043 67.7484 16.9441 64.9139L16.5461 61.8183C16.4335 61.0173 16.5586 60.2014 16.9062 59.4687L11.9405 60.0841C12.4891 60.7017 12.8329 61.4694 12.9261 62.2845C13.6652 67.8789 14.4234 73.4733 15.1625 78.9559C15.263 79.755 15.1453 80.566 14.8214 81.3055L18.0434 80.8953C18.5789 79.8315 19.0105 78.72 19.3322 77.5759C19.9008 75.7111 20.4505 73.7158 21.0191 71.795C21.6493 69.6468 22.1681 67.4683 22.5732 65.2682H22.7438C22.7438 67.6738 23.1797 71.9629 23.5019 74.816C23.6157 75.8416 23.7483 76.8673 23.8621 77.9116C23.9316 78.6929 23.7876 79.4784 23.4451 80.1866L28.1834 79.6831C27.6763 79.0428 27.3671 78.2725 27.2926 77.464C26.6987 71.8945 26.1049 66.3001 25.511 60.6808C25.4347 59.8671 25.5855 59.0483 25.9469 58.3125L22.5732 58.6668C21.9813 59.749 21.4988 60.8857 21.1328 62.0608C20.5452 63.9256 19.9767 65.7904 19.4081 67.7857V67.9162ZM63.2089 64.7834C62.3578 66.8617 61.6238 68.9845 61.0103 71.1423C61.1998 68.7367 61.124 64.4291 61.0103 61.5759L60.8966 58.4617C60.8586 57.6534 61.0559 56.8512 61.4652 56.1493C59.8162 56.1493 58.1484 56.2426 56.4994 56.3172C56.9754 56.985 57.2392 57.7768 57.2576 58.5922C57.485 64.1866 57.6935 69.781 57.9209 75.3754C57.9432 76.1822 57.7469 76.9803 57.3523 77.6878L60.6502 77.5946C61.2774 76.5781 61.8163 75.5114 62.2612 74.4057C62.9814 72.5409 63.7206 70.6761 64.4787 68.8113C65.2369 66.9465 66.1087 64.4663 66.7152 62.4337H66.8289C66.6015 64.8393 66.6204 69.147 66.6773 72.0188V75.1144C66.7153 75.9227 66.518 76.7249 66.1087 77.4267H70.866C70.3907 76.7318 70.1336 75.9147 70.1268 75.0771C70.1268 69.4827 69.9941 63.8883 69.9183 58.2939C69.9157 57.463 70.1523 56.6483 70.6006 55.9442H67.208C66.5053 56.9582 65.9204 58.0466 65.4643 59.189L63.2089 64.7834ZM142.395 69.2962C141.188 71.2002 140.1 73.1743 139.135 75.2076C139.704 72.8766 140.386 68.6062 140.784 65.7717C140.917 64.7461 141.069 63.7204 141.22 62.6948C141.313 61.8921 141.642 61.1337 142.168 60.513L137.221 59.8416C137.589 60.5749 137.721 61.401 137.6 62.2099L135.383 78.8813C135.282 79.6841 134.961 80.4448 134.454 81.0817L137.676 81.5106C138.464 80.6066 139.174 79.6398 139.799 78.6202C140.841 76.8859 141.884 75.1703 142.945 73.4547C144.14 71.5408 145.234 69.5677 146.224 67.5433H146.338C145.712 69.8743 144.992 74.126 144.556 76.8673C144.404 77.8929 144.253 78.9186 144.082 79.9442C143.979 80.7442 143.651 81.4999 143.134 82.126C144.651 82.3312 146.167 82.5736 147.683 82.816C147.476 82.0496 147.438 81.2486 147.569 80.4664C148.467 74.9341 149.351 69.3956 150.223 63.851C150.353 63.0684 150.643 62.3198 151.076 61.6505L147.835 61.2962C146.962 62.1805 146.199 63.1633 145.56 64.2239C144.48 65.9022 143.419 67.5992 142.395 69.2962ZM125.337 67.2263C124.207 69.1703 123.189 71.175 122.286 73.2309C122.779 70.8626 123.29 66.5922 123.594 63.7391C123.594 62.6948 123.802 61.6691 123.897 60.6435C123.971 59.8382 124.273 59.0694 124.769 58.4244L119.803 57.9395C120.2 58.6574 120.365 59.4768 120.277 60.2892L118.685 77.0724C118.603 77.8816 118.302 78.6543 117.813 79.3102L121.054 79.6085C121.812 78.6812 122.485 77.6889 123.063 76.6435C124.03 74.8906 124.958 73.1377 126.02 71.3848C127.081 69.6318 128.218 67.2822 129.09 65.3428H129.185C128.654 67.6925 128.086 71.9815 127.763 74.816C127.65 75.8416 127.536 76.8673 127.403 77.9116C127.342 78.74 127.032 79.5317 126.512 80.1866C128.105 80.3731 129.678 80.5409 131.251 80.7461C130.894 79.9896 130.769 79.1472 130.891 78.3218L132.938 61.5386C133.036 60.7319 133.365 59.969 133.885 59.3381L130.512 58.9465C129.677 59.856 128.952 60.8572 128.351 61.9302C127.346 63.6645 126.456 65.3987 125.375 67.133L125.337 67.2263Z" fill="#0069B4"/>
<path d="M36.0303 86.415H37.6223L40.7117 90.2192L43.6495 86.415H45.1468V94.5456H43.5736V88.6714L40.7117 92.2705H40.4843L37.6223 88.7087V94.5456H36.0303V86.415Z" fill="#0069B4"/>
<path d="M52.2917 93.3337C51.9021 93.3461 51.5139 93.2817 51.15 93.1441C50.7862 93.0066 50.454 92.7987 50.1731 92.5327C49.8922 92.2668 49.6683 91.9482 49.5146 91.5957C49.3609 91.2432 49.2805 90.8641 49.2782 90.4805C49.2782 89.6941 49.5957 88.94 50.1608 88.3839C50.726 87.8279 51.4925 87.5155 52.2917 87.5155C53.091 87.5155 53.8575 87.8279 54.4226 88.3839C54.9878 88.94 55.3053 89.6941 55.3053 90.4805C55.3197 90.8687 55.2508 91.2554 55.1029 91.6155C54.955 91.9756 54.7315 92.3009 54.4471 92.5703C54.1626 92.8396 53.8236 93.0468 53.4522 93.1783C53.0808 93.3099 52.6854 93.3628 52.2917 93.3337ZM52.2917 86.3034C51.6917 86.235 51.0837 86.2923 50.5077 86.4715C49.9317 86.6507 49.4008 86.9477 48.9497 87.3431C48.4987 87.7384 48.1377 88.2232 47.8906 88.7655C47.6434 89.3079 47.5156 89.8955 47.5156 90.4899C47.5156 91.0842 47.6434 91.6718 47.8906 92.2142C48.1377 92.7565 48.4987 93.2413 48.9497 93.6366C49.4008 94.032 49.9317 94.329 50.5077 94.5082C51.0837 94.6874 51.6917 94.7447 52.2917 94.6763C52.8837 94.7195 53.4785 94.6437 54.0398 94.4537C54.6011 94.2636 55.1173 93.9632 55.557 93.5708C55.9966 93.1783 56.3505 92.702 56.5973 92.1707C56.844 91.6395 56.9783 91.0644 56.9921 90.4805C56.984 89.8957 56.8533 89.3187 56.6082 88.7858C56.3631 88.2529 56.0089 87.7755 55.5677 87.3835C55.1266 86.9914 54.6079 86.6931 54.0442 86.5073C53.4805 86.3214 52.8839 86.252 52.2917 86.3034Z" fill="#0069B4"/>
<path d="M64.4407 87.7576H61.863L61.6735 89.2868C61.1428 94.0047 59.9677 94.7693 58.2051 94.5455V93.1282C58.8874 93.1282 59.8161 92.9418 60.2141 88.056L60.3468 86.4336H66.0328V94.5455H64.4407V87.7576Z" fill="#0069B4"/>
<path d="M68.5537 93.2403L69.4256 92.2893C69.9874 92.8724 70.7523 93.2254 71.5673 93.2776C72.4391 93.2776 73.2352 92.9047 73.2352 92.0841C73.2352 91.2636 72.6855 91.0025 71.6431 91.0025H70.6954V89.6785H71.5862C71.7432 89.694 71.9016 89.6786 72.0525 89.6334C72.2034 89.5882 72.3437 89.5141 72.4653 89.4153C72.5869 89.3164 72.6874 89.1949 72.761 89.0576C72.8345 88.9204 72.8798 88.7701 72.894 88.6156C72.894 87.907 72.3064 87.5713 71.5673 87.5713C71.2024 87.5525 70.8385 87.6226 70.5078 87.7755C70.1772 87.9284 69.89 88.1594 69.6719 88.4478L68.8191 87.6459C69.1844 87.2419 69.6347 86.9209 70.1387 86.7052C70.6427 86.4894 71.1884 86.3841 71.7378 86.3965C73.3299 86.3965 74.4482 87.1797 74.4482 88.6156C74.4484 89.008 74.3343 89.3923 74.1193 89.7228C73.9043 90.0534 73.5975 90.3163 73.2352 90.4804C73.6802 90.5559 74.0832 90.7852 74.3716 91.1271C74.66 91.469 74.8148 91.901 74.8083 92.3452C74.8083 93.8371 73.292 94.7508 71.6431 94.7508C71.0434 94.7574 70.4507 94.624 69.9136 94.3614C69.3766 94.0988 68.9105 93.7146 68.5537 93.2403Z" fill="#0069B4"/>
<path d="M79.6031 91.1331L80.9298 88.2426L82.2566 91.1331H79.6031ZM81.4984 86.3965H80.1149L76.3242 94.5457H77.9352L78.8639 92.4757H82.6546L83.6022 94.5457H85.2891L81.4984 86.3965Z" fill="#0069B4"/>
<path d="M90.0085 93.2404C89.5536 93.2404 89.1746 93.2404 88.9661 93.2404V91.0586H90.0843C91.0699 91.0586 91.6574 91.3943 91.6574 92.0842C91.6574 92.7742 91.0699 93.2591 90.0085 93.2591V93.2404ZM88.9661 87.7392H89.9517C90.8045 87.7392 91.3731 88.0936 91.3731 88.7462C91.3731 89.3989 90.7666 89.8278 90.0275 89.8278H88.9661V87.7765V87.7392ZM91.6574 90.2381C92.0497 90.1083 92.3881 89.8558 92.6208 89.5191C92.8535 89.1823 92.9678 88.7799 92.9463 88.3733C92.9463 87.2544 92.1313 86.3779 89.9706 86.3779C89.0798 86.3779 87.8858 86.3779 87.374 86.3779V94.4525C87.9047 94.4525 89.0609 94.4525 89.8948 94.4525C91.7901 94.4525 93.2306 93.688 93.2306 92.0283C93.2371 91.584 93.0823 91.1521 92.7938 90.8102C92.5054 90.4683 92.1024 90.239 91.6574 90.1635V90.2381Z" fill="#0069B4"/>
<path d="M99.9777 93.3332C99.5881 93.3456 99.1999 93.2812 98.8361 93.1436C98.4722 93.006 98.14 92.7982 97.8591 92.5322C97.5782 92.2663 97.3543 91.9477 97.2006 91.5952C97.0469 91.2427 96.9665 90.8636 96.9642 90.48C97.0244 89.7319 97.3691 89.0335 97.9293 88.5242C98.4896 88.0149 99.2244 87.732 99.9872 87.732C100.75 87.732 101.485 88.0149 102.045 88.5242C102.605 89.0335 102.95 89.7319 103.01 90.48C103.022 90.8691 102.95 91.2562 102.8 91.6163C102.65 91.9764 102.425 92.3015 102.139 92.5705C101.853 92.8394 101.513 93.0463 101.141 93.1777C100.768 93.3091 100.372 93.3621 99.9777 93.3332ZM99.9777 86.3029C99.1515 86.3824 98.3666 86.6964 97.7184 87.2067C97.0703 87.7171 96.5868 88.4017 96.3268 89.1774C96.0668 89.9531 96.0415 90.7864 96.254 91.576C96.4665 92.3656 96.9076 93.0774 97.5236 93.6249C98.1397 94.1723 98.9042 94.5319 99.7241 94.6598C100.544 94.7877 101.384 94.6784 102.142 94.3452C102.9 94.012 103.543 93.4694 103.993 92.7832C104.444 92.097 104.682 91.2968 104.678 90.48C104.667 89.896 104.535 89.3204 104.289 88.7888C104.043 88.2572 103.688 87.7809 103.248 87.3894C102.807 86.9979 102.29 86.6995 101.727 86.5126C101.165 86.3257 100.569 86.2543 99.9777 86.3029Z" fill="#0069B4"/>
<path d="M112.184 93.2401H108.393C109.092 92.0063 109.475 90.6241 109.511 89.2122L109.663 87.7949H112.146V93.2401H112.184ZM113.719 93.2401V86.4336H108.033V88.056C108.082 89.8734 107.616 91.6685 106.687 93.2401H105.721V96.0373H107.199V94.5455H113.492V96H114.989V93.2401H113.719Z" fill="#0069B4"/>
</g>
<defs>
<clipPath id="clip0">
<rect width="151" height="96" fill="white"/>
</clipPath>
</defs>
</svg>
