<svg width="79" height="78" viewBox="0 0 79 78" fill="none" xmlns="http://www.w3.org/2000/svg">
<path d="M39.5036 57.4843C49.4641 57.4843 57.5388 49.4096 57.5388 39.4491C57.5388 29.4885 49.4641 21.4138 39.5036 21.4138C29.543 21.4138 21.4683 29.4885 21.4683 39.4491C21.4683 49.4096 29.543 57.4843 39.5036 57.4843Z" stroke="#312930" stroke-miterlimit="10"/>
<path d="M50.3399 10.1326L50.6569 10.2438L48.5389 18.1603L47.6372 17.9362L49.1496 12.3867L45.7944 15.1713L45.4775 15.0601L43.9771 11.1256L42.4648 16.6751L41.5631 16.4511L43.6811 8.53454L43.998 8.64568L45.9293 13.8368L50.3399 10.1326Z" fill="#312930"/>
<path d="M51.8018 20.1254L56.7422 13.7639L60.6011 16.8646L60.0931 17.5143L56.9051 15.0167L55.3812 16.9657L57.7892 18.9138L57.2813 19.5634L54.8732 17.6154L53.0107 19.9974L56.2478 22.6041L55.7398 23.2538L51.8018 20.1254Z" fill="#312930"/>
<path d="M57.9434 25.5996L64.8895 21.5826L65.3129 22.3763L62.4567 24.0481L64.5242 27.9074L67.3803 26.2356L67.8036 27.0294L60.8575 31.0465L60.4342 30.2527L63.7582 28.2841L61.6907 24.4248L58.3668 26.3934L57.9434 25.5996Z" fill="#312930"/>
<path d="M66.2727 44.3364C65.1718 44.4107 64.2213 44.0774 63.4214 43.3365C62.6215 42.5956 62.2588 41.6397 62.2241 40.5225C62.1893 39.4053 62.5997 38.5363 63.357 37.6969C64.1143 36.8574 65.068 36.4552 66.1388 36.4624L66.1643 35.1821L62.356 35.3201L62.3403 34.3937L70.1453 34.0919L70.1611 35.0182L66.8883 35.1597L66.8628 36.44C67.8243 36.5009 68.6354 36.9695 69.2769 37.6548C69.9184 38.3402 70.232 39.1868 70.2176 40.1947C70.2524 41.3119 69.8119 42.2624 69.0847 43.0203C68.3274 43.8598 67.3737 44.262 66.2727 44.3364ZM63.9902 42.5231C64.5826 43.0991 65.3746 43.3769 66.2871 43.3285C67.1995 43.2801 67.9346 42.9854 68.6016 42.3905C69.1894 41.7679 69.5395 41.0619 69.4937 40.2171C69.4478 39.3723 69.1833 38.6349 68.5608 38.1404C67.9383 37.6459 67.2255 37.3959 66.2338 37.4165C65.3213 37.4649 64.5071 37.7318 63.9193 38.3545C63.3315 38.9771 62.9814 39.6831 63.0272 40.5279C63.0731 41.3727 63.3677 42.0285 63.9902 42.5231Z" fill="#312930"/>
<path d="M60.9999 55.1663C61.268 55.1682 61.4568 55.1423 61.6647 55.3073C61.8726 55.4723 61.971 55.691 61.9901 55.8818C61.9792 56.1542 61.9189 56.3173 61.8286 56.5619C61.659 56.7786 61.4401 56.886 61.2513 56.9119C60.9832 56.91 60.7944 56.9359 60.5865 56.7709C60.3786 56.6059 60.2802 56.3872 60.2611 56.1963C60.272 55.9239 60.3323 55.7609 60.4226 55.5163C60.5621 55.3811 60.781 55.2737 60.9999 55.1663Z" fill="#312930"/>
<path d="M49.8774 64.0437C50.1155 64.1272 50.2441 64.2643 50.3126 64.5644C50.4111 64.783 50.4002 65.0553 50.31 65.2997C50.2197 65.5441 50.0802 65.6793 49.7819 65.7587C49.563 65.866 49.2948 65.864 49.1361 65.8083C48.898 65.7249 48.7694 65.5877 48.7009 65.2876C48.6024 65.069 48.6133 64.7968 48.7035 64.5523C48.7938 64.3079 48.9333 64.1728 49.2316 64.0933C49.4505 63.986 49.6393 63.9602 49.8774 64.0437Z" fill="#312930"/>
<path d="M26.495 67.4649L26.5554 67.3012C26.6762 66.9739 27.6488 67.5 27.8523 66.4621L29.1083 61.3562C29.3309 60.5099 28.1962 60.6664 28.3774 60.1753L28.4378 60.0116L31.1999 60.7959L31.1395 60.9596C30.9885 61.3689 30.205 60.8166 30.0126 61.5811L28.685 67.1241L28.7645 67.152L33.1674 61.3014L33.4852 61.413L34.0568 67.1601C34.1442 67.653 34.2315 68.1459 34.179 68.7745L34.2585 68.8024L36.1725 63.3728C36.4745 62.5543 35.2905 62.6011 35.4415 62.1919L35.502 62.0282L37.8667 62.6731L37.8063 62.8367C37.6553 63.246 36.8718 62.6937 36.6 63.4303L34.8179 68.2592C34.4555 69.2413 35.6093 69.2764 35.4583 69.6856L35.3979 69.8493L33.3509 69.316L32.6888 63.8143C32.6506 63.4312 32.673 62.8844 32.665 62.4194L32.5856 62.3915L28.383 67.9425L26.495 67.4649Z" fill="#312930"/>
<path d="M23.5696 56.3983C22.6117 55.6023 21.9072 55.8154 20.5961 56.4601C20.4869 56.5138 20.3776 56.5676 20.2494 56.4306L20.2003 56.3213L22.2983 54.7562L22.4076 54.7024C22.9997 55.2782 23.6709 55.8817 25.1417 57.2257L26.6125 58.5697L26.5222 58.8142C26.2435 59.0846 25.7718 58.1829 25.1542 58.8867L21.6975 62.9205C21.08 63.6242 22.0299 63.9573 21.8304 64.2555L21.6609 64.4722L20.5258 63.4299C19.6472 62.6617 18.6403 61.7564 17.5241 60.9049L17.5542 60.8234L18.6912 59.1973L18.7703 59.2251C18.8495 59.2529 18.8986 59.3621 18.8384 59.5251C18.406 60.938 18.3759 61.0195 19.3337 61.8155L20.548 62.8855L22.5701 60.5575L21.5822 59.843C20.6244 59.0469 20.173 60.2692 19.8374 59.9674L19.7883 59.8582L21.6711 57.6653L21.7993 57.8023C22.1349 58.1041 20.9031 58.7765 21.7817 59.5448L22.6604 60.313L24.4038 58.2554C24.7126 57.9035 24.7538 57.5498 24.2107 57.0833L23.5696 56.3983Z" fill="#312930"/>
<path d="M16.7024 47.2689C17.3892 46.8644 16.5883 46.1226 17.0261 45.9073L17.1355 45.8535L18.3152 48.4799L18.285 48.5615C17.9266 48.8046 17.7522 47.8215 17.0956 48.1444L14.6579 49.41L16.261 52.8302L18.7779 51.5924C19.4647 51.1879 18.7432 50.4739 19.1016 50.2308L19.211 50.177L20.3907 52.8034L20.2813 52.8572C19.9228 53.1003 19.8579 52.0634 19.0919 52.4401L14.1372 54.9435C13.3712 55.3202 14.1228 55.9526 13.6851 56.1679L13.5757 56.2217L12.396 53.5953L12.5054 53.5415C12.8639 53.2984 12.978 54.4447 13.744 54.068L15.8534 52.9639L14.2504 49.5437L12.141 50.6478C11.3749 51.0245 12.1266 51.6569 11.7682 51.9L11.6587 51.9538L10.4791 49.3274L10.5885 49.2736C10.9469 49.0305 11.061 50.1769 11.7969 49.8818L16.7024 47.2689Z" fill="#312930"/>
<path d="M13.0162 33.2127C15.1567 33.2271 16.7856 34.6265 16.6667 36.8854C16.5667 39.3351 14.8077 40.4668 12.6672 40.4525L12.6006 42.0856L15.3553 42.1313C16.158 42.1366 15.8256 41.0998 16.2816 41.0757L16.3607 41.1034L16.1895 43.9882L16.1103 43.9605C15.6544 43.9846 16.0946 43.0347 15.2919 43.0293L9.86162 42.9657C9.05895 42.9603 9.34225 43.8879 8.99554 43.8584L8.91638 43.8306L9.08763 40.9458L9.16678 40.9736C9.62274 40.9494 9.2316 42.0086 9.92503 42.0677L12.2539 42.056L12.2904 40.5044C10.3986 40.3012 8.92791 38.9572 8.98668 36.8612C9.13571 34.5208 10.8757 33.1984 13.0162 33.2127ZM12.6816 39.4452C14.2869 39.456 16.152 39.0056 16.32 36.8559C16.4278 34.8691 14.6072 34.2307 13.0019 34.22C11.3965 34.2092 9.42225 34.7133 9.36348 36.8093C9.25564 38.7961 11.1554 39.4622 12.6816 39.4452Z" fill="#312930"/>
<path d="M18.4156 22.7963C18.1474 22.7943 17.9887 22.7387 17.7807 22.5736C17.5728 22.4086 17.4442 22.2713 17.4552 21.9988C17.4661 21.7263 17.5264 21.5632 17.6961 21.3463C17.8658 21.1295 18.0847 21.022 18.2736 20.9961C18.5417 20.998 18.7004 21.0537 18.9084 21.2187C19.1164 21.3838 19.2148 21.6026 19.234 21.7935C19.223 22.0661 19.1627 22.2292 18.993 22.446C18.9027 22.6907 18.6837 22.7982 18.4156 22.7963Z" fill="#312930"/>
<path d="M29.8774 14.4943C29.6391 14.4107 29.5405 14.192 29.4419 13.9732C29.3433 13.7544 29.3542 13.482 29.524 13.2652C29.6143 13.0206 29.8333 12.9133 30.0523 12.8059C30.2714 12.6985 30.5397 12.7005 30.7478 12.8656C30.956 13.0307 31.0847 13.1679 31.1833 13.3867C31.2819 13.6055 31.271 13.8779 31.1012 14.0947C31.0109 14.3393 30.7919 14.4466 30.5729 14.554C30.3045 14.552 30.1156 14.5778 29.8774 14.4943Z" fill="#312930"/>
<path d="M31.1277 35.4319H47.8808" stroke="#312930" stroke-miterlimit="10" stroke-linecap="round" stroke-linejoin="round"/>
<path d="M31.1277 39.4492H47.8808" stroke="#312930" stroke-miterlimit="10" stroke-linecap="round" stroke-linejoin="round"/>
<path d="M31.1277 43.4663H47.8808" stroke="#312930" stroke-miterlimit="10" stroke-linecap="round" stroke-linejoin="round"/>
</svg>
