<svg width="403" height="242" viewBox="0 0 403 242" fill="none" xmlns="http://www.w3.org/2000/svg">
<g >
<path d="M364.586 37.2042L182.868 6.56551L59.9208 84.0838L77.4026 130.963L279.248 184.063L329.853 117.717L364.586 37.2042Z" fill="#BAAA9B"/>
<path d="M105.58 4.14667L0 88.2304L60.611 83.5079L184.133 7.25662L105.58 4.14667Z" fill="#D8D0CA"/>
<path d="M148.595 18.0838C151.125 13.4765 155.61 10.2514 160.671 9.09955L173.092 6.21996C186.663 3.11002 200.81 3.34038 214.381 7.02625L224.732 10.021C230.828 11.7488 235.888 16.0105 238.649 21.6545C241.984 28.4503 245.894 36.8587 246.239 38.932L247.159 44.8064C248.425 52.6388 246.469 64.1571 241.524 70.2618C236.348 76.5969 228.873 80.0524 221.857 81.4346L216.336 82.4713C198.28 85.9268 179.648 84.4294 162.511 78.0943C152.045 74.1781 144.339 65.0786 142.384 54.1362C140.314 41.8116 142.499 29.0262 148.595 18.0838Z" fill="#EFBF73"/>
<path d="M223.007 4.03148C219.442 6.10478 215.761 6.91106 211.736 7.48698C209.206 7.83253 205.755 7.83253 203.57 9.44509C202.88 9.90582 202.65 10.5969 202.075 11.0577C199.315 13.5917 197.819 13.8221 194.254 13.3613C191.149 13.0158 188.389 13.0158 185.398 14.1676C183.098 15.0891 181.143 16.4713 179.418 18.199C175.852 21.6545 173.092 23.9582 168.607 26.1467C165.501 27.644 161.821 30.754 164.006 34.555C166.536 39.0472 172.747 35.3613 174.932 38.8168C176.082 40.5446 175.277 42.042 177.462 43.6545C179.533 45.1519 182.063 45.1519 184.363 45.0367C186.433 44.9215 188.734 44.4608 190.804 45.1519C192.644 45.7278 193.794 47.2252 195.519 48.0315C197.244 48.8378 198.625 48.8378 200.35 48.1467C201.615 47.6859 202.535 46.6493 203.685 45.9582C206.1 44.576 208.056 44.9215 210.701 46.0734C211.621 46.4189 211.736 47.3404 213.116 47.2252C214.266 47.2252 214.841 46.4189 215.761 45.843C216.221 45.6126 216.336 45.0367 216.681 44.8064C219.442 43.0786 220.477 43.5393 223.237 44.576C224.962 45.2671 226.457 46.0734 228.413 45.3823C229.333 45.0367 229.678 44.2304 230.483 43.7697C233.703 42.042 235.888 43.1938 239.109 43.6545C242.904 44.2304 246.584 43.7697 250.38 42.8482C251.415 42.6179 250.955 40.8901 249.92 41.2357C246.124 42.1571 242.444 42.6179 238.649 41.9268C236.923 41.5812 234.623 40.3142 232.898 40.5446C231.173 40.7749 230.713 41.8116 229.333 42.6179C225.192 45.1519 223.352 41.466 219.557 41.466C217.371 41.466 217.141 42.7331 215.531 43.6545C210.701 46.4189 212.656 43.6545 209.436 42.5027C207.826 41.9268 205.985 42.5027 204.49 43.1938C201.615 44.6912 201.615 45.7278 198.05 45.7278C194.599 45.7278 195.289 45.2671 192.759 44.0001C189.654 42.5027 186.778 43.5393 183.558 43.309C180.568 43.6545 178.268 41.8116 176.887 37.7802C177.002 37.3194 177.002 36.8587 176.887 36.398C176.772 36.2828 176.887 35.9372 176.657 35.8221C174.702 34.4399 174.357 36.1676 172.287 35.3613C170.792 33.0577 169.412 30.754 167.917 28.4503C169.297 27.7592 170.677 27.1833 172.172 26.6074C173.207 26.0315 174.242 25.5707 175.162 24.8796C178.383 22.576 180.338 18.8901 183.788 16.8168C190.229 12.9006 196.899 17.6231 202.765 13.4765C204.26 12.3247 205.525 10.4817 207.825 9.79064C209.781 9.21473 211.851 9.21473 213.921 8.86918C217.486 8.29326 220.707 7.37179 223.812 5.52886C224.847 4.95295 224.042 3.45556 223.007 4.03148Z" fill="#F5F2EB"/>
<path d="M193.909 0.345614C188.964 7.60216 178.153 7.94771 171.022 12.3247C167.801 14.2828 165.156 16.8168 162.281 19.3508C159.291 22.0001 155.725 23.0367 152.39 24.9948C148.825 27.0681 145.259 31.5603 147.79 35.7069C148.365 36.7435 149.4 37.0891 149.975 37.8953C151.7 39.1624 152.62 41.1205 152.735 43.6545C152.735 44.2304 152.735 44.9215 152.85 45.4974C153.885 47.11 153.885 47.4556 155.495 48.2618C158.946 50.1048 163.086 51.1414 166.766 52.4084C170.677 53.7906 174.587 55.288 178.728 55.5184C180.223 55.6336 181.488 55.5184 182.983 55.4032C187.008 55.0576 187.698 56.2095 190.804 58.1676C192.989 59.5498 194.714 60.2409 197.359 59.8953C201.04 59.5498 204.375 57.4765 208.171 57.4765C212.081 57.4765 215.416 59.5498 219.327 58.8587C224.272 58.0524 228.873 56.7854 233.933 56.4398C238.879 56.2095 243.939 55.8639 248.885 55.6336C250.035 55.5184 250.035 53.7906 248.885 53.9058C241.179 54.3666 233.128 54.021 225.537 55.4032C223.812 55.7487 222.202 56.3247 220.477 56.7854C217.371 57.5917 215.186 56.9006 212.196 56.3247C209.436 55.8639 207.25 55.5184 204.49 56.2095C198.97 57.4765 195.749 59.7802 190.804 55.4032C189.424 54.2514 188.619 53.4451 186.778 53.2147C182.293 52.754 178.613 54.021 174.012 52.8692C170.102 51.9477 166.421 50.3351 162.741 48.9529C161.246 48.377 159.636 48.0315 158.256 47.3404C156.185 46.9948 154.92 45.7278 154.46 43.5393C154.46 42.9634 154.46 42.3875 154.575 41.8116C153.885 39.8535 154 38.932 152.39 37.3194C150.435 35.3613 148.135 35.3613 148.825 31.2147C149.285 28.3351 152.39 26.6074 154.69 25.3404C157.22 24.0734 159.866 23.0367 162.281 21.1938C165.616 18.5446 168.262 15.5498 171.942 13.3613C175.507 11.1728 179.418 9.79064 183.328 8.52362C188.159 6.91106 192.529 5.06813 195.519 0.806347C195.979 0.345614 194.484 -0.575852 193.909 0.345614Z" fill="#F5F2EB"/>
<path d="M143.419 33.288C143.189 39.0472 140.544 44.3456 142.959 49.9896C144.914 54.4817 147.79 59.2042 151.93 62.0838C158.256 66.3456 165.961 69.4556 172.977 72.3351C174.472 73.0262 176.312 73.9477 177.923 73.9477C179.303 73.9477 180.338 73.1414 181.603 73.0262C186.203 72.7959 184.823 73.8325 187.584 74.4084C189.654 74.8692 190.804 74.754 192.874 74.2933C195.519 73.7173 197.59 72.7959 200.35 73.3718C201.96 73.7173 203.455 74.4084 205.065 74.9843C207.25 75.7906 209.321 76.3666 211.621 76.4817C213.461 76.4817 214.956 75.9058 216.911 75.9058C219.672 75.9058 221.397 77.4032 223.697 78.2095C227.032 79.3613 228.528 77.5184 231.173 75.6754C236.233 72.1048 238.994 74.5236 243.824 74.4084C246.354 74.4084 248.77 73.7173 251.07 72.6807C252.105 72.22 251.185 70.7226 250.15 71.1833C245.664 73.1414 242.099 72.3351 237.614 71.644C236.003 71.4137 234.623 71.4137 233.013 72.1048C231.863 72.6807 230.943 73.6021 229.908 74.4084C226.227 77.4032 224.387 75.9058 220.707 74.6388C216.336 73.1414 211.621 75.2147 207.02 73.8325C202.765 72.5655 199.2 70.6074 194.714 71.7592C189.654 73.1414 185.283 70.7226 180.223 71.5289C174.012 72.6807 166.536 67.6126 161.016 64.8482C154.92 61.7383 149.975 59.0891 146.524 52.8692C144.224 48.8378 143.189 45.6126 143.994 40.8901C144.454 38.2409 145.029 35.822 145.144 33.1728C145.144 32.2514 143.419 32.2514 143.419 33.288Z" fill="#F5F2EB"/>
<path d="M225.077 15.5498C215.416 14.9739 205.525 19.6964 196.439 22.576C193.679 23.4974 183.328 24.5341 186.433 29.6022C189.769 35.0158 202.65 33.6336 207.595 33.1728C217.601 32.2514 227.492 29.8325 237.498 32.2514C238.534 32.4817 238.994 30.8692 237.959 30.6388C225.307 27.644 212.886 32.2514 200.12 31.9058C198.05 31.9058 195.979 31.6755 193.909 31.2147C192.989 31.0995 192.069 30.8692 191.264 30.5236C191.034 29.1414 190.919 27.7592 190.689 26.377C191.609 24.8796 199.315 23.6126 201.155 23.0367C208.861 20.6179 216.911 16.932 225.077 17.3927C226.112 17.2775 226.112 15.5498 225.077 15.5498Z" fill="#F5F2EB"/>
<path d="M227.147 19.9268C222.777 21.1938 218.522 22.8063 214.496 24.7645C213.921 24.9948 213.921 26.0315 214.496 26.2618C218.522 27.9896 222.547 27.4137 226.687 26.6074C227.723 26.377 227.262 24.7645 226.227 24.9948C222.662 25.6859 218.867 26.377 215.301 24.8796C215.301 25.3404 215.301 25.9163 215.301 26.377C219.212 24.4189 223.352 22.9215 227.607 21.7697C228.758 21.309 228.298 19.6964 227.147 19.9268Z" fill="#F5F2EB"/>
<path d="M246.585 33.7488C249.115 29.1414 253.6 25.9163 258.661 24.7645L271.082 21.8849C284.653 18.7749 298.8 19.0053 312.371 22.6912L322.722 25.6859C328.818 27.4137 333.878 31.6755 336.639 37.3194C339.974 44.1152 343.884 52.5236 344.229 54.5969L345.149 60.4713C346.414 68.3037 344.459 79.8221 339.514 85.9268C334.338 92.2618 326.863 95.7173 319.847 97.0995L314.326 98.1362C296.27 101.592 277.638 100.094 260.501 93.7592C250.035 89.843 242.329 80.7435 240.374 69.8011C238.189 57.4765 240.374 44.6912 246.585 33.7488Z" fill="#EFBF73"/>
<path d="M320.997 19.6964C317.432 21.7697 313.751 22.576 309.726 23.1519C307.196 23.4974 303.745 23.4974 301.56 25.11C300.87 25.5707 300.64 26.2618 300.065 26.7226C297.305 29.2566 295.81 29.487 292.244 29.0262C289.139 28.6807 286.379 28.6807 283.388 29.8325C281.088 30.754 279.133 32.1362 277.408 33.8639C273.842 37.3194 271.082 39.6231 266.597 41.8116C263.491 43.309 259.811 46.4189 261.996 50.22C264.526 54.7121 270.737 51.0262 272.922 54.4817C274.072 56.2095 273.267 57.7069 275.452 59.3194C277.523 60.8168 280.053 60.8168 282.353 60.7016C284.423 60.5865 286.724 60.1257 288.794 60.8168C290.634 61.3927 291.784 62.8901 293.509 63.6964C295.234 64.5027 296.615 64.5027 298.34 63.8116C299.605 63.3508 300.525 62.3142 301.675 61.6231C304.09 60.2409 306.046 60.5864 308.691 61.7383C309.611 62.0838 309.726 63.0053 311.106 62.8901C312.256 62.8901 312.831 62.0838 313.751 61.5079C314.211 61.2775 314.326 60.7016 314.671 60.4713C317.432 58.7435 318.467 59.2043 321.227 60.2409C322.952 60.932 324.447 61.7383 326.403 61.0472C327.323 60.7016 327.668 59.8953 328.473 59.4346C331.693 57.7069 333.878 58.8587 337.099 59.3194C340.894 59.8954 344.574 59.4346 348.37 58.5131C349.405 58.2828 348.945 56.555 347.91 56.9006C344.114 57.8221 340.434 58.2828 336.639 57.5917C334.913 57.2461 332.613 55.9791 330.888 56.2095C329.163 56.4398 328.703 57.4765 327.323 58.2828C323.182 60.8168 321.342 57.131 317.547 57.131C315.361 57.131 315.131 58.398 313.521 59.3194C308.691 62.0838 310.646 59.3194 307.426 58.1676C305.815 57.5917 303.975 58.1676 302.48 58.8587C299.605 60.3561 299.605 61.3927 296.04 61.3927C292.589 61.3927 293.279 60.932 290.749 59.665C287.644 58.1676 284.768 59.2043 281.548 58.9739C278.558 59.3194 276.258 57.4765 274.877 53.4451C274.992 52.9844 274.992 52.5236 274.877 52.0629C274.762 51.9477 274.877 51.6022 274.647 51.487C272.692 50.1048 272.347 51.8325 270.277 51.0262C268.782 48.7226 267.402 46.4189 265.907 44.1152C267.287 43.4241 268.667 42.8482 270.162 42.2723C271.197 41.6964 272.232 41.2357 273.152 40.5446C276.373 38.2409 278.328 34.555 281.778 32.4817C288.219 28.5655 294.889 33.288 300.755 29.1414C302.25 27.9896 303.515 26.1467 305.815 25.4556C307.771 24.8796 309.841 24.8796 311.911 24.5341C315.476 23.9582 318.697 23.0367 321.802 21.1938C322.837 20.6179 321.917 19.1205 320.997 19.6964Z" fill="#F5F2EB"/>
<path d="M291.784 16.0105C286.839 23.2671 276.028 23.6126 268.897 27.9896C265.677 29.9477 263.031 32.4817 260.156 35.0158C257.166 37.665 253.6 38.7016 250.265 40.6597C246.7 42.733 243.134 47.2252 245.665 51.3718C246.24 52.4084 247.275 52.754 247.85 53.5603C249.575 54.8273 250.495 56.7854 250.61 59.3194C250.61 59.8954 250.61 60.5865 250.725 61.1624C251.76 62.7749 251.76 63.1205 253.37 63.9268C256.821 65.7697 260.961 66.8063 264.642 68.0734C268.552 69.4556 272.462 70.9529 276.603 71.1833C278.098 71.2985 279.363 71.1833 280.858 71.0681C284.884 70.7226 285.574 71.8744 288.679 73.8325C290.864 75.2147 292.589 75.9058 295.235 75.5603C298.915 75.2147 302.25 73.1414 306.046 73.1414C309.956 73.1414 313.291 75.2147 317.202 74.5236C322.147 73.7173 326.748 72.4503 331.808 72.1048C336.754 71.8744 341.814 71.5289 346.76 71.2985C347.91 71.1833 347.91 69.4556 346.76 69.5707C339.054 70.0315 331.003 69.6859 323.412 71.0681C321.687 71.4137 320.077 71.9896 318.352 72.4503C315.247 73.2566 313.061 72.5655 310.071 71.9896C307.311 71.5289 305.126 71.1833 302.365 71.8744C296.845 73.1414 293.624 75.4451 288.679 71.0681C287.299 69.9163 286.494 69.11 284.653 68.8796C280.168 68.4189 276.488 69.6859 271.887 68.5341C267.977 67.6126 264.296 66.0001 260.616 64.6179C259.121 64.042 257.511 63.6964 256.131 63.0053C254.06 62.6598 252.795 61.3927 252.335 59.2043C252.335 58.6283 252.335 58.0524 252.45 57.4765C251.76 55.5184 251.875 54.5969 250.265 52.9844C248.31 51.0262 246.01 51.0262 246.7 46.8796C247.16 44.0001 250.265 42.2723 252.565 41.0053C255.096 39.7383 257.741 38.7016 260.156 36.8587C263.491 34.2095 266.137 31.2147 269.817 29.0262C273.382 26.8378 277.293 25.4556 281.203 24.1885C286.034 22.576 290.404 20.733 293.394 16.4713C293.969 16.0105 292.474 15.0891 291.784 16.0105Z" fill="#F5F2EB"/>
<path d="M322.952 31.2147C313.291 30.6388 303.4 35.3613 294.314 38.2409C291.554 39.1624 281.203 40.199 284.308 45.2671C287.644 50.6807 300.525 49.2985 305.471 48.8378C315.477 47.9163 325.368 45.4974 335.374 47.9163C336.409 48.1467 336.869 46.5341 335.834 46.3037C323.182 43.309 310.761 47.9163 297.995 47.5707C295.925 47.5707 293.854 47.3404 291.784 46.8796C290.864 46.7645 289.944 46.5341 289.139 46.1885C288.909 44.8063 288.794 43.4241 288.564 42.0419C289.484 40.5446 297.19 39.2775 299.03 38.7016C306.736 36.2828 314.786 32.5969 322.952 33.0577C324.102 32.9425 324.102 31.2147 322.952 31.2147Z" fill="#F5F2EB"/>
<path d="M325.138 35.5917C320.767 36.8587 316.512 38.4713 312.486 40.4294C311.911 40.6597 311.911 41.6964 312.486 41.9268C316.512 43.6545 320.537 43.0786 324.677 42.2723C325.713 42.0419 325.253 40.4294 324.217 40.6597C320.652 41.3508 316.857 42.0419 313.291 40.5446C313.291 41.0053 313.291 41.5812 313.291 42.0419C317.202 40.0838 321.342 38.5864 325.598 37.4346C326.633 36.9739 326.173 35.3613 325.138 35.5917Z" fill="#F5F2EB"/>
<path d="M99.7149 61.2775C102.245 56.6702 106.731 53.4451 111.791 52.2933L124.212 49.4137C137.784 46.3037 151.93 46.5341 165.501 50.22L175.852 53.2147C181.948 54.9425 187.009 59.2042 189.769 64.8482C193.104 71.644 197.015 80.0524 197.36 82.1257L198.28 88.0001C199.545 95.8325 197.59 107.351 192.644 113.456C187.469 119.791 179.993 123.246 172.977 124.628L167.457 125.665C149.4 129.12 130.768 127.623 113.631 121.288C103.165 117.372 95.4595 108.272 93.5043 97.3299C91.4341 85.1205 93.5043 72.3351 99.7149 61.2775Z" fill="#EAC892"/>
<path d="M174.127 47.3404C170.562 49.4137 166.881 50.22 162.856 50.7959C160.326 51.1414 156.875 51.1414 154.69 52.754C154 53.2147 153.77 53.9058 153.195 54.3666C150.435 56.9006 148.94 57.131 145.374 56.6702C142.269 56.3247 139.509 56.3247 136.518 57.4765C134.218 58.398 132.263 59.7802 130.538 61.5079C126.973 64.9634 124.212 67.2671 119.727 69.4556C116.621 70.9529 112.941 74.0629 115.126 77.8639C117.657 82.3561 123.867 78.6702 126.052 82.1257C127.203 83.8535 126.397 85.3508 128.583 86.9634C130.653 88.4608 133.183 88.4608 135.483 88.3456C137.554 88.2304 139.854 87.7697 141.924 88.4608C143.764 89.0367 144.914 90.5341 146.639 91.3404C148.365 92.1467 149.745 92.1467 151.47 91.4556C152.735 90.9948 153.655 89.9582 154.805 89.2671C157.221 87.8849 159.176 88.2304 161.821 89.3823C162.741 89.7278 162.856 90.6493 164.236 90.5341C165.386 90.5341 165.961 89.7278 166.881 89.1519C167.342 88.9215 167.457 88.3456 167.802 88.1152C170.562 86.3875 171.597 86.8482 174.357 87.8849C176.082 88.576 177.578 89.3823 179.533 88.6912C180.453 88.3456 180.798 87.5393 181.603 87.0786C184.823 85.3508 187.008 86.5027 190.229 86.9634C194.024 87.5393 197.705 87.0786 201.5 86.1571C202.535 85.9268 202.075 84.199 201.04 84.5446C197.244 85.466 193.564 85.9268 189.769 85.2357C188.044 84.8901 185.743 83.6231 184.018 83.8535C182.293 84.0838 181.833 85.1205 180.453 85.9268C176.312 88.4608 174.472 84.7749 170.677 84.7749C168.492 84.7749 168.262 86.042 166.651 86.9634C161.821 89.7278 163.776 86.9634 160.556 85.8116C158.946 85.2357 157.105 85.8116 155.61 86.5027C152.735 88.0001 152.735 89.0367 149.17 89.0367C145.719 89.0367 146.409 88.576 143.879 87.309C140.774 85.8116 137.899 86.8482 134.678 86.6179C131.688 86.9634 129.388 85.1205 128.008 81.0891C128.123 80.6283 128.123 80.1676 128.008 79.7069C127.893 79.5917 128.008 79.2461 127.778 79.131C125.822 77.7488 125.477 79.4765 123.407 78.6702C121.912 76.3666 120.532 74.0629 119.037 71.7592C120.417 71.0681 121.797 70.4922 123.292 69.9163C124.327 69.3404 125.362 68.8796 126.282 68.1885C129.503 65.8849 131.458 62.199 134.908 60.1257C141.349 56.2095 148.02 60.932 153.885 56.7854C155.38 55.6336 156.645 53.7906 158.946 53.0995C160.901 52.5236 162.971 52.5236 165.041 52.1781C168.607 51.6022 171.827 50.6807 174.932 48.8378C175.967 48.2618 175.047 46.7645 174.127 47.3404Z" fill="#F5F2EB"/>
<path d="M145.029 43.6545C140.084 50.9111 129.273 51.2566 122.142 55.6336C118.922 57.5917 116.276 60.1257 113.401 62.6597C110.411 65.309 106.846 66.3456 103.51 68.3037C99.9448 70.377 96.3795 74.8692 98.9097 79.0158C99.4848 80.0524 100.52 80.398 101.095 81.2043C102.82 82.4713 103.74 84.4294 103.855 86.9634C103.855 87.5393 103.855 88.2304 103.97 88.8063C105.005 90.4189 105.005 90.7645 106.615 91.5707C110.066 93.4137 114.206 94.4503 117.887 95.7173C121.797 97.0995 125.707 98.5969 129.848 98.8273C131.343 98.9425 132.608 98.8273 134.103 98.7121C138.129 98.3665 138.819 99.5184 141.924 101.476C144.109 102.859 145.834 103.55 148.48 103.204C152.16 102.859 155.495 100.785 159.291 100.785C163.201 100.785 166.536 102.859 170.447 102.168C175.392 101.361 179.993 100.094 185.053 99.7487C189.999 99.5184 195.059 99.1728 200.005 98.9425C201.155 98.8273 201.155 97.0995 200.005 97.2147C192.299 97.6755 184.248 97.3299 176.657 98.7121C174.932 99.0576 173.322 99.6336 171.597 100.094C168.492 100.901 166.306 100.209 163.316 99.6336C160.556 99.1728 158.371 98.8273 155.61 99.5184C150.09 100.785 146.869 103.089 141.924 98.7121C140.544 97.5603 139.739 96.754 137.899 96.5236C133.413 96.0629 129.733 97.3299 125.132 96.1781C121.222 95.2566 117.542 93.644 113.861 92.2618C112.366 91.6859 110.756 91.3404 109.376 90.6493C107.306 90.3037 106.04 89.0367 105.58 86.8482C105.58 86.2723 105.58 85.6964 105.695 85.1205C105.005 83.1624 105.12 82.2409 103.51 80.6283C101.555 78.6702 99.2548 78.6702 99.9448 74.5236C100.405 71.644 103.51 69.9163 105.81 68.6493C108.341 67.3823 110.986 66.3456 113.401 64.5027C116.736 61.8535 119.382 58.8587 123.062 56.6702C126.627 54.4817 130.538 53.0995 134.448 51.8325C139.279 50.22 143.649 48.377 146.639 44.1152C147.1 43.5393 145.604 42.733 145.029 43.6545Z" fill="#F5F2EB"/>
<path d="M94.7694 77.1728C94.9995 83.1624 96.1496 88.3456 98.4498 93.8744C100.06 97.6754 99.7149 102.513 103.05 105.393C108.571 110 117.312 112.88 123.982 115.644C125.477 116.335 127.318 117.257 128.928 117.257C130.308 117.257 131.343 116.45 132.608 116.335C137.209 116.105 135.829 117.141 138.589 117.717C140.659 118.178 141.809 118.063 143.879 117.602C146.525 117.026 148.595 116.105 151.355 116.681C152.965 117.026 154.46 117.717 156.071 118.293C158.256 119.1 160.326 119.675 162.626 119.791C164.466 119.791 165.961 119.215 167.917 119.215C170.677 119.215 172.402 120.712 174.702 121.518C178.038 122.67 179.533 120.827 182.178 118.984C187.239 115.414 189.999 117.833 194.829 117.717C197.36 117.717 199.775 117.026 202.075 115.99C203.11 115.529 202.19 114.031 201.155 114.492C196.67 116.45 193.104 115.644 188.619 114.953C187.009 114.723 185.628 114.723 184.018 115.414C182.868 115.99 181.948 116.911 180.913 117.717C177.233 120.712 175.392 119.215 171.712 117.948C167.342 116.45 162.626 118.524 158.026 117.141C153.77 115.874 150.205 113.916 145.719 115.068C140.659 116.45 136.289 114.031 131.228 114.838C125.017 115.99 117.542 110.922 112.021 108.157C108.801 106.545 103.855 104.817 102.245 101.246C101.44 99.5184 101.555 97.3299 100.98 95.487C98.7948 88.9215 96.7246 84.3142 96.4946 77.1728C96.4946 76.021 94.7694 76.021 94.7694 77.1728Z" fill="#F5F2EB"/>
<path d="M176.197 58.7435C166.537 58.1676 156.646 62.8901 147.56 65.7697C144.799 66.6912 134.448 67.7278 137.554 72.7959C140.889 78.2095 153.77 76.8273 158.716 76.3666C168.722 75.4451 178.613 73.0262 188.619 75.4451C189.654 75.6754 190.114 74.0629 189.079 73.8325C176.428 70.8378 164.006 75.4451 151.24 75.0995C149.17 75.0995 147.1 74.8692 145.029 74.4084C144.109 74.2932 143.189 74.0629 142.384 73.7173C142.154 72.3351 142.039 70.9529 141.809 69.5707C142.729 68.0734 150.435 66.8063 152.275 66.2304C159.981 63.8116 168.032 60.1257 176.197 60.5864C177.233 60.5864 177.233 58.8587 176.197 58.7435Z" fill="#F5F2EB"/>
<path d="M178.268 63.2357C173.897 64.5027 169.642 66.1152 165.617 68.0734C165.041 68.3037 165.041 69.3404 165.617 69.5707C169.642 71.2985 173.667 70.7226 177.808 69.9163C178.843 69.6859 178.383 68.0734 177.348 68.3037C173.782 68.9948 169.987 69.6859 166.422 68.1885C166.422 68.6493 166.422 69.2252 166.422 69.6859C170.332 67.7278 174.472 66.2304 178.728 65.0786C179.763 64.6179 179.303 62.8901 178.268 63.2357Z" fill="#F5F2EB"/>
<path d="M198.05 88.8063C200.58 84.199 205.065 80.9739 210.126 79.8221L222.547 76.9425C236.118 73.8325 250.265 74.0629 263.836 77.7487L274.187 80.7435C280.283 82.4713 285.343 86.733 288.104 92.377C291.439 99.1728 295.349 107.581 295.694 109.655L296.614 115.529C297.88 123.361 295.924 134.88 290.979 140.984C285.803 147.319 278.328 150.775 271.312 152.157L265.791 153.194C247.735 156.649 229.103 155.152 211.966 148.817C201.5 144.901 193.794 135.801 191.839 124.859C189.769 112.534 191.839 99.7487 198.05 88.8063Z" fill="#EAC892"/>
<path d="M272.462 74.754C268.897 76.8273 265.216 77.6336 261.191 78.2095C258.661 78.555 255.21 78.555 253.025 80.1676C252.335 80.6283 252.105 81.3194 251.53 81.7802C248.77 84.3142 247.274 84.5446 243.709 84.0838C240.604 83.7383 237.843 83.7383 234.853 84.8901C232.553 85.8116 230.598 87.1938 228.873 88.9215C225.307 92.377 222.547 94.6807 218.061 96.8692C214.956 98.3666 211.276 101.477 213.461 105.278C215.991 109.77 222.202 106.084 224.387 109.539C225.537 111.267 224.732 112.764 226.917 114.377C228.988 115.874 231.518 115.874 233.818 115.759C235.888 115.644 238.188 115.183 240.259 115.874C242.099 116.45 243.249 117.948 244.974 118.754C246.699 119.56 248.079 119.56 249.805 118.869C251.07 118.408 251.99 117.372 253.14 116.681C255.555 115.298 257.51 115.644 260.156 116.796C261.076 117.141 261.191 118.063 262.571 117.948C263.721 117.948 264.296 117.141 265.216 116.566C265.676 116.335 265.791 115.759 266.136 115.529C268.897 113.801 269.932 114.262 272.692 115.298C274.417 115.99 275.912 116.796 277.867 116.105C278.788 115.759 279.133 114.953 279.938 114.492C283.158 112.764 285.343 113.916 288.563 114.377C292.359 114.953 296.039 114.492 299.835 113.571C300.87 113.34 300.41 111.613 299.375 111.958C295.579 112.88 291.899 113.34 288.103 112.649C286.378 112.304 284.078 111.037 282.353 111.267C280.628 111.497 280.168 112.534 278.788 113.34C274.647 115.874 272.807 112.189 269.012 112.189C266.826 112.189 266.596 113.456 264.986 114.377C260.156 117.141 262.111 114.377 258.891 113.225C257.28 112.649 255.44 113.225 253.945 113.916C251.07 115.414 251.07 116.45 247.504 116.45C244.054 116.45 244.744 115.99 242.214 114.723C239.109 113.225 236.233 114.262 233.013 114.031C230.023 114.377 227.722 112.534 226.342 108.503C226.457 108.042 226.457 107.581 226.342 107.12C226.227 107.005 226.342 106.66 226.112 106.545C224.157 105.162 223.812 106.89 221.742 106.084C220.247 103.78 218.867 101.476 217.371 99.1728C218.752 98.4817 220.132 97.9058 221.627 97.3299C222.662 96.754 223.697 96.2933 224.617 95.6022C227.837 93.2985 229.793 89.6126 233.243 87.5393C239.684 83.6231 246.354 88.3456 252.22 84.199C253.715 83.0472 254.98 81.2043 257.28 80.5132C259.236 79.9372 261.306 79.9372 263.376 79.5917C266.941 79.0158 270.162 78.0943 273.267 76.2514C274.302 75.6755 273.382 74.1781 272.462 74.754Z" fill="#F5F2EB"/>
<path d="M243.364 71.0681C238.419 78.3247 227.607 78.6702 220.477 83.0472C217.256 85.0053 214.611 87.5393 211.736 90.0734C208.746 92.7226 205.18 93.7592 201.845 95.7173C198.28 97.7906 194.714 102.283 197.244 106.429C197.82 107.466 198.855 107.812 199.43 108.618C201.155 109.885 202.075 111.843 202.19 114.377C202.19 114.953 202.19 115.644 202.305 116.22C203.34 117.833 203.34 118.178 204.95 118.984C208.401 120.827 212.541 121.864 216.221 123.131C220.132 124.513 224.042 126.011 228.183 126.241C229.678 126.356 230.943 126.241 232.438 126.126C236.463 125.78 237.153 126.932 240.259 128.89C242.444 130.272 244.169 130.963 246.814 130.618C250.495 130.272 253.83 128.199 257.625 128.199C261.536 128.199 264.871 130.272 268.782 129.581C273.727 128.775 278.327 127.508 283.388 127.162C288.333 126.932 293.394 126.586 298.339 126.356C299.49 126.241 299.49 124.513 298.339 124.628C290.634 125.089 282.583 124.744 274.992 126.126C273.267 126.471 271.657 127.047 269.932 127.508C266.826 128.314 264.641 127.623 261.651 127.047C258.891 126.586 256.705 126.241 253.945 126.932C248.425 128.199 245.204 130.503 240.259 126.126C238.879 124.974 238.074 124.168 236.233 123.937C231.748 123.477 228.068 124.744 223.467 123.592C219.557 122.67 215.876 121.058 212.196 119.675C210.701 119.1 209.091 118.754 207.711 118.063C205.64 117.717 204.375 116.45 203.915 114.262C203.915 113.686 203.915 113.11 204.03 112.534C203.34 110.576 203.455 109.655 201.845 108.042C199.89 106.084 197.589 106.084 198.28 101.937C198.74 99.0577 201.845 97.3299 204.145 96.0629C206.675 94.7959 209.321 93.7592 211.736 91.9163C215.071 89.2671 217.716 86.2723 221.397 84.0838C224.962 81.8954 228.873 80.5132 232.783 79.2461C237.613 77.6336 241.984 75.7906 244.974 71.5289C245.434 71.0681 243.939 70.2618 243.364 71.0681Z" fill="#F5F2EB"/>
<path d="M193.104 104.817C192.759 110.461 189.079 115.644 191.379 121.288C192.989 125.319 196.439 129.351 199.89 131.885C205.985 136.262 213.461 139.257 220.362 142.251C222.432 143.173 224.962 144.67 227.262 144.67C228.298 144.67 229.218 144.209 230.138 144.094C232.668 143.749 234.623 144.785 236.808 145.131C238.994 145.476 239.914 145.592 242.214 145.131C246.814 144.209 249.115 143.864 253.6 145.477C256.015 146.398 258.431 147.204 260.961 147.319C262.686 147.435 264.526 146.744 266.251 146.744C268.667 146.744 270.392 148.011 272.462 148.702C276.257 150.084 277.522 148.702 280.628 146.513C285.573 142.942 288.449 145.361 293.279 145.246C295.809 145.246 298.224 144.555 300.525 143.518C301.56 143.058 300.64 141.56 299.605 142.021C295.119 143.979 291.554 143.173 287.068 142.482C285.458 142.251 284.078 142.251 282.468 142.942C281.088 143.518 280.053 144.785 278.788 145.707C275.567 148.356 273.267 146.513 269.932 145.361C268.091 144.67 266.366 145.016 264.411 145.131C261.076 145.476 258.661 145.361 255.555 144.325C250.955 142.712 247.965 141.906 243.249 142.827C239.684 143.518 236.923 142.482 233.473 141.906C231.748 141.56 230.368 142.482 228.643 142.712C222.777 143.518 214.496 137.874 209.321 135.225C203.225 132.115 197.705 129.005 194.139 122.901C190.459 116.566 194.369 111.382 194.714 104.817C194.944 103.665 193.219 103.665 193.104 104.817Z" fill="#F5F2EB"/>
<path d="M274.532 86.2723C264.871 85.6964 254.98 90.4189 245.894 93.2985C243.134 94.22 232.783 95.2566 235.888 100.325C239.224 105.738 252.105 104.356 257.05 103.895C267.056 102.974 276.947 100.555 286.953 102.974C287.988 103.204 288.448 101.592 287.413 101.361C274.762 98.3665 262.341 102.974 249.575 102.628C247.504 102.628 245.434 102.398 243.364 101.937C242.444 101.822 241.524 101.592 240.719 101.246C240.489 99.8639 240.374 98.4817 240.144 97.0995C241.064 95.6022 248.77 94.3351 250.61 93.7592C258.315 91.3404 266.366 87.6545 274.532 88.1152C275.567 88.0001 275.567 86.2723 274.532 86.2723Z" fill="#F5F2EB"/>
<path d="M276.602 90.6493C272.232 91.9163 267.977 93.5289 263.951 95.487C263.376 95.7173 263.376 96.754 263.951 96.9843C267.977 98.7121 272.002 98.1362 276.142 97.3299C277.177 97.0995 276.717 95.487 275.682 95.7173C272.117 96.4084 268.322 97.0995 264.756 95.6022C264.756 96.0629 264.756 96.6388 264.756 97.0995C268.667 95.1414 272.807 93.644 277.062 92.4922C278.097 92.0315 277.752 90.4189 276.602 90.6493Z" fill="#F5F2EB"/>
<path d="M60.6108 83.5079L263.836 129.696L267.516 242L64.1762 199.382L60.6108 83.5079Z" fill="#AA9B8C"/>
<path d="M263.836 129.696L367.002 42.0419L368.842 142.367L267.517 242" fill="#B7A89A"/>
<path d="M364.586 37.2043L264.526 130.272L311.796 162.178L403 66.6912L364.586 37.2043Z" fill="#D8D0CA"/>
<path d="M130.768 129.12L130.193 178.995L188.964 188.555L188.274 140.524L130.768 129.12Z" fill="#F4E4D3"/>
</g>
<defs>
<clipPath id="clip0">
<rect y="6.10352e-05" width="403" height="242" fill="white"/>
</clipPath>
</defs>
</svg>
