<svg width="78" height="98" viewBox="0 0 78 98" fill="none" xmlns="http://www.w3.org/2000/svg">
<g >
<path d="M5.7364 9.12614L59.4272 0.940837C62.5867 0.423589 65.6033 2.64852 66.0214 5.82109L77.0658 82.7374C77.5492 86.4057 74.2437 87.3456 70.6876 87.9152L19.8643 96.4286C16.3082 96.9981 12.9681 94.6141 12.4977 91.045L1.2996 15.2584C0.907623 12.2841 2.87433 9.60419 5.7364 9.12614Z" fill="#EE7754"/>
<path d="M58.176 6.75416L8.29187 14.7404C5.42979 15.2184 4.71505 15.9178 5.1539 18.4825L14.8671 79.9402C15.3452 82.8023 17.036 83.3864 20.3077 82.9552L66.5497 75.6507C69.7223 75.2326 71.5668 74.6869 71.1018 71.924L62.1579 8.65015C61.7452 6.28379 60.8529 6.40139 58.176 6.75416Z" fill="#FFF3D6"/>
<path d="M52.9255 47.3119C57.6233 48.2189 61.0992 51.4347 61.7655 56.4904C62.5929 62.7683 58.1552 68.5531 51.8773 69.3805C45.5994 70.2078 39.8145 65.7702 38.9872 59.4923C38.5259 55.9922 39.4303 52.9904 41.6595 50.6053L51.0508 60.1068L52.9255 47.3119Z" fill="#4BCC6A"/>
<path d="M50.3506 58.2211L42.1467 49.5805C44.8349 47.248 48.3216 45.8276 51.8308 46.7217" fill="#EE7754"/>
<path d="M27.8194 21.69L29.9949 34.4038L48.7217 22.8387L27.8194 21.69Z" fill="#F5F2EB"/>
<path d="M34.0983 23.9213L20.3333 22.57C19.3452 22.548 18.0352 23.7618 17.2558 24.3586L16.0974 25.1899C14.6088 26.3279 13.7323 27.5019 13.6129 29.3097C13.6001 29.5022 13.6166 29.696 13.6616 29.8844L14.6141 33.8966C14.8423 36.3687 15.8371 38.1379 16.7675 38.2525C19.1052 38.5398 22.6143 38.3204 25.529 36.2219C25.7609 36.0549 24.8099 33.1336 24.8263 30.5946C24.8316 29.7503 25.4244 28.0013 26.4193 27.7364L33.7115 26.3411C33.8555 26.3136 33.984 26.2353 34.0738 26.1203C34.1636 26.0053 34.2086 25.8613 34.2006 25.7145L34.0983 23.9213Z" fill="#E9C78A"/>
<path d="M54.558 19.2103C54.0471 18.5718 53.4097 18.0453 52.6868 17.6648C51.9639 17.2843 51.1714 17.0581 50.3603 17.0007L46.3912 16.7219C42.0434 16.4166 37.7026 17.1896 33.7553 18.9723L27.8148 21.6564L27.9386 21.676L44.7922 24.3291L27.5454 27.9797C26.9909 28.0969 26.496 28.4014 26.1436 28.8423C25.7912 29.2832 25.6025 29.8337 25.6091 30.402L25.6341 32.2715C25.6669 34.7452 26.8595 38.2353 28.7219 39.8894C30.6555 41.6068 33.1196 42.3204 35.3448 42.4033L37.1171 42.4697C42.842 42.6826 48.4926 41.3131 53.4468 38.5118C54.9325 37.6714 56.1675 36.4546 57.0293 34.9818C57.8912 33.509 58.3501 31.8313 58.3607 30.1148C58.3838 26.1679 57.0403 22.3153 54.558 19.2103Z" fill="#E9C78A"/>
<path d="M30.0049 22.5228C30.2052 22.9228 30.4259 23.318 30.6064 23.7265C30.7081 23.9586 30.7773 24.2083 30.6289 24.4319C30.4805 24.6556 30.1443 24.7741 29.8992 24.8667C29.5194 25.0151 29.1281 25.1325 28.7542 25.2951C28.5665 25.3769 28.3075 25.4708 28.1613 25.6144C28.0773 25.6976 27.9574 25.8086 28.0262 25.9573C28.0541 26.0168 28.2042 26.0977 28.255 26.1464C28.3996 26.2832 28.617 26.4989 28.541 26.7218C28.4651 26.9447 28.1122 27.018 27.9143 27.0863C27.4417 27.2546 26.9694 27.4244 26.4974 27.5956C26.3401 27.6531 26.2284 27.4146 26.3858 27.357C26.7534 27.2235 27.1209 27.0912 27.4883 26.9602C27.6268 26.9109 28.0285 26.8441 28.1197 26.7358C28.3283 26.4868 28.0298 26.3139 27.8759 26.1698C27.5689 25.8804 27.6628 25.6485 27.9939 25.412C28.5104 25.0436 29.1349 24.878 29.7223 24.6553C29.8594 24.6111 29.9926 24.5557 30.1204 24.4898C30.492 24.2674 30.4191 23.9297 30.2675 23.6229C30.1042 23.2941 29.9355 22.96 29.769 22.6281C29.6934 22.4761 29.9307 22.3687 30.0062 22.5199L30.0049 22.5228Z" fill="#F5F2EB"/>
<path d="M25.8139 22.4512C26.1732 22.9371 26.7126 23.6074 26.0454 24.0209C25.6519 24.2601 25.1911 24.4008 24.7476 24.5238C24.5272 24.5851 24.3055 24.6395 24.0836 24.6974C23.9253 24.7392 23.5552 24.9082 23.5438 25.1051C23.5383 25.2078 23.783 25.3652 23.8544 25.4107C24.1034 25.5834 24.3444 25.7662 24.3544 26.0935C24.352 26.2279 24.3178 26.3595 24.2544 26.4773C24.1911 26.5951 24.1004 26.6959 23.99 26.7713C23.6792 26.9975 23.2561 27.0534 22.8844 27.1101C22.3775 27.1845 21.8654 27.2228 21.352 27.2245L21.4874 27.1421C21.419 27.3416 21.8858 27.5722 21.9816 27.7442C22.0201 27.8175 22.0437 27.8975 22.0511 27.9796C22.0584 28.0617 22.0494 28.1442 22.0245 28.2223C21.9002 28.6646 21.4311 28.8138 21.037 28.9255C20.8757 28.9703 20.8323 28.7113 20.9927 28.6665C21.2289 28.5992 21.5442 28.5177 21.6951 28.3034C21.9212 27.9806 21.6043 27.7734 21.3933 27.5744C21.3144 27.5138 21.257 27.4295 21.2297 27.3342C21.2024 27.2389 21.2066 27.1378 21.2418 27.046C21.2527 27.0197 21.2717 26.9976 21.296 26.983C21.3204 26.9683 21.3489 26.9618 21.3774 26.9644C21.8675 26.9612 22.3563 26.9234 22.8401 26.8512C23.2399 26.7883 23.8921 26.7424 24.0519 26.2953C24.2854 25.6381 23.1307 25.5663 23.2611 24.896C23.3475 24.4392 24.211 24.392 24.5555 24.3005C24.9371 24.2079 25.3089 24.0799 25.666 23.9184C25.9873 23.7641 26.1421 23.6343 26.014 23.2529C25.937 23.0257 25.7544 22.8062 25.6132 22.6175C25.5111 22.4811 25.7118 22.3148 25.8139 22.4512Z" fill="#F5F2EB"/>
<path d="M22.1836 22.0591C22.3906 22.3948 22.464 22.7946 22.3889 23.1782C22.3139 23.5618 22.0959 23.9008 21.7788 24.127C21.4157 24.3792 20.9757 24.4777 20.5571 24.6021C20.2357 24.6964 19.9221 24.8145 19.619 24.9555C19.5017 24.9991 19.39 25.056 19.2859 25.1249C19.1206 25.1935 19.0645 25.3469 19.1185 25.5849C19.1519 25.6201 19.1816 25.6585 19.2072 25.6996C19.3004 26.0165 19.3983 26.2211 19.1333 26.5093C18.8225 26.85 18.3431 26.811 17.9295 26.9133C17.6598 26.9824 17.3657 27.1262 17.2027 27.3585C17.0292 27.6066 17.093 27.8191 17.0998 28.0912C17.1037 28.2591 17.0908 28.4163 16.9648 28.539C16.899 28.6043 16.4133 28.7615 16.4759 28.8633C16.5644 29.0081 16.326 29.1148 16.2386 28.9716C16.0989 28.7453 16.2532 28.5809 16.447 28.4671C16.6739 28.3338 16.8515 28.2855 16.8286 27.9813C16.8227 27.8998 16.8088 27.8186 16.8105 27.7359C16.8123 27.5986 16.8446 27.4639 16.905 27.3415C17.0644 27.0158 17.4055 26.8051 17.74 26.6957C17.94 26.6418 18.1439 26.6023 18.35 26.5776C18.5225 26.5504 18.7225 26.519 18.8628 26.4029C19.1635 26.1631 18.983 25.9157 18.8395 25.651C18.6959 25.3863 18.6828 25.2012 18.9498 25.0129C19.3568 24.7271 19.8734 24.5386 20.3485 24.392C20.8477 24.2363 21.4153 24.1443 21.801 23.7652C22.235 23.3422 22.263 22.678 21.9522 22.1656C21.8636 22.0208 22.1021 21.9141 22.1895 22.0573L22.1836 22.0591Z" fill="#F5F2EB"/>
<path d="M21.0445 29.0938C20.6394 29.4682 21.3177 30.0503 21.4979 30.3502C21.6546 30.6107 21.7152 30.8804 21.5983 31.1658C21.5376 31.3058 21.4413 31.4189 21.3748 31.5536C21.1977 31.9068 21.3244 32.1043 21.5184 32.4056C21.6941 32.6789 21.7984 32.9134 21.7605 33.248C21.7333 33.4813 21.6272 33.751 21.7162 33.9844C21.7878 34.1695 21.9789 34.2792 22.1062 34.4202C22.1921 34.5031 22.2545 34.609 22.2863 34.7257C22.3182 34.8424 22.3183 34.9652 22.2865 35.0804C22.0568 36.1307 22.3359 37.3223 22.4478 38.3959C22.4656 38.5613 22.2198 38.6021 22.2018 38.435L22.008 36.5657C21.9642 36.1507 21.8879 35.7127 21.9675 35.301C22.0137 35.0752 22.1219 34.903 21.9827 34.6512C21.9316 34.558 21.8244 34.4913 21.7514 34.4183C21.644 34.3254 21.5552 34.2113 21.4903 34.0828C21.3155 33.6701 21.6232 33.2478 21.4739 32.8363C21.3477 32.4873 20.9992 32.2378 21.0154 31.8344C21.033 31.4141 21.4478 31.1774 21.3801 30.7459C21.2906 30.1744 20.2125 29.5078 20.8817 28.8871C21.0017 28.78 21.1624 28.9791 21.0438 29.0896L21.0445 29.0938Z" fill="#F5F2EB"/>
<path d="M16.4009 29.1236C16.2003 29.7624 16.8907 30.2026 17.1627 30.689C17.2514 30.8376 17.3052 31.0051 17.3196 31.1777C17.334 31.3504 17.3087 31.5232 17.2457 31.6819C17.0714 32.1553 16.7356 32.5556 17.088 33.0565C17.311 33.3735 17.6387 33.6026 17.7979 33.9632C18.0002 34.4183 17.8144 34.8988 17.9278 35.3645C18.0376 35.814 18.4276 36.1662 18.4191 36.6477C18.4106 37.1291 18.0725 37.4955 18.1503 38.0117C18.2404 38.6053 18.6239 39.125 18.9734 39.5885C19.0739 39.7223 18.8822 39.8867 18.7816 39.7528C18.2135 38.9981 17.6372 38.0992 18.0172 37.1431C18.1603 36.7812 18.2081 36.5173 18.0185 36.1474C17.9013 35.9202 17.7564 35.7097 17.6888 35.4596C17.5343 34.8912 17.7989 34.3357 17.4116 33.8183C17.1824 33.5102 16.8508 33.2729 16.7195 32.8964C16.5881 32.52 16.7381 32.1887 16.8936 31.8504C17.0361 31.5451 17.1499 31.2557 16.9985 30.9158C16.8702 30.6279 16.6265 30.4145 16.4431 30.1661C16.1884 29.8224 16.0335 29.447 16.1662 29.0286C16.2165 28.87 16.4523 28.9665 16.4019 29.1243L16.4009 29.1236Z" fill="#F5F2EB"/>
<path d="M30.904 18.6475C31.8387 19.0634 32.8388 19.1669 33.8456 19.1848C34.783 19.2012 35.78 19.079 36.7089 19.2534C37.0008 19.2947 37.2748 19.4229 37.4951 19.6214C37.6527 19.7748 37.7339 19.9794 37.8764 20.1485C37.9801 20.2696 38.107 20.3686 38.2494 20.4394C38.3919 20.5103 38.5468 20.5515 38.7048 20.5606C39.2974 20.6215 39.8505 20.3322 40.3932 20.1478C40.808 20.0044 41.241 19.918 41.6805 19.8908C42.5934 19.8387 43.5061 20.0465 44.3132 20.4902C45.0914 20.92 45.7252 21.5588 46.4567 22.0583C46.8757 22.3499 47.341 22.567 47.832 22.6998C48.3338 22.8319 48.8567 22.8948 49.3419 23.0857C49.9933 23.3448 50.664 23.9092 50.6572 24.6684C50.6513 25.3705 50.0622 25.9006 49.4349 26.0992C48.9728 26.2459 48.4773 26.2392 47.9957 26.2099C47.7267 26.1935 47.2202 26.112 47.2644 26.5416C47.2867 26.7554 47.4193 26.9546 47.4601 27.1673C47.5888 27.842 47.1542 28.4921 46.6051 28.8307C45.7217 29.3734 44.6166 29.2222 43.6351 29.4141C43.1129 29.503 42.6334 29.7521 42.2625 30.1273C41.9484 30.444 41.6706 30.8174 41.235 30.9795C40.5016 31.2527 39.7575 30.8094 39.1249 30.4627C38.6971 30.2289 38.2372 30.0305 37.7411 30.0569C37.5167 30.0585 37.3009 30.1385 37.1311 30.2831C36.9341 30.47 36.9273 30.7472 36.8055 30.974C36.4139 31.6993 35.5661 31.2047 35.1189 30.8163C34.7104 30.4619 34.3075 30.2233 33.7791 30.4598C33.4071 30.6252 33.1005 30.9132 32.7698 31.1434C32.1726 31.559 31.5888 31.7053 30.9466 31.2665C30.4339 30.9151 30.1276 30.5669 29.474 30.9014C28.9876 31.1586 28.4781 31.3701 27.9517 31.5331C26.8524 31.859 25.6939 31.9504 24.5505 31.8013C24.3826 31.7796 24.4072 31.5183 24.5759 31.5398C25.6184 31.6768 26.6746 31.6086 27.6851 31.339C28.1951 31.2 28.6891 31.0097 29.1596 30.771C29.4822 30.607 29.7821 30.4146 30.1594 30.4933C30.8841 30.6465 31.2793 31.5304 32.1028 31.2235C32.7192 30.9928 33.1416 30.422 33.7568 30.1844C34.4103 29.9319 34.8765 30.2709 35.3672 30.6908C35.5757 30.8718 35.7984 31.0479 36.086 31.0792C36.4724 31.1226 36.5963 30.737 36.7153 30.4519C36.7669 30.3213 36.8452 30.2034 36.9451 30.1054C37.0451 30.0075 37.1646 29.9317 37.296 29.8829C37.9072 29.6477 38.609 29.89 39.1592 30.1856C39.5677 30.4055 39.9855 30.6738 40.4462 30.7678C41.0274 30.8866 41.4383 30.6117 41.8198 30.2166C42.0811 29.9438 42.3263 29.6647 42.6596 29.4759C43.0562 29.2522 43.5124 29.1537 43.9609 29.0929C44.9511 28.9673 46.2083 29.0794 46.9023 28.2227C47.243 27.802 47.2572 27.3712 47.0946 26.8721C47.0213 26.6458 46.9122 26.3663 47.0339 26.1386C47.1556 25.911 47.3828 25.9055 47.6044 25.9143C48.2292 25.9353 48.8687 26.0422 49.4734 25.8054C49.9083 25.6344 50.3274 25.262 50.3889 24.7703C50.46 24.2104 50.0242 23.7382 49.569 23.474C48.7176 22.9844 47.6691 23.0345 46.7978 22.5632C46.0582 22.1621 45.4492 21.5693 44.7693 21.0812C44.1429 20.606 43.4081 20.2969 42.6343 20.1831C41.8606 20.0694 41.0735 20.1548 40.3476 20.4312C39.8854 20.593 39.4281 20.7996 38.9293 20.8148C38.5383 20.8274 38.1259 20.7355 37.8243 20.4667C37.4337 20.1184 37.3547 19.6721 36.7842 19.5276C35.8251 19.2857 34.7301 19.4527 33.7504 19.4323C32.745 19.4124 31.7451 19.2946 30.8159 18.8796C30.6603 18.8106 30.7522 18.5644 30.908 18.6344L30.904 18.6475Z" fill="#F5F2EB"/>
<path d="M39.6343 16.034C40.7648 17.3381 42.5632 17.5434 44.1563 17.8131C45.8655 18.1035 47.4932 18.6177 48.9995 19.505C49.8507 20.0062 50.6116 20.6799 51.5362 21.045C52.3923 21.3826 53.3168 21.4933 54.1561 21.878C55.3482 22.4225 56.3819 23.8708 55.4518 25.0758C55.2403 25.3483 54.9755 25.5733 54.7607 25.8419C54.4509 26.2296 54.3964 26.6109 54.4961 27.0952C54.6321 27.7552 54.7946 28.3781 54.1703 28.8197C53.3574 29.3925 52.399 29.8253 51.5299 30.3135C50.6163 30.8265 49.7097 31.365 48.7452 31.7828C47.8798 32.1575 46.964 32.4191 46.0126 32.4416C45.5519 32.4501 45.0535 32.3933 44.613 32.556C44.0941 32.748 43.974 33.2224 43.7007 33.6417C42.7522 35.0915 40.7509 34.4369 39.3563 34.3104C38.7265 34.2495 38.0936 34.3445 37.5135 34.5871C37.054 34.7733 36.6148 35.0061 36.1416 35.1589C35.1326 35.4823 34.1647 35.1703 33.1421 35.1186C31.8848 35.0541 30.6085 35.2666 29.3625 35.3924L25.6795 35.764C25.5121 35.7806 25.4659 35.521 25.6351 35.5041C27.6832 35.2974 29.732 35.0478 31.7861 34.8917C32.7439 34.8184 33.642 34.9252 34.5939 35.0298C35.6633 35.147 36.4509 34.7375 37.4046 34.3499C38.2339 34.0129 39.0338 33.9858 39.9207 34.1202C40.7874 34.2506 41.6789 34.4536 42.5351 34.1801C42.9461 34.0597 43.2979 33.7943 43.5256 33.4326C43.7339 33.0947 43.8579 32.7203 44.1941 32.4823C44.821 32.0403 45.6939 32.2276 46.4115 32.1609C48.4309 31.9729 50.2225 30.7488 51.9388 29.7848L53.2004 29.0765C53.6861 28.8043 54.3981 28.5597 54.3787 27.9018C54.3586 27.2245 53.9975 26.6275 54.3536 25.9772C54.7001 25.348 55.4701 24.975 55.5586 24.2068C55.667 23.285 54.8368 22.4816 54.0677 22.1285C53.2757 21.7613 52.3995 21.6475 51.5838 21.3488C50.7384 21.0371 50.0435 20.4802 49.2937 19.996C47.5889 18.8971 45.7299 18.3482 43.7589 18.0206C42.2066 17.7606 40.5308 17.4684 39.4391 16.2098C39.3213 16.0708 39.5237 15.9056 39.6343 16.034Z" fill="#F5F2EB"/>
<path d="M60.0481 21.8581C60.2683 23.3917 60.4928 24.981 60.1782 26.5093C59.8968 27.8732 59.1491 29.0243 58.1842 29.9967C57.0609 31.1282 55.7173 32.0421 54.4114 32.9474C52.9784 33.9408 51.5103 34.8818 50.0073 35.7704C49.3789 36.1378 48.781 36.58 48.0148 36.5155C47.6261 36.4819 47.2342 36.3513 46.8375 36.3852C46.3917 36.4223 46.0365 36.6787 45.6807 36.9253C45.1322 37.3033 44.6133 37.5264 43.9312 37.4549C43.1167 37.3677 42.3828 37.1281 41.5603 37.3427C40.1382 37.7134 39.0055 38.7901 37.5395 39.0496C36.7091 39.1974 35.8369 39.0271 35.0224 39.2672C34.284 39.4855 33.8471 40.1886 33.123 40.4226C31.7707 40.8584 30.8224 39.2552 29.5245 39.2664C29.002 39.2709 28.5315 39.5123 28.0608 39.7055C27.6725 39.8713 27.2672 39.9952 26.8516 40.0749C25.9899 40.2281 25.102 40.1845 24.2534 39.9474C24.0895 39.9035 24.1833 39.657 24.3455 39.7012C25.2003 39.9375 26.0958 39.967 26.9579 39.7871C27.7133 39.6269 28.3729 39.1974 29.1264 39.0474C30.344 38.8054 31.1227 39.8118 32.1903 40.158C33.0317 40.4289 33.5589 39.8485 34.1862 39.3963C34.7574 38.9851 35.4056 38.8893 36.0993 38.873C36.9229 38.8524 37.6705 38.8232 38.4352 38.505C39.0766 38.2394 39.67 37.8748 40.2897 37.5652C40.8766 37.2723 41.5019 37.0164 42.167 36.9778C42.8915 36.9335 43.583 37.2316 44.3022 37.2086C45.0913 37.1836 45.5731 36.5611 46.2525 36.268C46.8728 35.9985 47.4623 36.2304 48.1042 36.2644C48.9429 36.3112 49.7839 35.6017 50.4643 35.1903C51.2209 34.7341 51.9683 34.2636 52.7064 33.7788C54.0597 32.891 55.4044 31.9733 56.6757 30.9697C57.9471 29.966 59.1526 28.7902 59.7011 27.2322C60.2983 25.5278 60.0346 23.662 59.7823 21.9044C59.7538 21.7372 60.0132 21.6954 60.0419 21.8636L60.0481 21.8581Z" fill="#F5F2EB"/>
</g>
<defs>
<clipPath id="clip0">
<rect x="0.437256" y="8.715" width="66.3" height="89.5" transform="rotate(-7.50762 0.437256 8.715)" fill="white"/>
</clipPath>
</defs>
</svg>
