<svg width="242" height="243" viewBox="0 0 242 243" fill="none" xmlns="http://www.w3.org/2000/svg">
<path fill-rule="evenodd" clip-rule="evenodd" d="M156.492 41.7573C140.693 34.689 123.154 32.4673 106.092 35.373C89.0308 38.2788 73.2134 46.1815 60.6404 58.0818C48.0674 69.9821 39.3034 85.3455 35.457 102.229C31.6105 119.113 32.8542 136.758 39.0308 152.934C45.2074 169.11 56.0395 183.089 70.1572 193.105C84.2749 203.121 101.044 208.722 118.344 209.202C135.644 209.681 152.698 205.017 167.349 195.798C182 186.58 193.591 173.222 200.654 157.413C210.096 136.212 210.749 112.13 202.47 90.4489C194.191 68.7678 177.656 51.2572 156.492 41.7573ZM85.8451 199.874C70.3865 192.963 57.3238 181.619 48.3092 167.279C39.2945 152.938 34.7328 136.245 35.201 119.31C35.6692 102.375 41.1462 85.9586 50.9394 72.1377C60.7326 58.3169 74.402 47.712 90.2189 41.6645C106.036 35.617 123.29 34.3984 139.798 38.1628C156.307 41.9273 171.329 50.5057 182.964 62.8131C194.599 75.1206 202.325 90.6042 205.164 107.306C208.004 124.007 205.829 141.176 198.916 156.642C189.632 177.36 172.513 193.548 151.315 201.653C130.117 209.758 106.571 209.119 85.8451 199.874Z" fill="#BB9753"/>
<path fill-rule="evenodd" clip-rule="evenodd" d="M151.431 153.558C151.431 153.558 147.302 154.356 144.68 152.727C144.113 152.399 143.62 151.956 143.234 151.428C142.847 150.899 142.574 150.295 142.433 149.656C142.292 149.016 142.286 148.353 142.414 147.711C142.542 147.068 142.803 146.46 143.179 145.923C143.646 145.259 144.242 144.697 144.932 144.269C145.622 143.842 146.391 143.558 147.193 143.436C149.227 145.085 151.592 146.277 154.128 146.93C156.664 147.583 159.31 147.681 161.887 147.219C161.155 144.705 159.891 142.377 158.182 140.393C156.473 138.41 154.358 136.816 151.981 135.721C151.744 134.946 151.667 134.132 151.754 133.327C151.842 132.521 152.091 131.742 152.489 131.037C152.803 130.462 153.232 129.958 153.751 129.558C154.27 129.158 154.866 128.87 155.502 128.713C156.137 128.556 156.799 128.532 157.444 128.645C158.089 128.757 158.704 129.002 159.25 129.365C161.872 130.994 162.98 135.064 162.98 135.064C163.728 135.152 164.484 134.987 165.127 134.597C165.771 134.207 166.266 133.612 166.534 132.909C167.07 131.241 167.008 129.439 166.36 127.812C165.712 126.185 164.517 124.835 162.982 123.994C155.94 119.619 148.385 126.379 148.176 133.975C140.907 131.841 133.962 128.218 129.994 121.262C139.922 124.939 154.415 123.835 160.185 114.712C161.912 111.89 162.797 108.633 162.735 105.325C162.672 102.017 161.666 98.7961 159.834 96.0419C157.71 92.9051 155.258 91.2361 152.697 91.1177C150.136 90.9994 149.377 92.6911 150.961 94.6754C154.21 98.8386 157.096 105.285 153.049 111.806C152.199 113.289 151.064 114.588 149.71 115.629C148.355 116.669 146.807 117.431 145.156 117.87C143.506 118.308 141.784 118.415 140.092 118.184C138.4 117.952 136.77 117.387 135.297 116.522C134.469 116.07 133.743 115.452 133.163 114.708C132.582 113.964 132.161 113.108 131.924 112.195C131.688 111.281 131.641 110.328 131.786 109.396C131.932 108.463 132.268 107.57 132.772 106.772C133.11 106.145 133.575 105.595 134.138 105.159C134.701 104.722 135.349 104.408 136.041 104.237C136.732 104.065 137.452 104.04 138.153 104.164C138.855 104.287 139.523 104.556 140.115 104.953C143.209 106.875 141.907 111.375 141.907 111.375C144.005 112.678 146.253 111.457 147.523 109.41C151.317 103.295 143.994 96.0371 138.112 97.3464C140.67 95.7644 142.859 93.6535 144.534 91.1553C147.188 86.8779 146.856 79.6544 146.856 79.6544C146.856 79.6544 140.251 82.5686 137.597 86.8461C136.102 89.4561 135.182 92.3558 134.9 95.3507C133.464 89.4959 123.714 86.1478 119.92 92.2623C118.666 94.2829 118.552 96.8666 120.65 98.17C120.65 98.17 124.103 95.0066 127.198 96.929C127.814 97.2852 128.349 97.7658 128.77 98.3403C129.19 98.9148 129.486 99.5707 129.639 100.266C129.792 100.961 129.799 101.681 129.659 102.379C129.518 103.077 129.234 103.738 128.825 104.32C128.334 105.127 127.683 105.823 126.912 106.368C126.141 106.912 125.267 107.292 124.344 107.486C123.42 107.679 122.467 107.68 121.543 107.49C120.619 107.3 119.744 106.922 118.971 106.38C117.541 105.444 116.31 104.234 115.35 102.819C114.39 101.404 113.72 99.8123 113.38 98.1364C113.039 96.4605 113.034 94.7336 113.365 93.0557C113.696 91.3779 114.357 89.7825 115.309 88.3619C119.38 81.8013 126.475 81.6097 131.659 82.6845C134.155 83.1992 135.341 81.845 134.076 79.5504C132.811 77.2557 130.218 75.8998 126.499 75.3347C123.219 74.9095 119.886 75.4338 116.894 76.8456C113.903 78.2574 111.378 80.4976 109.62 83.3007C103.92 92.4855 109.381 105.967 117.187 113.325C109.196 112.851 102.87 108.231 97.7344 102.659C104.447 99.1027 107.137 89.3212 100.109 84.9549C98.6716 83.9274 96.9199 83.4367 95.1585 83.5683C93.3971 83.6998 91.7376 84.4452 90.4688 85.6747C89.962 86.232 89.6538 86.9413 89.592 87.6922C89.5303 88.443 89.7186 89.1932 90.1276 89.8258C90.1276 89.8258 94.1992 88.9737 96.8874 90.6436C97.4329 90.9815 97.904 91.427 98.2717 91.9531C98.6395 92.4791 98.8963 93.0746 99.0264 93.7032C99.1566 94.3318 99.1574 94.9804 99.0288 95.6093C98.9001 96.2382 98.6448 96.8344 98.2783 97.3613C97.8148 98.0265 97.2212 98.5906 96.5334 99.0196C95.8457 99.4485 95.078 99.7333 94.2771 99.8568C92.24 98.2126 89.8746 97.0243 87.3399 96.3716C84.8053 95.719 82.1603 95.6174 79.583 96.0734C80.3111 98.5899 81.573 100.92 83.2825 102.904C84.9921 104.888 87.1092 106.481 89.4895 107.572C89.7321 108.348 89.8157 109.165 89.7351 109.974C89.6546 110.783 89.4116 111.567 89.0207 112.28C88.707 112.855 88.2771 113.359 87.7585 113.759C87.2398 114.159 86.6437 114.447 86.008 114.604C85.3722 114.761 84.7107 114.785 84.0655 114.672C83.4203 114.56 82.8055 114.315 82.2601 113.952C79.6374 112.323 78.5866 108.307 78.5866 108.307C77.8386 108.221 77.0831 108.385 76.4379 108.773C75.7926 109.162 75.294 109.753 75.0196 110.454C74.4819 112.136 74.5518 113.954 75.2169 115.59C75.8819 117.226 77.1001 118.576 78.6586 119.405C85.6874 123.771 93.256 117.02 93.4562 109.436C100.725 111.57 107.67 115.194 111.639 122.149C101.637 118.445 87.1392 119.528 81.4397 128.713C79.7087 131.529 78.8212 134.783 78.8826 138.088C78.944 141.394 79.9516 144.612 81.786 147.362C83.9092 150.498 86.3618 152.167 88.9227 152.286C91.4837 152.404 92.2428 150.712 90.6499 148.741C87.3882 144.57 84.5238 138.119 88.4837 131.562C89.334 130.078 90.4702 128.778 91.8263 127.737C93.1823 126.696 94.7314 125.934 96.3837 125.496C98.0361 125.058 99.7588 124.953 101.452 125.186C103.145 125.419 104.776 125.986 106.248 126.854C107.079 127.305 107.808 127.922 108.39 128.666C108.972 129.411 109.395 130.267 109.633 131.182C109.871 132.096 109.919 133.05 109.773 133.984C109.628 134.918 109.292 135.813 108.787 136.612C108.449 137.239 107.983 137.789 107.42 138.225C106.858 138.662 106.21 138.976 105.518 139.147C104.827 139.319 104.107 139.344 103.406 139.22C102.704 139.097 102.036 138.828 101.444 138.431C98.3496 136.509 99.6468 131.988 99.6468 131.988C97.5618 130.693 95.3059 131.927 94.0439 133.961C90.2496 140.076 97.5651 147.347 103.447 146.038C100.889 147.611 98.7011 149.718 97.033 152.215C94.3787 156.493 94.6977 163.708 94.6977 163.708C94.6977 163.708 101.316 160.802 103.97 156.525C105.465 153.915 106.385 151.015 106.667 148.02C108.103 153.875 117.861 157.21 121.656 151.095C122.91 149.075 123.023 146.491 120.925 145.188C120.925 145.188 117.464 148.364 114.369 146.442C113.752 146.088 113.216 145.609 112.795 145.036C112.374 144.463 112.077 143.809 111.923 143.114C111.769 142.42 111.762 141.701 111.901 141.003C112.041 140.306 112.325 139.645 112.734 139.063C113.225 138.257 113.876 137.561 114.647 137.016C115.418 136.472 116.292 136.091 117.215 135.898C118.139 135.705 119.092 135.704 120.016 135.894C120.94 136.084 121.815 136.462 122.588 137.004C124.019 137.938 125.251 139.147 126.211 140.562C127.172 141.977 127.841 143.568 128.181 145.244C128.52 146.92 128.523 148.647 128.19 150.324C127.856 152.002 127.192 153.596 126.237 155.014C122.166 161.575 115.084 161.774 109.966 160.74C107.477 160.212 106.284 161.58 107.557 163.861C108.83 166.143 111.414 167.512 115.133 168.077C118.411 168.508 121.744 167.987 124.735 166.577C127.726 165.167 130.249 162.927 132.005 160.124C137.704 150.939 132.252 137.445 124.437 130.1C132.428 130.573 138.754 135.194 143.89 140.766C137.186 144.309 134.482 154.082 141.524 158.457C142.955 159.462 144.693 159.937 146.436 159.799C148.18 159.661 149.821 158.919 151.077 157.701C151.589 157.149 151.901 156.441 151.966 155.691C152.03 154.94 151.842 154.19 151.431 153.558ZM117.471 127.009C117.064 123.564 115.84 120.267 113.901 117.392C117.332 117.864 120.827 117.503 124.091 116.341C124.513 119.81 125.765 123.125 127.74 126.007C124.301 125.546 120.801 125.907 117.529 127.062" fill="#BB9753"/>
<path d="M57.0916 122.84L57.1735 118.492L50.0642 118.384L50.0711 117.407L58.0934 117.537L57.9977 123.839L49.9754 123.709L49.9954 122.74L57.0916 122.84Z" fill="#BB9753"/>
<path d="M50.2843 127.943L58.1743 126.938C58.2231 127.386 58.3754 128.516 58.4879 128.95C58.763 131.229 57.6072 132.038 56.3661 132.194C56.0064 132.235 55.6419 132.2 55.2969 132.09C54.9519 131.98 54.6344 131.797 54.3655 131.555C54.0966 131.312 53.8826 131.015 53.7377 130.682C53.5927 130.35 53.5203 129.991 53.5251 129.629C53.4849 129.313 53.4392 128.831 53.4217 128.42L50.3719 128.797L50.2843 127.943ZM57.4661 128.079L54.3902 128.44C54.4028 128.829 54.4366 129.214 54.4836 129.607C54.4579 129.847 54.4889 130.089 54.574 130.315C54.6592 130.541 54.7961 130.744 54.9738 130.908C55.1515 131.071 55.3651 131.191 55.5973 131.256C55.8296 131.322 56.074 131.333 56.311 131.287C57.2497 131.179 57.7941 130.536 57.5809 129.241C57.5406 128.925 57.477 128.413 57.4137 128.046" fill="#BB9753"/>
<path d="M60.2029 137.676C60.3568 138.199 60.4015 138.748 60.3341 139.288C60.2668 139.829 60.0889 140.35 59.8116 140.819C59.5343 141.288 59.1634 141.695 58.7221 142.014C58.2808 142.333 57.7785 142.558 57.2466 142.675C56.4634 142.873 55.6392 142.834 54.8778 142.564C54.1164 142.294 53.452 141.805 52.9683 141.157C52.4846 140.51 52.2033 139.734 52.1598 138.927C52.1164 138.12 52.3127 137.318 52.7241 136.622C53.1354 135.927 53.7435 135.369 54.4714 135.019C55.1994 134.668 56.0147 134.542 56.8146 134.654C57.6145 134.767 58.3632 135.114 58.9661 135.652C59.5691 136.19 59.9995 136.894 60.2029 137.676ZM53.1058 139.539C53.2388 140.166 53.5562 140.739 54.0173 141.184C54.4784 141.629 55.0619 141.926 55.693 142.036C56.3241 142.147 56.9738 142.066 57.5585 141.804C58.1432 141.542 58.6363 141.111 58.9742 140.567C59.3121 140.022 59.4795 139.389 59.4547 138.748C59.43 138.108 59.2143 137.489 58.8354 136.972C58.4565 136.456 57.9317 136.064 57.3285 135.848C56.7253 135.632 56.0713 135.601 55.4506 135.76C55.0449 135.847 54.6609 136.015 54.3215 136.254C53.9822 136.493 53.6945 136.798 53.4756 137.151C53.2567 137.504 53.1112 137.897 53.0476 138.307C52.9841 138.718 53.0039 139.136 53.1058 139.539Z" fill="#BB9753"/>
<path d="M54.6301 147.164L61.9785 143.93L62.3673 144.826L56.4929 147.412L64.3196 149.292L64.6705 150.074L57.3302 153.295L56.9332 152.412L62.8077 149.826L54.9809 147.945L54.6301 147.164Z" fill="#BB9753"/>
<path d="M59.9276 155.766L60.7706 155.872C60.6519 156.244 60.6097 156.636 60.6466 157.024C60.6835 157.413 60.7986 157.79 60.9852 158.132C61.0674 158.345 61.1956 158.536 61.3604 158.693C61.5253 158.85 61.7228 158.968 61.9388 159.04C62.1548 159.112 62.3839 159.135 62.6098 159.107C62.8358 159.08 63.0528 159.003 63.2455 158.882C63.9217 158.466 64.0602 157.715 63.5357 156.862L63.0473 156.068L63.8329 155.593L64.2851 156.328C64.3777 156.478 64.4993 156.608 64.6427 156.711C64.7862 156.814 64.9486 156.887 65.1206 156.926C65.2925 156.965 65.4705 156.969 65.6442 156.939C65.8179 156.908 65.9838 156.844 66.1322 156.748C66.292 156.653 66.4294 156.525 66.5352 156.372C66.641 156.219 66.7127 156.045 66.7454 155.861C66.778 155.678 66.7709 155.49 66.7246 155.31C66.6782 155.13 66.5936 154.962 66.4765 154.817C66.2949 154.516 66.0445 154.262 65.7458 154.077C65.4472 153.891 65.1088 153.779 64.7585 153.75L65.0015 152.919C65.4761 152.982 65.9304 153.152 66.33 153.416C66.7296 153.68 67.0641 154.031 67.3083 154.443C67.494 154.678 67.6269 154.951 67.6978 155.242C67.7688 155.533 67.7761 155.836 67.7194 156.13C67.6626 156.425 67.5431 156.703 67.369 156.947C67.195 157.191 66.9703 157.395 66.7105 157.544C66.3804 157.735 66.0051 157.834 65.6237 157.831C65.2423 157.827 64.8689 157.721 64.5423 157.524C64.7055 157.935 64.7109 158.392 64.5575 158.807C64.404 159.222 64.1026 159.565 63.7113 159.771C63.4135 159.934 63.0858 160.035 62.7479 160.067C62.41 160.099 62.0691 160.063 61.7459 159.959C61.4227 159.855 61.124 159.686 60.8681 159.463C60.6121 159.24 60.4042 158.968 60.2569 158.662C59.9828 158.237 59.8132 157.754 59.7619 157.251C59.7106 156.748 59.7792 156.241 59.9619 155.77" fill="#BB9753"/>
<path d="M70.1848 159.013C70.4656 159.351 71.1159 160.118 71.5808 160.716C72.7734 162.221 72.5032 163.271 71.6348 163.968C71.3119 164.236 70.9087 164.388 70.4892 164.401C70.0698 164.414 69.6581 164.286 69.3194 164.038C69.5831 164.429 69.6823 164.908 69.5955 165.371C69.5086 165.835 69.2428 166.245 68.8555 166.514C67.5822 167.541 66.2615 166.975 65.23 165.679C64.7882 165.132 64.2278 164.366 63.9321 163.964L70.1848 159.013ZM67.3756 162.485L65.2369 164.175L65.9763 165.18C66.704 166.086 67.5262 166.342 68.2902 165.726C69.0543 165.11 68.8983 164.395 68.1838 163.496L67.3756 162.485ZM70.0693 160.341L68.0482 161.958L68.8433 162.961C68.9439 163.124 69.0777 163.265 69.2361 163.374C69.3945 163.483 69.5739 163.557 69.7627 163.592C69.9516 163.627 70.1457 163.622 70.3325 163.578C70.5193 163.533 70.6947 163.45 70.8474 163.333C71.5118 162.819 71.5015 162.103 70.8444 161.259L70.0955 160.357" fill="#BB9753"/>
<path d="M75.2105 165.008L78.4325 168.191L77.7766 168.838L75.2538 166.344L73.4329 168.194L75.721 170.452L75.0651 171.099L72.7901 168.85L70.9023 170.75L73.5219 173.322L72.8791 173.978L69.5734 170.724L75.2105 165.008Z" fill="#BB9753"/>
<path d="M75.4478 175.119L76.1823 175.575C77.9196 174.768 79.4208 173.528 80.5423 171.975L81.5401 170.777L85.2549 173.575L80.9797 179.264L81.8489 179.913L80.3607 181.843L79.5869 181.362L80.5192 180.123L75.5662 176.392L74.647 177.639L73.8601 177.15L75.4478 175.119ZM76.9895 176.295L80.2516 178.739L83.9808 173.784L81.7241 172.091L80.7782 173.176C79.789 174.497 78.5028 175.566 77.0239 176.298" fill="#BB9753"/>
<path d="M88.0863 175.403L92.0356 177.62L91.5945 178.419L88.496 176.676L87.2196 178.938L90.0214 180.515L89.5671 181.305L86.7653 179.728L85.4532 182.077L88.6517 183.864L88.2024 184.676L84.1612 182.402L88.0863 175.403Z" fill="#BB9753"/>
<path d="M97.8981 184.932L93.8056 183.299L92.4412 186.669L91.5384 186.308L94.527 178.857L95.4297 179.217L94.1417 182.435L98.226 184.081L99.5222 180.851L100.425 181.211L97.4494 188.671L96.5467 188.31L97.8981 184.932Z" fill="#BB9753"/>
<path d="M106.737 182.819C107.535 182.995 108.262 183.404 108.827 183.994C109.392 184.585 109.769 185.33 109.91 186.135C110.051 186.94 109.949 187.769 109.618 188.516C109.287 189.263 108.742 189.895 108.051 190.332C107.361 190.768 106.556 190.99 105.74 190.968C104.923 190.946 104.131 190.681 103.465 190.208C102.799 189.735 102.288 189.075 101.998 188.311C101.708 187.547 101.651 186.714 101.835 185.918C101.934 185.382 102.143 184.873 102.448 184.422C102.754 183.971 103.149 183.588 103.609 183.297C104.07 183.006 104.585 182.813 105.123 182.731C105.662 182.649 106.211 182.679 106.737 182.819ZM105.101 189.964C105.718 190.137 106.373 190.122 106.981 189.919C107.59 189.716 108.123 189.336 108.514 188.827C108.904 188.319 109.133 187.704 109.172 187.064C109.21 186.424 109.056 185.787 108.73 185.235C108.403 184.683 107.919 184.242 107.34 183.967C106.76 183.693 106.112 183.599 105.478 183.696C104.845 183.794 104.255 184.079 103.785 184.515C103.314 184.951 102.985 185.518 102.84 186.142C102.73 186.542 102.702 186.959 102.757 187.37C102.812 187.781 102.949 188.176 103.16 188.533C103.371 188.89 103.652 189.2 103.985 189.446C104.319 189.692 104.698 189.868 105.101 189.964Z" fill="#BB9753"/>
<path d="M116.696 184.433C117.154 184.427 118.161 184.416 118.894 184.435C120.802 184.493 121.456 185.372 121.436 186.487C121.433 186.906 121.29 187.313 121.03 187.642C120.77 187.971 120.407 188.204 120 188.303C120.47 188.349 120.904 188.58 121.205 188.944C121.507 189.308 121.652 189.777 121.609 190.248C121.563 191.874 120.296 192.541 118.649 192.5C117.938 192.476 116.898 192.394 116.496 192.398L116.696 184.433ZM117.651 185.354L117.585 187.949L118.872 187.984C119.061 188.012 119.255 187.999 119.439 187.947C119.624 187.895 119.796 187.805 119.943 187.683C120.091 187.561 120.212 187.409 120.297 187.237C120.383 187.065 120.431 186.878 120.44 186.686C120.469 185.849 119.922 185.383 118.851 185.353L117.651 185.354ZM117.562 188.807L117.483 191.539C117.758 191.565 118.261 191.604 118.724 191.619C119.907 191.645 120.616 191.176 120.644 190.194C120.672 189.212 120.01 188.873 118.848 188.842L117.562 188.807Z" fill="#BB9753"/>
<path d="M130.404 183.667L131.227 183.542L135.938 190.94L134.903 191.115L133.494 188.877L129.89 189.473L129.279 192.039L128.307 192.199L130.404 183.667ZM130.124 188.51L132.975 188.045L130.992 184.886L130.124 188.51Z" fill="#BB9753"/>
<path d="M137.711 189.596L138.525 189.338C138.901 187.442 138.771 185.48 138.148 183.65L137.751 182.094L142.263 180.68L144.384 187.451L145.418 187.13L146.152 189.404L145.287 189.684L144.843 188.263L138.881 190.141L139.333 191.549L138.469 191.83L137.711 189.596ZM139.547 189.009L143.431 187.786L141.622 181.918L138.959 182.754L139.287 184.157C139.772 185.738 139.879 187.412 139.599 189.042" fill="#BB9753"/>
<path d="M147.549 181.788C147.923 181.566 148.252 181.388 148.47 181.27C150.279 180.375 151.57 180.814 152.235 182.172C152.9 183.53 152.276 185.033 150.554 185.963L148.901 186.754L145.317 179.529L146.182 179.102L147.549 181.788ZM147.957 182.623L149.339 185.463L150.221 185.066C151.384 184.479 151.794 183.643 151.277 182.632C150.761 181.62 149.944 181.53 148.789 182.104C148.489 182.251 148.198 182.417 147.918 182.599L147.957 182.623ZM150.962 176.728L151.839 176.309L155.392 183.497L154.519 183.936L150.962 176.728Z" fill="#BB9753"/>
<path d="M154.482 174.595L158.192 172.1L158.704 172.855L155.8 174.813L159.777 180.701L158.977 181.259L154.482 174.595Z" fill="#BB9753"/>
<path d="M159.849 170.775L163.3 167.848L163.887 168.541L161.187 170.843L162.87 172.816L165.307 170.731L165.908 171.432L163.457 173.508L165.202 175.555L167.986 173.177L168.587 173.877L165.044 176.893L159.849 170.775Z" fill="#BB9753"/>
<path d="M165.331 165.864L168.41 162.542L169.081 163.159L166.664 165.765L168.567 167.529L170.739 165.17L171.423 165.795L169.238 168.145L171.211 169.971L173.698 167.281L174.369 167.898L171.22 171.303L165.331 165.864Z" fill="#BB9753"/>
<path d="M60.4949 85.887C60.7589 85.4094 61.1181 84.9911 61.5504 84.658C61.9826 84.325 62.4786 84.0845 63.0077 83.9512C63.5367 83.8179 64.0874 83.7948 64.6258 83.8833C65.1641 83.9719 65.6785 84.1701 66.1371 84.4658C66.6117 84.7311 67.0277 85.0899 67.3601 85.5204C67.6924 85.951 67.9343 86.4444 68.071 86.9709C68.2077 87.4974 68.2365 88.0461 68.1556 88.5841C68.0747 89.122 67.8858 89.638 67.6003 90.1009C67.3386 90.5746 66.9829 90.9896 66.5551 91.3206C66.1272 91.6517 65.6361 91.8916 65.1122 92.0258C64.5882 92.16 64.0423 92.1855 63.5081 92.1009C62.9738 92.0162 62.4625 91.8232 62.0056 91.5335C61.5289 91.272 61.1105 90.9159 60.776 90.4871C60.4415 90.0582 60.1979 89.5656 60.0602 89.0394C59.9225 88.5132 59.8935 87.9644 59.975 87.4265C60.0565 86.8887 60.2468 86.3732 60.5343 85.9115L60.4949 85.887ZM66.8447 89.6497C67.053 89.292 67.1872 88.896 67.2395 88.4853C67.2918 88.0747 67.261 87.6577 67.149 87.2591C67.037 86.8606 66.846 86.4886 66.5875 86.1654C66.329 85.8421 66.0081 85.5741 65.6441 85.3774C65.2954 85.1703 64.9093 85.034 64.508 84.9762C64.1066 84.9184 63.6978 84.9403 63.3049 85.0406C62.5114 85.2431 61.8308 85.7527 61.4129 86.4573C60.9949 87.1619 60.8739 88.0037 61.0763 88.7976C61.2787 89.5915 61.7881 90.2725 62.4923 90.6907C63.1879 91.1228 64.0266 91.2607 64.8238 91.0742C65.621 90.8876 66.3115 90.3918 66.7434 89.6959" fill="#BB9753"/>
<path d="M71.2096 84.4047L64.9783 79.3706C65.2143 78.9902 65.9365 78.1484 66.2739 77.7218C67.7146 75.927 69.0584 76.162 70.0652 76.9692C70.3455 77.1992 70.5738 77.4861 70.735 77.811C70.8962 78.1358 70.9867 78.4912 71.0004 78.8536C71.0142 79.216 70.9509 79.5773 70.8148 79.9134C70.6787 80.2496 70.4728 80.553 70.2108 80.8036C70.048 81.066 69.7039 81.4156 69.4267 81.7159L71.8536 83.6597L71.2096 84.4047ZM66.2995 79.1735L68.7182 81.1305C68.9217 80.8025 69.2482 80.5691 69.491 80.2656C70.2408 79.3501 70.2102 78.4041 69.4231 77.7698C68.6359 77.1354 67.9166 77.2701 67.0524 78.2236C66.8815 78.4991 66.5473 78.8913 66.3126 79.1817" fill="#BB9753"/>
<path d="M76.1898 78.4888L70.7355 72.6104L71.442 71.9404L75.8048 76.65L75.0184 68.6363L75.6547 68.05L81.109 73.9285L80.3895 74.5903L76.0267 69.8806L76.818 77.9157L76.1898 78.4888Z" fill="#BB9753"/>
<path d="M79.1368 65.3658L82.7843 62.7964L83.3183 63.5462L80.4496 65.5633L84.5442 71.3788L83.7442 71.9361L79.1368 65.3658Z" fill="#BB9753"/>
<path d="M89.2788 68.1652L85.5876 61.0553L86.4469 60.6075L89.4024 66.2971L90.7726 58.3503L91.5437 57.9568L95.2267 65.0799L94.3674 65.5277L91.4119 59.8381L90.0498 67.7717L89.2788 68.1652Z" fill="#BB9753"/>
<path d="M102.196 58.6722L98.0133 60.0548L99.1575 63.5104L98.2422 63.8144L95.6997 56.2L96.6281 55.9042L97.7195 59.1815L101.902 57.799L100.806 54.5003L101.729 54.1833L104.272 61.7977L103.348 62.1148L102.196 58.6722Z" fill="#BB9753"/>
<path d="M108.414 52.709L109.244 52.5706L114.063 59.8544L113.041 60.0375L111.603 57.817L107.969 58.4318L107.393 61.0004L106.413 61.1736L108.414 52.709ZM108.189 57.5504L111.03 57.0427L108.998 53.9629L108.189 57.5504Z" fill="#BB9753"/>
<path d="M120.9 52.4569L118.027 52.49L117.922 54.0064C117.603 59.1171 116.542 59.803 115.294 59.6462L115.231 58.7525C115.802 58.7983 116.76 58.4843 116.972 53.2528L117.044 51.6432L121.847 51.5176L122.072 59.5295L121.105 59.5651L120.9 52.4569Z" fill="#BB9753"/>
<path d="M126.885 54.8049C127.313 54.8167 127.742 54.8286 128.009 54.8671C130.068 55.0918 130.86 56.129 130.746 57.6584C130.633 59.1877 129.216 60.1251 127.23 59.9279C126.543 59.8645 125.824 59.7635 125.364 59.7141L126.232 51.7275L127.2 51.8376L126.885 54.8049ZM126.786 55.7252L126.439 58.8908L127.437 59.0384C128.748 59.1802 129.581 58.7161 129.715 57.5632C129.849 56.4103 129.126 55.9066 127.828 55.7729C127.482 55.736 127.134 55.7201 126.786 55.7252Z" fill="#BB9753"/>
<path d="M139.188 58.5322L134.916 57.4234L134.015 60.9541L133.073 60.7146L135.066 52.9355L136.007 53.175L135.149 56.5501L139.416 57.6376L140.288 54.2707L141.221 54.5233L139.237 62.2893L138.295 62.0498L139.188 58.5322Z" fill="#BB9753"/>
<path d="M147.694 56.867L148.463 57.1807L148.472 65.9493L147.525 65.5428L147.513 62.8988L144.182 61.5024L142.292 63.3465L141.385 62.9645L147.694 56.867ZM144.892 60.7979L147.554 61.9246L147.517 58.2657L144.892 60.7979Z" fill="#BB9753"/>
<path d="M155.224 66.4136L153.912 65.5988L150.578 67.1641L149.634 66.5775L153.164 64.9886C152.851 64.6108 152.663 64.1454 152.625 63.6563C152.587 63.1672 152.701 62.6783 152.951 62.2565C153.717 61.023 155.121 60.4589 157.016 61.5634L158.603 62.5493L154.526 69.4709L153.713 68.9658L155.224 66.4136ZM155.704 65.6393L157.398 62.9098L156.401 62.2905C156.212 62.1418 155.993 62.0352 155.759 61.9776C155.525 61.92 155.282 61.9129 155.045 61.9567C154.808 62.0004 154.583 62.094 154.385 62.2314C154.188 62.3687 154.021 62.5465 153.897 62.7531C153.714 63.0891 153.653 63.4783 153.724 63.8544C153.796 64.2304 153.996 64.57 154.29 64.815L155.704 65.6393Z" fill="#BB9753"/>
<path d="M168.85 71.8036L165.624 68.8908L160.855 74.1455L160.131 73.496L165.525 67.5568L170.19 71.7816L164.809 77.729L164.086 77.0795L168.85 71.8036Z" fill="#BB9753"/>
<path d="M167.077 80.1738L173.229 75.0328L174.6 76.6299C176.053 78.3872 175.544 79.7066 174.576 80.5052C174.298 80.7429 173.973 80.9186 173.622 81.0203C173.271 81.1221 172.903 81.1476 172.541 81.0952C172.18 81.0427 171.834 80.9136 171.526 80.7164C171.218 80.5192 170.957 80.2584 170.758 79.9517C170.566 79.705 170.254 79.3294 170.02 79.0026L167.668 80.9775L167.077 80.1738ZM173.095 76.3314L170.714 78.3244C170.947 78.6512 171.162 78.9485 171.425 79.2572C172.187 80.1668 173.117 80.3081 173.876 79.6706C174.635 79.0332 174.747 78.2666 173.883 77.2574L173.095 76.3314Z" fill="#BB9753"/>
<path d="M180.563 84.7727C180.863 85.2271 181.067 85.7385 181.161 86.275C181.255 86.8114 181.238 87.3616 181.11 87.8911C180.983 88.4207 180.748 88.9183 180.42 89.353C180.092 89.7877 179.678 90.1502 179.204 90.418C178.513 90.8375 177.714 91.043 176.907 91.0087C176.1 90.9743 175.321 90.7016 174.668 90.2249C174.016 89.7482 173.519 89.0889 173.241 88.3301C172.962 87.5713 172.915 86.7471 173.104 85.9613C173.293 85.1755 173.711 84.4633 174.304 83.9146C174.897 83.3659 175.639 83.0053 176.437 82.8782C177.235 82.751 178.052 82.8631 178.787 83.2003C179.521 83.5375 180.139 84.0846 180.563 84.7727ZM174.309 88.6137C174.531 88.9665 174.822 89.2707 175.165 89.5079C175.507 89.7452 175.894 89.9106 176.302 89.9943C176.71 90.078 177.131 90.0782 177.539 89.9948C177.948 89.9115 178.335 89.7463 178.677 89.5094C179.063 89.3164 179.404 89.0447 179.678 88.7119C179.952 88.3792 180.154 87.9926 180.27 87.5771C180.385 87.1616 180.413 86.7265 180.351 86.2997C180.288 85.8729 180.137 85.4639 179.907 85.0991C179.677 84.7343 179.373 84.4217 179.015 84.1815C178.657 83.9413 178.253 83.7788 177.828 83.7044C177.403 83.6301 176.968 83.6456 176.55 83.7499C176.131 83.8542 175.739 84.045 175.399 84.31C175.038 84.5121 174.721 84.7849 174.467 85.1121C174.213 85.4394 174.027 85.8144 173.921 86.2149C173.815 86.6154 173.79 87.0332 173.849 87.4433C173.907 87.8535 174.048 88.2477 174.262 88.6024" fill="#BB9753"/>
<path d="M177.108 93.249L177.451 94.0436C179.359 94.2045 181.276 93.883 183.028 93.1087L184.535 92.5542L186.38 96.9L179.831 99.6663L180.257 100.677L178.043 101.61L177.69 100.773L179.055 100.184L176.624 94.4389L175.26 95.0274L174.894 94.1822L177.108 93.249ZM177.834 95.0083L179.415 98.7541L185.115 96.3324L183.975 93.8066L182.624 94.2575C181.102 94.9025 179.449 95.1778 177.801 95.0608" fill="#BB9753"/>
<path d="M182.687 105.877C181.361 105.672 180.633 105.293 180.392 104.452C180.297 104.116 180.304 103.76 180.41 103.427L181.3 103.544C181.215 103.75 181.201 103.978 181.262 104.192C181.341 104.407 181.482 104.593 181.667 104.727C181.852 104.862 182.073 104.938 182.301 104.947L182.628 105.005L187.459 99.9722L187.742 101.039L183.668 105.233L189.154 106.024L189.399 106.975L182.687 105.877Z" fill="#BB9753"/>
<path d="M189.945 110.268L190.07 111.237L182.163 112.269L182.037 111.3L189.945 110.268ZM186.443 112.983L182.701 117.257L182.545 116.015L186.26 111.961L190.517 114.968L190.666 116.133L186.443 112.983Z" fill="#BB9753"/>
<path d="M190.876 119.763L190.856 120.732L183.749 120.589L183.678 124.89L190.772 125.025L190.752 125.994L183.658 125.859L183.634 126.953L181.225 126.911L181.247 125.997L182.742 126.017L182.856 119.598L190.876 119.763Z" fill="#BB9753"/>
<path d="M182.414 129.314L190.303 130.742L190.124 131.704L183.817 130.567L189.26 136.493L189.112 137.346L181.223 135.917L181.389 134.948L187.71 136.093L182.253 130.159L182.414 129.314Z" fill="#BB9753"/>
<path d="M181.947 143.613L182.419 142.179L180.269 139.262L180.608 138.219L182.892 141.328C183.204 140.963 183.617 140.698 184.08 140.568C184.542 140.437 185.033 140.448 185.489 140.597C186.853 141.063 187.705 142.355 187.009 144.413C186.837 144.924 186.534 145.735 186.381 146.185L178.778 143.625L179.111 142.65L181.947 143.613ZM182.821 143.901L185.834 144.901C185.973 144.678 186.099 144.211 186.212 143.881C186.329 143.664 186.396 143.423 186.41 143.177C186.425 142.93 186.385 142.683 186.294 142.454C186.203 142.224 186.063 142.017 185.884 141.848C185.704 141.678 185.49 141.549 185.256 141.47C184.89 141.363 184.498 141.386 184.147 141.536C183.796 141.686 183.507 141.952 183.33 142.291L182.821 143.901Z" fill="#BB9753"/>
<path fill-rule="evenodd" clip-rule="evenodd" d="M58.2319 103.898C58.0629 104.275 57.7511 104.569 57.3651 104.716C56.9791 104.863 56.5505 104.851 56.1735 104.682C55.7965 104.513 55.5021 104.201 55.355 103.815C55.2079 103.428 55.2202 103 55.3892 102.623C55.4728 102.436 55.5924 102.267 55.7411 102.127C55.8898 101.986 56.0648 101.877 56.2559 101.804C56.447 101.731 56.6506 101.697 56.8551 101.702C57.0596 101.708 57.2609 101.754 57.4475 101.838C57.6342 101.922 57.8025 102.042 57.943 102.19C58.0834 102.339 58.1932 102.514 58.266 102.706C58.3388 102.897 58.3733 103.1 58.3674 103.305C58.3616 103.51 58.3155 103.711 58.2319 103.898Z" fill="#BB9753"/>
<path fill-rule="evenodd" clip-rule="evenodd" d="M178.645 157.704C178.52 157.982 178.315 158.216 178.056 158.378C177.798 158.539 177.497 158.62 177.192 158.611C176.888 158.602 176.593 158.503 176.344 158.326C176.096 158.149 175.905 157.903 175.797 157.618C175.688 157.333 175.666 157.022 175.733 156.725C175.801 156.428 175.955 156.157 176.176 155.947C176.397 155.737 176.675 155.598 176.975 155.546C177.276 155.494 177.585 155.532 177.863 155.655C178.05 155.738 178.218 155.856 178.358 156.004C178.498 156.152 178.608 156.326 178.681 156.517C178.753 156.707 178.788 156.91 178.782 157.114C178.776 157.318 178.729 157.518 178.645 157.704Z" fill="#BB9753"/>
</svg>
