<svg width="103" height="70" viewBox="0 0 103 70" fill="none" xmlns="http://www.w3.org/2000/svg">
<g >
<path d="M0 6.10352e-05L2.6 69.7001L101.7 64.1001L103 0.900061L0 6.10352e-05Z" fill="#FFF3D6"/>
<path d="M6.40002 43.8001L19.6 10.7001L35 52.0001L55.5 29.7001L76.2 41.6001L95.5 30.9001" stroke="#BB9753" stroke-miterlimit="10"/>
<path d="M6.70001 54.8001L29.6 38.0001L72.4 31.5001L97.6 35.7001" stroke="#BB9753" stroke-miterlimit="10"/>
<path d="M5.79999 26.3001L11.1 30.6001L19.4 32.5001L26 28.5001L34.2 26.0001L45.2 9.10007L79.6 23.0001L98.3 14.7001" stroke="#EE7754" stroke-miterlimit="10"/>
<path d="M11.6 31.6001C13 31.6001 13.1 29.4001 11.6 29.4001C10.1 29.3001 10.1 31.6001 11.6 31.6001Z" fill="#4BCC6A"/>
<path d="M26 29.5001C27.4 29.5001 27.5 27.3001 26 27.3001C24.6 27.2001 24.6 29.5001 26 29.5001Z" fill="#4BCC6A"/>
<path d="M29.8 39.1001C31.2 39.1001 31.3 36.9001 29.8 36.9001C28.3 36.8001 28.3 39.1001 29.8 39.1001Z" fill="#4BCC6A"/>
<path d="M50.5 35.8001C51.9 35.8001 52 33.6001 50.5 33.6001C49 33.6001 49 35.8001 50.5 35.8001Z" fill="#4BCC6A"/>
<path d="M61.4 34.4001C62.8 34.4001 62.9 32.2001 61.4 32.2001C59.9 32.1001 59.9 34.4001 61.4 34.4001Z" fill="#4BCC6A"/>
<path d="M89.5 35.2001C90.9 35.2001 91 33.0001 89.5 33.0001C88 33.0001 88 35.2001 89.5 35.2001Z" fill="#4BCC6A"/>
<path d="M95.1 61.0001L96.5 59.2001" stroke="#2A2893" stroke-miterlimit="10"/>
<path d="M7.30001 7.30006L5.20001 5.50006L7.00001 62.2001L96.3 59.2001L94.8 56.9001" stroke="#BB9753" stroke-miterlimit="10"/>
<path d="M3.20001 6.60006L5.00001 4.80006" stroke="#2A2893" stroke-miterlimit="10"/>
</g>
<defs>
<clipPath id="clip0">
<rect y="6.10352e-05" width="103" height="69.7" fill="white"/>
</clipPath>
</defs>
</svg>
