<svg width="121" height="110" viewBox="0 0 121 110" fill="none" xmlns="http://www.w3.org/2000/svg">
<g >
<path d="M34.7479 65.2114C34.7479 65.2114 41.1563 85.7785 47.823 94.8049C54.4531 103.726 38.0932 105.255 38.0932 105.255L27.3693 65.0494L34.7479 65.2114Z" fill="#C5D5D8"/>
<path d="M67.7957 12.9284C67.7957 12.9284 84.4389 49.0788 89.6469 50.8183" stroke="white" stroke-miterlimit="10"/>
<path d="M42.8565 83.1832L44.6727 87.7491L41.395 88.175L39.5908 84.6674L42.8565 83.1832Z" fill="#EA5959"/>
<path d="M71.6179 7.59182L94.9841 54.638L36.8002 65.6818L29.2117 43.7522L71.6179 7.59182Z" fill="#C5D5D8"/>
<path d="M32.4622 37.787L46.7539 68.8484C46.7539 68.8484 28.2054 79.7531 20.6086 75.8888C15.3196 73.2329 9.48557 59.7865 6.89525 52.3009C5.83724 49.2434 7.88244 45.9385 11.8215 44.6935L32.4622 37.787Z" fill="#EE7754"/>
<path d="M68.441 10.6981L89.2964 57.3146" stroke="white" stroke-miterlimit="10"/>
<path d="M80.7034 12.0035C80.7034 12.0035 98.8965 29.0829 98.4147 42.7079" stroke="#EA5959" stroke-miterlimit="10"/>
<path d="M82.5137 6.6548C82.5137 6.6548 106.844 26.4509 105.255 38.9243" stroke="#EA5959" stroke-miterlimit="10"/>
</g>
<defs>
<clipPath id="clip0">
<rect width="99" height="82" transform="matrix(-0.945019 0.327015 0.327015 0.945019 93.5569 3.05176e-05)" fill="white"/>
</clipPath>
</defs>
</svg>
