<svg xmlns="http://www.w3.org/2000/svg" xmlns:xlink="http://www.w3.org/1999/xlink" width="43" height="67" viewBox="0 0 43 67"><svg width="43" height="43" viewBox="0 0 43 43" fill="none" id="str-down" y="0"><path fill="#fff" d="M21.213 42.427L19.8 41.013l21.213-21.214 1.414 1.415z"></path><path fill="#fff" d="M22.628 41.012l-1.414 1.414L0 21.213 1.415 19.8z"></path></svg><svg width="26" height="8" viewBox="0 0 26 8" fill="none" id="str-right-white" y="43"><path d="M25.354 4.354a.5.5 0 0 0 0-.708L22.172.464a.5.5 0 1 0-.707.708L24.293 4l-2.828 2.828a.5.5 0 1 0 .707.708l3.182-3.182zM0 4.5h25v-1H0v1z" fill="#fff"></path></svg><svg width="15" height="8" viewBox="0 0 15 8" fill="none" id="str-up" y="51"><path fill="#fff" d="M7.078.007l.706.708L.706 7.779 0 7.07z"></path><path fill="#fff" d="M6.364.707L7.071 0l7.071 7.071-.707.707z"></path></svg><svg width="15" height="8" viewBox="0 0 15 8" fill="none" id="str-up-blue" y="59"><path fill="#099acc" d="M7.078.007l.706.708L.706 7.779 0 7.07z"></path><path fill="#099acc" d="M6.364.707L7.071 0l7.071 7.071-.707.707z"></path></svg></svg>