<svg xmlns="http://www.w3.org/2000/svg" xmlns:xlink="http://www.w3.org/1999/xlink" width="403" height="1167" viewBox="0 0 403 1167"><svg width="136" height="72" viewBox="0 0 136 72" fill="none" id="car" y="0"><path d="M2.267 53.343v2.26l93.76-.263-.052-2.417-93.708.42z" fill="#606060"></path><path d="M3.375 55.34v6.517l9.755-.21.422-1.787 21.832.42 1.371 3.311 21.832.526.264 1.682 4.271-.841v-1.42h2.267v1.998l3.692-.84.844 1.103 10.757-.263 1.424-1.997 2.004.263v1.681h3.955v-1.366l2.004-.263-.264 1.682 3.375.263-.58-3.101 37.388-.263s3.375.263 2.531-5.098L3.375 55.34z" fill="#606060"></path><path d="M26.208 71.685c4.602 0 8.332-3.718 8.332-8.304s-3.73-8.303-8.332-8.303c-4.601 0-8.331 3.717-8.331 8.303s3.73 8.304 8.331 8.304z" fill="#444"></path><path d="M4.535 0L0 52.24l96.397-.841L97.768.579 4.535 0z" fill="#DFDFDF"></path><path d="M96.028 14.137l1.424 6.202h20.408l-19.564-6.517-2.268.315zM96.344 22.598l26.05-.84 9.914 21.179.58 13.822-16.716.263-6.803-5.36h-9.334l-3.691 5.097h-3.111l4.535-6.517-1.424-27.644zM26.05 69.425c3.437 0 6.223-2.777 6.223-6.202s-2.786-6.201-6.222-6.201c-3.437 0-6.223 2.776-6.223 6.201s2.786 6.202 6.223 6.202z" fill="#DFDFDF"></path><path d="M106.364 72c4.601 0 8.331-3.718 8.331-8.304s-3.73-8.303-8.331-8.303c-4.602 0-8.332 3.717-8.332 8.303S101.762 72 106.364 72z" fill="#444"></path><path d="M106.786 70.318c3.437 0 6.223-2.776 6.223-6.201s-2.786-6.202-6.223-6.202-6.223 2.777-6.223 6.202 2.786 6.201 6.223 6.201z" fill="#DFDFDF"></path><path d="M106.522 66.902a2.528 2.528 0 0 0 2.532-2.523 2.528 2.528 0 0 0-2.532-2.522 2.527 2.527 0 0 0-2.531 2.522 2.527 2.527 0 0 0 2.531 2.523zM26.05 65.746a2.527 2.527 0 0 0 2.532-2.523 2.527 2.527 0 0 0-2.531-2.522 2.527 2.527 0 0 0-2.532 2.522 2.527 2.527 0 0 0 2.532 2.523z" fill="#fff"></path><path d="M14.185 65.22l1.424.264s1.107-11.878 10.758-11.562c9.65.315 10.177 11.562 10.177 11.562l2.531-.263S38.76 51.714 26.577 52.24c-12.181.525-12.392 12.98-12.392 12.98zM94.077 65.484l1.423.262s1.108-11.877 10.758-11.562c9.65.316 10.178 11.562 10.178 11.562l2.531-.262s-.317-13.507-12.498-12.981c-12.181.525-12.392 12.98-12.392 12.98zM43.928 51.399l-.844 6.78 6.222-.316.58-5.886-5.959-.578zM60.907 52.24l5.96-.841-.845 6.78-4.27.262-.845-6.201zM77.888 51.977l5.695-.316-.58 5.676-4.535 1.104-.58-6.464z" fill="#444"></path><path d="M100.879 46.564s4.271-3.364 6.539-1.104-.264 2.523-.264 2.523l-2.004-1.42-2.003.842-2.268-.841z" fill="#5E5E5E"></path><path d="M103.147 27.119l.738 10.458 20.514 7.042-.528-3.941-3.164-11.615-2.32-1.471-15.24-.473z" fill="#606060"></path><path d="M130.041 49.401l-1.107 5.361 7.066-.526-.844-4.834h-5.115z" fill="#F2F2F2"></path><path d="M96.028 26.277s-.844 22.599-3.375 22.599h2.531l2.532-22.44-1.688-.159zM124.926 24.543l-1.319.368 6.487 14.558.369.788-5.537-15.714z" fill="#606060"></path><path d="M130.622 42.937l1.423-2.575-7.646-16.345-1.424.526 7.647 18.394z" fill="#606060"></path></svg><svg width="77" height="91" viewBox="0 0 77 91" fill="none" id="certificate" y="72"><path d="M0 1.1L77 0l-3.1 87.1L4 90.6 0 1.1z" fill="#D7F9DF"></path><path d="M6.8 7.3l63.8-.5L68 80.3 9.9 83.4 6.8 7.3z" stroke="#4BCC6A" stroke-miterlimit="10"></path><path d="M3.3 3.7l71.3-1-3.5 81.7-64.7 3.2L3.3 3.7z" stroke="#4BCC6A" stroke-miterlimit="10"></path><path d="M16.5 14.5l46-1M25.5 18.5l28-1M29.5 37.5l21-1M17.5 41.5l44-2M49.9 78.2c8.781 0 15.9-7.118 15.9-15.9 0-8.78-7.119-15.9-15.9-15.9S34 53.52 34 62.3c0 8.782 7.119 15.9 15.9 15.9z" stroke="#EE7754" stroke-miterlimit="10"></path><path d="M49.9 75.2c7.125 0 12.9-5.775 12.9-12.9 0-7.124-5.775-12.9-12.9-12.9-7.124 0-12.9 5.776-12.9 12.9 0 7.125 5.776 12.9 12.9 12.9z" stroke="#EE7754" stroke-miterlimit="10"></path><path d="M41.2 66.5v-8.6h1.1v8.6h-1.1zM43.9 63.7l1.1-.1c.1.4.2.8.4 1.1.2.3.5.5.9.7.4.2.8.3 1.3.3.4 0 .8-.1 1.1-.2.3-.1.6-.3.7-.5.1-.2.2-.5.2-.7 0-.3-.1-.5-.2-.7-.1-.2-.4-.6-.7-.7-.2-.1-.7-.2-1.5-.4s-1.3-.4-1.7-.5c-.4-.2-.7-.5-.9-.8-.2-.3-.3-.7-.3-1.1 0-.4.1-.8.4-1.2.3-.4.6-.7 1.1-.9.5-.2 1-.3 1.6-.3.6 0 1.2.1 1.7.3.5.2.9.5 1.1.9.2.4.4.8.4 1.4l-1.1.1c-.1-.5-.3-1-.6-1.2-.3-.2-.8-.4-1.5-.4s-1.2.1-1.5.4c-.3.3-.5.6-.5.9 0 .3.1.6.3.8.2.2.8.4 1.7.6.9.2 1.6.4 1.9.5.5.2.9.5 1.1.9.2.4.4.8.4 1.2 0 .5-.1.9-.4 1.3-.3.4-.6.7-1.1.9-.5.2-1 .3-1.7.3-.8 0-1.4-.1-2-.3-.6-.2-.9-.6-1.2-1-.3-.4-.5-1-.5-1.6zM52 62.3c0-1.4.4-2.5 1.1-3.3.7-.8 1.8-1.2 3-1.2.8 0 1.5.2 2.1.6.6.4 1.1.9 1.5 1.6.4.7.5 1.4.5 2.3 0 .9-.2 1.7-.5 2.3-.3.6-.8 1.2-1.5 1.6-.7.4-1.3.5-2.1.5s-1.5-.2-2.2-.6c-.7-.4-1.1-.9-1.4-1.6-.3-.7-.5-1.5-.5-2.2zm1.1 0c0 1 .3 1.9.8 2.4s1.3.9 2.1.9c.9 0 1.6-.3 2.1-.9.5-.6.8-1.5.8-2.6 0-.7-.1-1.3-.4-1.8-.3-.5-.6-.9-1-1.2-.4-.3-1-.4-1.5-.4-.8 0-1.5.3-2.1.8-.6.5-.8 1.5-.8 2.8z" fill="#EE7754"></path></svg><svg width="151" height="96" viewBox="0 0 151 96" fill="none" id="logotype" y="163"><path d="M82.427 35.562c16.205 0 30.117 2.741 39.897 6.788-1.006-11.756-6.542-22.688-15.474-30.559C97.918 3.921 86.266-.292 74.28.016c-11.986.307-23.4 5.112-31.902 13.43-8.503 8.317-13.452 19.518-13.834 31.31a154.795 154.795 0 0 1 53.883-9.194z" fill="#03BBEF"></path><path d="M82.427 35.562a115 115 0 0 1 35.083 5.035C106.138 22.993 87.185 9.324 87.185 9.324a26.33 26.33 0 0 1 5.08 14.807c-2.41.048-4.77.689-6.862 1.864a29.76 29.76 0 0 1 3.374-4.53c-4.814 1.211-12.244 5.78-16.793 9.827a11.648 11.648 0 0 1 2.9-5.483s-3.79.802-14.063 7.814c0 0 2.123-2.182 5.23-5.24a60.375 60.375 0 0 0-10.992-5.334 12.619 12.619 0 0 1 2.236 6.564 32.59 32.59 0 0 0-7.297 3.954s1.08-2.163 1.782-3.394a49.477 49.477 0 0 0-9.116 4.065l-9.95 9.026a157.997 157.997 0 0 1 49.713-7.702z" fill="#0069B4"></path><path d="M42.664 34.238a48.203 48.203 0 0 1 9.116-4.047c-.701 1.213-1.782 3.376-1.782 3.376a32.585 32.585 0 0 1 7.316-4.01 12.618 12.618 0 0 0-2.236-6.564L42.664 34.182v.056zm18.176-.671S80.91 13.203 87.185 9.324a26.33 26.33 0 0 1 5.08 14.807c-2.41.048-4.77.689-6.862 1.864a28.786 28.786 0 0 1 3.374-4.53c-4.814 1.211-12.244 5.78-16.793 9.827a11.353 11.353 0 0 1 2.9-5.464s-3.79.783-14.063 7.795l.019-.056z" fill="#fff"></path><path d="M96.832 41.026c7.069-.15 21.682 2.965 35.689 7.105-8.397-7.012-26.914-12.625-50.094-12.625-26.894 0-49.183 6.322-61.73 12.625a281.098 281.098 0 0 1 50.112-4.868 194.712 194.712 0 0 1 38.968 3.73c-3.791-4.047-12.945-5.967-12.945-5.967z" fill="#61B55A"></path><path d="M9.894 60.345c-3.298.448-6.596.933-9.894 1.436a4.35 4.35 0 0 1 1.005 2.182c.89 5.594 1.762 11.077 2.653 16.615a4.463 4.463 0 0 1-.246 2.368l4.719-.727a4.146 4.146 0 0 1-.986-2.182c-.834-5.445-1.649-10.871-2.483-16.317l3.014-.428a4.327 4.327 0 0 1 2.672.354l-.454-3.3zm25.094.54c.985 3.432 1.895 6.863 2.88 10.295l-3.79.317c.303-3.543.613-7.08.928-10.611h-.018zm109.776-.875a4.034 4.034 0 0 1-1.649-.408 3.97 3.97 0 0 1-1.325-1.048 3.88 3.88 0 0 1-.816-3.17l3.222.448c-.72 1.1-.303 1.977.834 2.145 1.137.168 1.781-.56 1.421-1.865l3.222.466a3.872 3.872 0 0 1-.529 1.587 3.953 3.953 0 0 1-1.153 1.226 4.021 4.021 0 0 1-3.264.581l.037.038zm-90.293-3.618c-3.335.149-6.652.317-9.969.522a4.41 4.41 0 0 1 .796 2.256c.36 5.595.701 11.19 1.08 16.784a4.396 4.396 0 0 1-.473 2.368l4.757-.28a4.078 4.078 0 0 1-.777-2.256c-.322-5.483-.626-10.984-.929-16.467l3.033-.149a4.34 4.34 0 0 1 2.615.578c0-1.1 0-2.219-.133-3.319v-.037zm45.602 17.175c-.3.494-.72.906-1.224 1.199a3.549 3.549 0 0 1-1.657.479c-2.786-.13-3.64-4.233-3.487-8.224.151-4.364 1.516-8.112 4.093-7.981.62.071 1.214.293 1.726.644.513.351.929.822 1.212 1.37l.398-3.73a5.873 5.873 0 0 0-3.279-1.212c-4.643-.205-7.733 4.27-7.922 11.002-.19 6.154 1.895 10.667 6.33 10.853a5.752 5.752 0 0 0 3.791-1.118v-3.282h.019zm8.188-14.229a4.255 4.255 0 0 1 .834-2.238c-1.649-.13-3.317-.223-4.966-.317.378.718.548 1.525.493 2.331l-1.024 16.784a4.42 4.42 0 0 1-.758 2.256l4.738.298a4.253 4.253 0 0 1-.474-2.33l.512-7.46h.739c1.422.13 2.009.783 2.332 2.331.322 1.548.454 3.6.701 5.11.153.911.42 1.8.796 2.648l4.037.335a7.497 7.497 0 0 1-1.099-2.629c-.285-1.305-.55-3.972-.948-6.098a4.346 4.346 0 0 0-.986-2.323 4.455 4.455 0 0 0-2.122-1.407 321.714 321.714 0 0 1 4.7-6.694 7.743 7.743 0 0 1 2.066-2.126c-1.725-.15-3.45-.298-5.193-.41 0 0 .815.727-.171 2.275a468.319 468.319 0 0 0-4.037 6.452h-.625l.455-6.695v-.093zM39.328 76.457a3.399 3.399 0 0 1 0 2.294l4.814-.43a4.343 4.343 0 0 1-1.213-2.2 1035.72 1035.72 0 0 0-4.587-16.783 2.865 2.865 0 0 1 0-2.088c-2.085.149-4.15.317-6.235.503.393.616.529 1.358.379 2.07-.55 5.184-1.062 10.35-1.535 15.534a10.8 10.8 0 0 1-.986 4.102l4.132-.373a9.857 9.857 0 0 1-.247-3.953v-1.119l4.72-.391.758 2.834zm47.857-18.07c.016-.816.266-1.61.72-2.294h-4.966c.396.708.598 1.505.588 2.313l-.133 6.583h-5.212v-6.677c0-.841.251-1.664.72-2.368h-4.985c.432.69.661 1.484.664 2.294V75.02a4.312 4.312 0 0 1-.664 2.331h4.758a4.125 4.125 0 0 1-.626-2.312v-7.46h5.193c0 2.5 0 5.017-.132 7.46a4.312 4.312 0 0 1-.645 2.293l4.757.094a4.106 4.106 0 0 1-.587-2.313c.133-5.594.265-11.188.417-16.783l.133.056zm-67.777 9.53a61.745 61.745 0 0 0-1.611 6.526c0-2.406-.493-6.695-.853-9.53l-.398-3.095a4.136 4.136 0 0 1 .36-2.35l-4.965.616c.548.618.892 1.385.985 2.2.74 5.595 1.497 11.19 2.236 16.672.101.799-.017 1.61-.34 2.35l3.221-.41a18.55 18.55 0 0 0 1.29-3.32c.568-1.865 1.118-3.86 1.686-5.781a65 65 0 0 0 1.554-6.527h.17c0 2.406.437 6.695.759 9.548.114 1.026.246 2.051.36 3.096a4.34 4.34 0 0 1-.417 2.275l4.738-.504a4.194 4.194 0 0 1-.89-2.219c-.594-5.57-1.188-11.164-1.782-16.783a4.431 4.431 0 0 1 .436-2.368l-3.374.354a18.598 18.598 0 0 0-1.44 3.394 213.38 213.38 0 0 0-1.725 5.725v.13zm43.8-3.134a60.277 60.277 0 0 0-2.198 6.36c.19-2.406.114-6.714 0-9.567l-.113-3.114c-.038-.809.159-1.61.568-2.313-1.649 0-3.317.094-4.966.168.476.668.74 1.46.759 2.275.227 5.595.435 11.189.663 16.783a4.49 4.49 0 0 1-.569 2.313l3.298-.093a21.004 21.004 0 0 0 1.611-3.19c.72-1.864 1.46-3.729 2.218-5.594a76.658 76.658 0 0 0 2.236-6.377h.114c-.227 2.405-.209 6.713-.152 9.585v3.095c.038.809-.159 1.61-.568 2.313h4.757a4.221 4.221 0 0 1-.74-2.35c0-5.594-.132-11.189-.208-16.783a4.348 4.348 0 0 1 .683-2.35h-3.393a16.322 16.322 0 0 0-1.744 3.245l-2.255 5.594zm79.187 4.513a55.42 55.42 0 0 0-3.26 5.912c.569-2.331 1.251-6.602 1.649-9.436.133-1.026.285-2.052.436-3.077a4.104 4.104 0 0 1 .948-2.182l-4.947-.671c.368.733.5 1.559.379 2.368l-2.217 16.671a4.418 4.418 0 0 1-.929 2.2l3.222.43a21.494 21.494 0 0 0 2.123-2.89 469.8 469.8 0 0 1 3.146-5.166 65.455 65.455 0 0 0 3.279-5.912h.114c-.626 2.331-1.346 6.583-1.782 9.324-.152 1.026-.303 2.052-.474 3.077a4.285 4.285 0 0 1-.948 2.182c1.517.205 3.033.448 4.549.69a5.515 5.515 0 0 1-.114-2.35c.898-5.532 1.782-11.07 2.654-16.615a5.8 5.8 0 0 1 .853-2.2l-3.241-.355a15.697 15.697 0 0 0-2.275 2.928 207.558 207.558 0 0 0-3.165 5.072zm-17.058-2.07a59.8 59.8 0 0 0-3.051 6.005c.493-2.368 1.004-6.639 1.308-9.492 0-1.044.208-2.07.303-3.095a4.283 4.283 0 0 1 .872-2.22l-4.966-.484c.397.717.562 1.537.474 2.35l-1.592 16.782a4.503 4.503 0 0 1-.872 2.238l3.241.299a19.904 19.904 0 0 0 2.009-2.965c.967-1.753 1.895-3.506 2.957-5.26 1.061-1.752 2.198-4.102 3.07-6.041h.095c-.531 2.35-1.099 6.638-1.422 9.473a182.844 182.844 0 0 1-.36 3.096 4.147 4.147 0 0 1-.891 2.275c1.593.186 3.166.354 4.739.56a4.228 4.228 0 0 1-.36-2.425l2.047-16.783a4.27 4.27 0 0 1 .947-2.2l-3.373-.392c-.835.909-1.56 1.91-2.161 2.983-1.005 1.734-1.895 3.469-2.976 5.203l-.038.093zM36.03 86.415h1.592l3.09 3.804 2.938-3.804h1.497v8.13h-1.573v-5.874l-2.862 3.6h-.228l-2.862-3.562v5.837H36.03v-8.131zM52.292 93.334a2.962 2.962 0 0 1-1.142-.19 2.924 2.924 0 0 1-.977-.611 2.87 2.87 0 0 1-.658-.937 2.832 2.832 0 0 1-.237-1.115c0-.787.318-1.541.883-2.097a3.04 3.04 0 0 1 2.13-.868c.8 0 1.567.312 2.132.868a2.94 2.94 0 0 1 .882 2.097 2.72 2.72 0 0 1-.202 1.135 2.76 2.76 0 0 1-.656.954 2.847 2.847 0 0 1-2.155.763zm0-7.03a4.35 4.35 0 0 0-1.784.168 4.302 4.302 0 0 0-1.558.871c-.451.395-.812.88-1.06 1.422a4.157 4.157 0 0 0 0 3.45 4.218 4.218 0 0 0 1.06 1.422c.45.395.982.692 1.558.871a4.35 4.35 0 0 0 1.784.168 4.445 4.445 0 0 0 1.748-.222 4.396 4.396 0 0 0 1.517-.883c.44-.393.793-.869 1.04-1.4a4.25 4.25 0 0 0 .395-1.69 4.194 4.194 0 0 0-.384-1.695 4.255 4.255 0 0 0-1.04-1.403 4.336 4.336 0 0 0-1.524-.876 4.386 4.386 0 0 0-1.752-.204zM64.44 87.758h-2.577l-.19 1.529c-.53 4.718-1.705 5.482-3.468 5.258v-1.417c.682 0 1.611-.186 2.01-5.072l.132-1.622h5.686v8.112H64.44v-6.788zM68.554 93.24l.872-.95a3.263 3.263 0 0 0 2.141.988c.872 0 1.668-.373 1.668-1.194 0-.82-.55-1.082-1.592-1.082h-.948V89.68h.891a1.21 1.21 0 0 0 .88-.264 1.18 1.18 0 0 0 .428-.8c0-.708-.588-1.044-1.327-1.044a2.25 2.25 0 0 0-1.06.204c-.33.153-.617.384-.835.673l-.853-.802a3.787 3.787 0 0 1 1.32-.94 3.844 3.844 0 0 1 1.599-.31c1.592 0 2.71.784 2.71 2.22 0 .392-.114.776-.329 1.107-.215.33-.522.593-.884.757.445.076.848.305 1.137.647.288.342.443.774.436 1.218 0 1.492-1.516 2.406-3.165 2.406a3.842 3.842 0 0 1-1.73-.39 3.777 3.777 0 0 1-1.36-1.12zM79.603 91.133l1.327-2.89 1.327 2.89h-2.654zm1.895-4.736h-1.383l-3.79 8.149h1.61l.929-2.07h3.79l.948 2.07h1.687l-3.79-8.15zM90.008 93.24h-1.042V91.06h1.118c.986 0 1.573.335 1.573 1.025s-.587 1.175-1.648 1.175v-.019zm-1.042-5.5h.986c.853 0 1.421.354 1.421 1.006 0 .653-.606 1.082-1.346 1.082h-1.06v-2.089zm2.691 2.498c.393-.13.731-.382.964-.719.233-.337.347-.74.325-1.146 0-1.119-.815-1.995-2.975-1.995h-2.597v8.075h2.52c1.896 0 3.337-.765 3.337-2.425a1.846 1.846 0 0 0-.437-1.218 1.902 1.902 0 0 0-1.137-.647v.075zM99.978 93.333a2.962 2.962 0 0 1-2.119-.8 2.87 2.87 0 0 1-.658-.938 2.832 2.832 0 0 1-.237-1.115c.06-.748.405-1.447.965-1.956a3.06 3.06 0 0 1 2.058-.792 3.06 3.06 0 0 1 2.058.792c.56.51.905 1.208.965 1.956.012.39-.06.776-.21 1.136-.15.36-.375.686-.661.954a2.836 2.836 0 0 1-.998.608 2.87 2.87 0 0 1-1.163.155zm0-7.03a4.322 4.322 0 0 0-2.26.904 4.215 4.215 0 0 0-1.391 1.97 4.15 4.15 0 0 0-.073 2.399c.212.79.654 1.501 1.27 2.049.616.547 1.38.907 2.2 1.035.82.128 1.66.018 2.418-.315a4.262 4.262 0 0 0 1.851-1.562 4.155 4.155 0 0 0 .685-2.303 4.214 4.214 0 0 0-.389-1.691 4.283 4.283 0 0 0-1.041-1.4 4.358 4.358 0 0 0-1.521-.876 4.404 4.404 0 0 0-1.75-.21zM112.184 93.24h-3.791a8.613 8.613 0 0 0 1.118-4.028l.152-1.417h2.483v5.445h.038zm1.535 0v-6.806h-5.686v1.622a9.672 9.672 0 0 1-1.346 5.184h-.966v2.797h1.478v-1.492h6.293V96h1.497v-2.76h-1.27z" fill="#0069B4"></path></svg><svg width="79" height="78" viewBox="0 0 79 78" fill="none" id="navigation" y="259"><path d="M39.504 57.484c9.96 0 18.035-8.074 18.035-18.035 0-9.96-8.075-18.035-18.035-18.035-9.961 0-18.036 8.074-18.036 18.035 0 9.96 8.075 18.035 18.036 18.035z" stroke="#312930" stroke-miterlimit="10"></path><path d="M50.34 10.133l.317.11-2.118 7.917-.902-.224 1.513-5.55-3.356 2.785-.316-.11-1.5-3.935-1.513 5.55-.902-.225 2.118-7.916.317.11 1.931 5.192 4.41-3.704zM51.802 20.125l4.94-6.361 3.86 3.1-.509.65-3.188-2.497-1.524 1.949 2.408 1.948-.508.65-2.408-1.949-1.862 2.382 3.237 2.607-.508.65-3.938-3.129zM57.943 25.6l6.947-4.017.423.793-2.856 1.672 2.067 3.86 2.856-1.672.424.793-6.947 4.018-.423-.794 3.324-1.969-2.067-3.86-3.324 1.97-.424-.794zM66.273 44.336c-1.101.075-2.052-.259-2.852-1-.8-.74-1.162-1.696-1.197-2.813-.035-1.118.376-1.987 1.133-2.826.757-.84 1.711-1.242 2.782-1.235l.025-1.28-3.808.138-.016-.926 7.805-.302.016.926-3.273.142-.025 1.28c.961.06 1.772.53 2.414 1.215.641.685.955 1.532.94 2.54.035 1.117-.405 2.067-1.132 2.825-.758.84-1.711 1.242-2.812 1.316zm-2.283-1.813c.593.576 1.385.854 2.297.805.912-.048 1.648-.343 2.315-.938.587-.622.938-1.328.892-2.173-.046-.845-.31-1.582-.933-2.077-.623-.494-1.336-.744-2.327-.724-.913.049-1.727.316-2.315.939-.587.622-.938 1.328-.892 2.173.046.845.34 1.5.963 1.995zM61 55.166c.268.002.457-.024.665.141a.85.85 0 0 1 .325.575c-.01.272-.071.435-.161.68a.903.903 0 0 1-.578.35c-.268-.002-.457.024-.664-.141a.85.85 0 0 1-.326-.575c.011-.272.071-.435.162-.68.14-.135.358-.242.577-.35zM49.877 64.044c.238.083.367.22.436.52.098.219.087.491-.003.736-.09.244-.23.38-.528.459a.91.91 0 0 1-.646.05c-.238-.084-.367-.221-.435-.521-.099-.219-.088-.491.002-.736.09-.244.23-.38.529-.459.218-.107.407-.133.645-.05zM26.495 67.465l.06-.164c.121-.327 1.094.199 1.297-.839l1.256-5.106c.223-.846-.912-.69-.73-1.18l.06-.164 2.762.784-.06.164c-.152.409-.935-.143-1.127.621l-1.328 5.543.08.028 4.402-5.85.318.111.572 5.747c.087.493.174.986.122 1.615l.08.027 1.913-5.43c.303-.818-.881-.77-.73-1.18l.06-.164 2.365.645-.06.164c-.152.409-.935-.143-1.207.593l-1.782 4.83c-.362.981.791 1.016.64 1.426l-.06.163-2.047-.533-.662-5.502c-.038-.383-.016-.93-.024-1.395l-.08-.027-4.202 5.55-1.888-.477zM23.57 56.398c-.958-.796-1.663-.583-2.974.062-.11.054-.218.108-.347-.03l-.049-.109 2.098-1.565.11-.054c.592.576 1.263 1.18 2.734 2.524l1.47 1.344-.09.244c-.278.27-.75-.631-1.368.073l-3.456 4.033c-.618.704.332 1.037.132 1.335l-.17.217-1.134-1.042c-.879-.768-1.886-1.674-3.002-2.525l.03-.082 1.137-1.626.08.028c.078.028.128.137.067.3-.432 1.413-.462 1.495.496 2.29l1.214 1.07 2.022-2.328-.988-.714c-.958-.796-1.409.426-1.745.124l-.049-.109 1.883-2.193.128.137c.336.302-.896.974-.017 1.743l.878.768 1.744-2.058c.309-.352.35-.705-.193-1.172l-.641-.685zM16.702 47.269c.687-.405-.114-1.146.324-1.362l.11-.053 1.18 2.626-.031.082c-.358.243-.533-.74-1.19-.418l-2.437 1.266 1.603 3.42 2.517-1.238c.687-.404-.035-1.118.324-1.361l.109-.054 1.18 2.626-.11.054c-.358.243-.423-.794-1.19-.417l-4.954 2.504c-.766.376-.014 1.009-.452 1.224l-.11.054-1.179-2.627.11-.053c.358-.244.472.903 1.238.526l2.11-1.104-1.604-3.42-2.109 1.104c-.766.377-.014 1.009-.373 1.252l-.11.054-1.179-2.627.11-.053c.358-.243.472.903 1.208.608l4.905-2.613zM13.016 33.213c2.14.014 3.77 1.413 3.65 3.672-.1 2.45-1.858 3.582-3.999 3.568l-.066 1.633 2.754.045c.803.006.47-1.031.927-1.055l.079.027-.172 2.885-.079-.027c-.456.024-.015-.926-.818-.932l-5.43-.063c-.803-.006-.52.922-.866.892l-.08-.027.172-2.885.079.028c.456-.025.065 1.035.758 1.094l2.329-.012.036-1.552c-1.891-.203-3.362-1.547-3.303-3.643.149-2.34 1.889-3.663 4.03-3.648zm-.334 6.232c1.605.011 3.47-.44 3.638-2.59.108-1.986-1.713-2.624-3.318-2.635-1.606-.01-3.58.493-3.639 2.59-.107 1.986 1.792 2.652 3.319 2.635zM18.416 22.796a.9.9 0 0 1-.635-.222c-.208-.165-.337-.303-.326-.575a.99.99 0 0 1 .241-.653.904.904 0 0 1 .578-.35.9.9 0 0 1 .634.223.85.85 0 0 1 .326.575.99.99 0 0 1-.241.652c-.09.245-.31.352-.577.35zM29.877 14.494c-.238-.083-.336-.302-.435-.52a.684.684 0 0 1 .082-.709c.09-.244.31-.352.528-.46a.647.647 0 0 1 .696.06c.208.166.337.303.435.522a.684.684 0 0 1-.082.708c-.09.244-.31.352-.528.459-.268-.002-.457.024-.696-.06z" fill="#312930"></path><path d="M31.128 35.432H47.88M31.128 39.45H47.88M31.128 43.466H47.88" stroke="#312930" stroke-miterlimit="10" stroke-linecap="round" stroke-linejoin="round"></path></svg><svg width="403" height="242" viewBox="0 0 403 242" fill="none" id="pack" y="337"><path d="M364.586 37.204L182.868 6.566 59.921 84.084l17.482 46.879 201.845 53.1 50.605-66.346 34.733-80.513z" fill="#BAAA9B"></path><path d="M105.58 4.147L0 88.23l60.611-4.722L184.133 7.257l-78.553-3.11z" fill="#D8D0CA"></path><path d="M148.595 18.084c2.53-4.607 7.015-7.833 12.076-8.984l12.421-2.88a84.94 84.94 0 0 1 41.289.806l10.351 2.995a22.287 22.287 0 0 1 13.917 11.633c3.335 6.796 7.245 15.205 7.59 17.278l.92 5.874c1.266 7.833-.69 19.351-5.635 25.456-5.176 6.335-12.651 9.79-19.667 11.173l-5.521 1.036c-18.056 3.456-36.688 1.958-53.825-4.377-10.466-3.916-18.172-13.015-20.127-23.958-2.07-12.324.115-25.11 6.211-36.052z" fill="#EFBF73"></path><path d="M223.007 4.031c-3.565 2.074-7.246 2.88-11.271 3.456-2.53.346-5.981.346-8.166 1.958-.69.46-.92 1.152-1.495 1.613-2.76 2.534-4.256 2.764-7.821 2.303-3.105-.345-5.865-.345-8.856.807-2.3.921-4.255 2.303-5.98 4.031-3.566 3.455-6.326 5.76-10.811 7.948-3.106 1.497-6.786 4.607-4.601 8.408 2.53 4.492 8.741.806 10.926 4.262 1.15 1.728.345 3.225 2.53 4.837 2.071 1.498 4.601 1.498 6.901 1.383 2.07-.115 4.371-.576 6.441.115 1.84.576 2.99 2.073 4.715 2.88 1.725.806 3.106.806 4.831.115 1.265-.461 2.185-1.498 3.335-2.189 2.415-1.382 4.371-1.036 7.016.115.92.346 1.035 1.267 2.415 1.152 1.15 0 1.725-.806 2.645-1.382.46-.23.575-.806.92-1.037 2.761-1.727 3.796-1.267 6.556-.23 1.725.691 3.22 1.497 5.176.806.92-.345 1.265-1.152 2.07-1.612 3.22-1.728 5.405-.576 8.626-.116 3.795.576 7.475.116 11.271-.806 1.035-.23.575-1.958-.46-1.612-3.796.921-7.476 1.382-11.271.69-1.726-.345-4.026-1.612-5.751-1.381-1.725.23-2.185 1.267-3.565 2.073-4.141 2.534-5.981-1.152-9.776-1.152-2.186 0-2.416 1.267-4.026 2.188-4.83 2.765-2.875 0-6.095-1.151-1.61-.576-3.451 0-4.946.69-2.875 1.498-2.875 2.535-6.44 2.535-3.451 0-2.761-.46-5.291-1.728-3.105-1.497-5.981-.46-9.201-.691-2.99.346-5.29-1.497-6.671-5.529.115-.46.115-.921 0-1.382-.115-.115 0-.46-.23-.576-1.955-1.382-2.3.346-4.37-.46-1.495-2.304-2.875-4.608-4.37-6.912 1.38-.69 2.76-1.267 4.255-1.843 1.035-.575 2.07-1.036 2.99-1.727 3.221-2.304 5.176-5.99 8.626-8.063 6.441-3.916 13.111.806 18.977-3.34 1.495-1.152 2.76-2.995 5.06-3.686 1.956-.576 4.026-.576 6.096-.922 3.565-.576 6.786-1.497 9.891-3.34 1.035-.576.23-2.073-.805-1.498z" fill="#F5F2EB"></path><path d="M193.909.346c-4.945 7.256-15.756 7.602-22.887 11.979-3.221 1.958-5.866 4.492-8.741 7.026-2.99 2.65-6.556 3.686-9.891 5.644-3.565 2.073-7.131 6.565-4.6 10.712.575 1.036 1.61 1.382 2.185 2.188 1.725 1.267 2.645 3.225 2.76 5.76 0 .575 0 1.267.115 1.842 1.035 1.613 1.035 1.959 2.645 2.765 3.451 1.843 7.591 2.88 11.271 4.146 3.911 1.383 7.821 2.88 11.962 3.11 1.495.116 2.76 0 4.255-.115 4.025-.345 4.715.806 7.821 2.765 2.185 1.382 3.91 2.073 6.555 1.727 3.681-.345 7.016-2.419 10.812-2.419 3.91 0 7.245 2.074 11.156 1.383 4.945-.807 9.546-2.074 14.606-2.42 4.946-.23 10.006-.575 14.952-.805 1.15-.116 1.15-1.843 0-1.728-7.706.46-15.757.115-23.348 1.497-1.725.346-3.335.922-5.06 1.382-3.106.807-5.291.116-8.281-.46-2.76-.461-4.946-.807-7.706-.116-5.52 1.267-8.741 3.571-13.686-.806-1.38-1.152-2.185-1.958-4.026-2.188-4.485-.461-8.165.806-12.766-.346-3.91-.921-7.591-2.534-11.271-3.916-1.495-.576-3.105-.922-4.485-1.613-2.071-.345-3.336-1.612-3.796-3.8 0-.577 0-1.152.115-1.728-.69-1.959-.575-2.88-2.185-4.493-1.955-1.958-4.255-1.958-3.565-6.104.46-2.88 3.565-4.608 5.865-5.875 2.53-1.267 5.176-2.303 7.591-4.146 3.335-2.65 5.981-5.644 9.661-7.833 3.565-2.188 7.476-3.57 11.386-4.837 4.831-1.613 9.201-3.456 12.191-7.718.46-.46-1.035-1.382-1.61-.46z" fill="#F5F2EB"></path><path d="M143.419 33.288c-.23 5.76-2.875 11.058-.46 16.702 1.955 4.492 4.831 9.214 8.971 12.094 6.326 4.262 14.031 7.372 21.047 10.251 1.495.691 3.335 1.613 4.946 1.613 1.38 0 2.415-.807 3.68-.922 4.6-.23 3.22.806 5.981 1.382 2.07.461 3.22.346 5.29-.115 2.645-.576 4.716-1.497 7.476-.921 1.61.345 3.105 1.036 4.715 1.612 2.185.807 4.256 1.383 6.556 1.498 1.84 0 3.335-.576 5.29-.576 2.761 0 4.486 1.497 6.786 2.303 3.335 1.152 4.831-.69 7.476-2.534 5.06-3.57 7.821-1.151 12.651-1.267 2.53 0 4.946-.69 7.246-1.727 1.035-.461.115-1.958-.92-1.498-4.486 1.958-8.051 1.152-12.536.461-1.611-.23-2.991-.23-4.601.46-1.15.577-2.07 1.498-3.105 2.304-3.681 2.995-5.521 1.498-9.201.23-4.371-1.497-9.086.577-13.687-.806-4.255-1.266-7.82-3.225-12.306-2.073-5.06 1.382-9.431-1.036-14.491-.23-6.211 1.152-13.687-3.916-19.207-6.68-6.096-3.11-11.041-5.76-14.492-11.98-2.3-4.031-3.335-7.256-2.53-11.979.46-2.65 1.035-5.068 1.15-7.717 0-.922-1.725-.922-1.725.115zM225.077 15.55c-9.661-.576-19.552 4.146-28.638 7.026-2.76.921-13.111 1.958-10.006 7.026 3.336 5.414 16.217 4.032 21.162 3.57 10.006-.92 19.897-3.34 29.903-.92 1.036.23 1.496-1.383.461-1.613-12.652-2.995-25.073 1.612-37.839 1.267-2.07 0-4.141-.23-6.211-.691-.92-.116-1.84-.346-2.645-.691-.23-1.383-.345-2.765-.575-4.147.92-1.497 8.626-2.764 10.466-3.34 7.706-2.42 15.756-6.105 23.922-5.644 1.035-.116 1.035-1.843 0-1.843z" fill="#F5F2EB"></path><path d="M227.147 19.927c-4.37 1.267-8.625 2.88-12.651 4.838-.575.23-.575 1.267 0 1.497 4.026 1.728 8.051 1.152 12.191.345 1.036-.23.575-1.842-.46-1.612-3.565.69-7.36 1.382-10.926-.115v1.497c3.911-1.958 8.051-3.455 12.306-4.607 1.151-.461.691-2.074-.46-1.843z" fill="#F5F2EB"></path><path d="M246.585 33.749c2.53-4.608 7.015-7.833 12.076-8.985l12.421-2.88a84.94 84.94 0 0 1 41.289.807l10.351 2.995a22.287 22.287 0 0 1 13.917 11.633c3.335 6.796 7.245 15.205 7.59 17.278l.92 5.874c1.265 7.833-.69 19.351-5.635 25.456-5.176 6.335-12.651 9.79-19.667 11.172l-5.521 1.037c-18.056 3.456-36.688 1.958-53.825-4.377-10.466-3.916-18.172-13.016-20.127-23.958a54.025 54.025 0 0 1 6.211-36.052z" fill="#EFBF73"></path><path d="M320.997 19.696c-3.565 2.074-7.246 2.88-11.271 3.456-2.53.345-5.981.345-8.166 1.958-.69.46-.92 1.152-1.495 1.613-2.76 2.534-4.255 2.764-7.821 2.303-3.105-.345-5.865-.345-8.856.806-2.3.922-4.255 2.304-5.98 4.032-3.566 3.455-6.326 5.76-10.811 7.948-3.106 1.497-6.786 4.607-4.601 8.408 2.53 4.492 8.741.806 10.926 4.262 1.15 1.727.345 3.225 2.53 4.837 2.071 1.498 4.601 1.498 6.901 1.383 2.07-.115 4.371-.576 6.441.115 1.84.576 2.99 2.073 4.715 2.88 1.725.806 3.106.806 4.831.115 1.265-.461 2.185-1.498 3.335-2.189 2.415-1.382 4.371-1.037 7.016.115.92.346 1.035 1.267 2.415 1.152 1.15 0 1.725-.806 2.645-1.382.46-.23.575-.806.92-1.037 2.761-1.727 3.796-1.267 6.556-.23 1.725.691 3.22 1.497 5.176.806.92-.345 1.265-1.152 2.07-1.612 3.22-1.728 5.405-.576 8.626-.116 3.795.576 7.475.116 11.271-.806 1.035-.23.575-1.958-.46-1.612-3.796.921-7.476 1.382-11.271.69-1.726-.345-4.026-1.612-5.751-1.382-1.725.23-2.185 1.267-3.565 2.074-4.141 2.534-5.981-1.152-9.776-1.152-2.186 0-2.416 1.267-4.026 2.188-4.83 2.765-2.875 0-6.095-1.151-1.611-.576-3.451 0-4.946.69-2.875 1.498-2.875 2.535-6.44 2.535-3.451 0-2.761-.461-5.291-1.728-3.105-1.497-5.981-.46-9.201-.691-2.99.345-5.29-1.497-6.671-5.529.115-.46.115-.921 0-1.382-.115-.115 0-.46-.23-.576-1.955-1.382-2.3.346-4.37-.46-1.495-2.304-2.875-4.608-4.37-6.912 1.38-.69 2.76-1.267 4.255-1.843 1.035-.576 2.07-1.036 2.99-1.727 3.221-2.304 5.176-5.99 8.626-8.063 6.441-3.916 13.111.806 18.977-3.34 1.495-1.152 2.76-2.995 5.06-3.686 1.956-.576 4.026-.576 6.096-.922 3.565-.576 6.786-1.497 9.891-3.34 1.035-.576.115-2.073-.805-1.498z" fill="#F5F2EB"></path><path d="M291.784 16.01c-4.945 7.257-15.756 7.603-22.887 11.98-3.22 1.958-5.866 4.492-8.741 7.026-2.99 2.649-6.556 3.686-9.891 5.644-3.565 2.073-7.131 6.565-4.6 10.712.575 1.036 1.61 1.382 2.185 2.188 1.725 1.267 2.645 3.225 2.76 5.76 0 .575 0 1.267.115 1.842 1.035 1.613 1.035 1.959 2.645 2.765 3.451 1.843 7.591 2.88 11.272 4.146 3.91 1.383 7.82 2.88 11.961 3.11 1.495.115 2.76 0 4.255-.115 4.026-.345 4.716.806 7.821 2.764 2.185 1.383 3.91 2.074 6.556 1.728 3.68-.345 7.015-2.419 10.811-2.419 3.91 0 7.245 2.074 11.156 1.383 4.945-.807 9.546-2.074 14.606-2.42 4.946-.23 10.006-.575 14.952-.805 1.15-.116 1.15-1.843 0-1.728-7.706.46-15.757.115-23.348 1.497-1.725.346-3.335.922-5.06 1.382-3.105.807-5.291.115-8.281-.46-2.76-.461-4.945-.807-7.706-.116-5.52 1.267-8.741 3.571-13.686-.806-1.38-1.152-2.185-1.958-4.026-2.188-4.485-.461-8.165.806-12.766-.346-3.91-.921-7.591-2.534-11.271-3.916-1.495-.576-3.105-.922-4.485-1.613-2.071-.345-3.336-1.612-3.796-3.8 0-.577 0-1.153.115-1.728-.69-1.959-.575-2.88-2.185-4.493-1.955-1.958-4.255-1.958-3.565-6.104.46-2.88 3.565-4.608 5.865-5.875 2.531-1.267 5.176-2.303 7.591-4.146 3.335-2.65 5.981-5.644 9.661-7.833 3.565-2.188 7.476-3.57 11.386-4.837 4.831-1.613 9.201-3.456 12.191-7.718.575-.46-.92-1.382-1.61-.46z" fill="#F5F2EB"></path><path d="M322.952 31.215c-9.661-.576-19.552 4.146-28.638 7.026-2.76.921-13.111 1.958-10.006 7.026 3.336 5.414 16.217 4.031 21.163 3.57 10.006-.92 19.897-3.34 29.903-.92 1.035.23 1.495-1.383.46-1.613-12.652-2.995-25.073 1.612-37.839 1.267-2.07 0-4.141-.23-6.211-.691-.92-.116-1.84-.346-2.645-.692-.23-1.382-.345-2.764-.575-4.146.92-1.497 8.626-2.764 10.466-3.34 7.706-2.42 15.756-6.105 23.922-5.644 1.15-.115 1.15-1.843 0-1.843z" fill="#F5F2EB"></path><path d="M325.138 35.592c-4.371 1.267-8.626 2.88-12.652 4.837-.575.23-.575 1.267 0 1.498 4.026 1.727 8.051 1.152 12.191.345 1.036-.23.576-1.843-.46-1.612-3.565.69-7.36 1.382-10.926-.115v1.497c3.911-1.958 8.051-3.456 12.307-4.607 1.035-.461.575-2.074-.46-1.843z" fill="#F5F2EB"></path><path d="M99.715 61.278c2.53-4.608 7.016-7.833 12.076-8.985l12.421-2.88a84.94 84.94 0 0 1 41.289.807l10.351 2.995a22.284 22.284 0 0 1 13.917 11.633c3.335 6.796 7.246 15.204 7.591 17.278l.92 5.874c1.265 7.832-.69 19.351-5.636 25.456-5.175 6.335-12.651 9.79-19.667 11.172l-5.52 1.037c-18.057 3.455-36.689 1.958-53.826-4.377-10.466-3.916-18.171-13.016-20.127-23.958-2.07-12.21 0-24.995 6.21-36.052z" fill="#EAC892"></path><path d="M174.127 47.34c-3.565 2.074-7.246 2.88-11.271 3.456-2.53.345-5.981.345-8.166 1.958-.69.46-.92 1.152-1.495 1.613-2.76 2.534-4.255 2.764-7.821 2.303-3.105-.345-5.865-.345-8.856.806-2.3.922-4.255 2.304-5.98 4.032-3.565 3.455-6.326 5.76-10.811 7.948-3.106 1.497-6.786 4.607-4.601 8.408 2.531 4.492 8.741.806 10.926 4.262 1.151 1.727.345 3.225 2.531 4.837 2.07 1.498 4.6 1.498 6.9 1.383 2.071-.116 4.371-.576 6.441.115 1.84.576 2.99 2.073 4.715 2.88 1.726.806 3.106.806 4.831.115 1.265-.461 2.185-1.498 3.335-2.189 2.416-1.382 4.371-1.037 7.016.115.92.346 1.035 1.267 2.415 1.152 1.15 0 1.725-.806 2.645-1.382.461-.23.576-.806.921-1.037 2.76-1.727 3.795-1.267 6.555-.23 1.725.691 3.221 1.497 5.176.806.92-.345 1.265-1.152 2.07-1.612 3.22-1.728 5.405-.576 8.626-.116 3.795.576 7.476.116 11.271-.806 1.035-.23.575-1.958-.46-1.612-3.796.921-7.476 1.382-11.271.69-1.725-.345-4.026-1.612-5.751-1.382-1.725.23-2.185 1.268-3.565 2.074-4.141 2.534-5.981-1.152-9.776-1.152-2.185 0-2.415 1.267-4.026 2.188-4.83 2.765-2.875 0-6.095-1.151-1.61-.576-3.451 0-4.946.69-2.875 1.498-2.875 2.535-6.44 2.535-3.451 0-2.761-.461-5.291-1.728-3.105-1.497-5.98-.46-9.201-.691-2.99.345-5.29-1.497-6.67-5.529.115-.46.115-.921 0-1.382-.115-.115 0-.46-.23-.576-1.956-1.382-2.301.346-4.371-.46-1.495-2.304-2.875-4.608-4.37-6.912 1.38-.69 2.76-1.267 4.255-1.843 1.035-.576 2.07-1.036 2.99-1.727 3.221-2.304 5.176-5.99 8.626-8.063 6.441-3.916 13.112.806 18.977-3.34 1.495-1.152 2.76-2.995 5.061-3.687 1.955-.575 4.025-.575 6.095-.92 3.566-.577 6.786-1.498 9.891-3.341 1.035-.576.115-2.074-.805-1.498z" fill="#F5F2EB"></path><path d="M145.029 43.654c-4.945 7.257-15.756 7.603-22.887 11.98-3.22 1.958-5.866 4.492-8.741 7.026-2.99 2.649-6.555 3.686-9.891 5.644-3.565 2.073-7.13 6.565-4.6 10.712.575 1.036 1.61 1.382 2.185 2.188 1.725 1.267 2.645 3.225 2.76 5.76 0 .575 0 1.266.115 1.842 1.035 1.613 1.035 1.959 2.645 2.765 3.451 1.843 7.591 2.88 11.272 4.146 3.91 1.383 7.82 2.88 11.961 3.11 1.495.115 2.76 0 4.255-.115 4.026-.346 4.716.806 7.821 2.764 2.185 1.383 3.91 2.074 6.556 1.728 3.68-.345 7.015-2.419 10.811-2.419 3.91 0 7.245 2.074 11.156 1.383 4.945-.807 9.546-2.074 14.606-2.42 4.946-.23 10.006-.575 14.952-.806 1.15-.115 1.15-1.842 0-1.727-7.706.46-15.757.115-23.348 1.497-1.725.346-3.335.922-5.06 1.382-3.105.807-5.291.115-8.281-.46-2.76-.461-4.945-.807-7.706-.116-5.52 1.267-8.741 3.571-13.686-.806-1.38-1.152-2.185-1.958-4.025-2.188-4.486-.461-8.166.806-12.767-.346-3.91-.921-7.59-2.534-11.271-3.916-1.495-.576-3.105-.922-4.485-1.613-2.07-.345-3.336-1.612-3.796-3.8 0-.577 0-1.153.115-1.728-.69-1.959-.575-2.88-2.185-4.493-1.955-1.958-4.255-1.958-3.565-6.104.46-2.88 3.565-4.608 5.865-5.875 2.531-1.267 5.176-2.303 7.591-4.146 3.335-2.65 5.981-5.644 9.661-7.833 3.565-2.188 7.476-3.57 11.386-4.837 4.831-1.613 9.201-3.456 12.191-7.718.461-.576-1.035-1.382-1.61-.46z" fill="#F5F2EB"></path><path d="M94.77 77.173c.23 5.99 1.38 11.173 3.68 16.701 1.61 3.801 1.265 8.639 4.6 11.519 5.521 4.607 14.262 7.487 20.932 10.251 1.495.691 3.336 1.613 4.946 1.613 1.38 0 2.415-.807 3.68-.922 4.601-.23 3.221.806 5.981 1.382 2.07.461 3.22.346 5.29-.115 2.646-.576 4.716-1.497 7.476-.921 1.61.345 3.105 1.036 4.716 1.612 2.185.807 4.255 1.382 6.555 1.498 1.84 0 3.335-.576 5.291-.576 2.76 0 4.485 1.497 6.785 2.303 3.336 1.152 4.831-.691 7.476-2.534 5.061-3.57 7.821-1.151 12.651-1.267 2.531 0 4.946-.691 7.246-1.727 1.035-.461.115-1.959-.92-1.498-4.485 1.958-8.051 1.152-12.536.461-1.61-.23-2.991-.23-4.601.461-1.15.576-2.07 1.497-3.105 2.303-3.68 2.995-5.521 1.498-9.201.231-4.37-1.498-9.086.576-13.686-.807-4.256-1.267-7.821-3.225-12.307-2.073-5.06 1.382-9.43-1.037-14.491-.23-6.211 1.152-13.686-3.916-19.207-6.681-3.22-1.612-8.166-3.34-9.776-6.911-.805-1.728-.69-3.916-1.265-5.759-2.185-6.566-4.255-11.173-4.485-18.314 0-1.152-1.726-1.152-1.726 0zM176.197 58.743c-9.66-.575-19.551 4.147-28.637 7.027-2.761.921-13.112 1.958-10.006 7.026 3.335 5.413 16.216 4.031 21.162 3.57 10.006-.92 19.897-3.34 29.903-.92 1.035.23 1.495-1.383.46-1.614-12.651-2.994-25.073 1.613-37.839 1.268-2.07 0-4.14-.23-6.211-.692-.92-.115-1.84-.345-2.645-.69-.23-1.383-.345-2.765-.575-4.147.92-1.498 8.626-2.765 10.466-3.34 7.706-2.42 15.757-6.105 23.922-5.645 1.036 0 1.036-1.727 0-1.843z" fill="#F5F2EB"></path><path d="M178.268 63.236c-4.371 1.267-8.626 2.88-12.651 4.837-.576.23-.576 1.267 0 1.498 4.025 1.728 8.05 1.152 12.191.345 1.035-.23.575-1.843-.46-1.612-3.566.69-7.361 1.382-10.926-.115v1.497c3.91-1.958 8.05-3.456 12.306-4.607 1.035-.461.575-2.189-.46-1.843z" fill="#F5F2EB"></path><path d="M198.05 88.806c2.53-4.607 7.015-7.832 12.076-8.984l12.421-2.88a84.94 84.94 0 0 1 41.289.807l10.351 2.995a22.287 22.287 0 0 1 13.917 11.633c3.335 6.796 7.245 15.204 7.59 17.278l.92 5.874c1.266 7.832-.69 19.351-5.635 25.455-5.176 6.335-12.651 9.791-19.667 11.173l-5.521 1.037c-18.056 3.455-36.688 1.958-53.825-4.377-10.466-3.916-18.172-13.016-20.127-23.958-2.07-12.325 0-25.11 6.211-36.053z" fill="#EAC892"></path><path d="M272.462 74.754c-3.565 2.073-7.246 2.88-11.271 3.456-2.53.345-5.981.345-8.166 1.958-.69.46-.92 1.151-1.495 1.612-2.76 2.534-4.256 2.765-7.821 2.304-3.105-.346-5.866-.346-8.856.806-2.3.922-4.255 2.304-5.98 4.031-3.566 3.456-6.326 5.76-10.812 7.948-3.105 1.498-6.785 4.608-4.6 8.409 2.53 4.492 8.741.806 10.926 4.261 1.15 1.728.345 3.225 2.53 4.838 2.071 1.497 4.601 1.497 6.901 1.382 2.07-.115 4.37-.576 6.441.115 1.84.576 2.99 2.074 4.715 2.88 1.725.806 3.105.806 4.831.115 1.265-.461 2.185-1.497 3.335-2.188 2.415-1.383 4.37-1.037 7.016.115.92.345 1.035 1.267 2.415 1.152 1.15 0 1.725-.807 2.645-1.382.46-.231.575-.807.92-1.037 2.761-1.728 3.796-1.267 6.556-.231 1.725.692 3.22 1.498 5.175.807.921-.346 1.266-1.152 2.071-1.613 3.22-1.728 5.405-.576 8.625-.115 3.796.576 7.476.115 11.272-.806 1.035-.231.575-1.958-.46-1.613-3.796.922-7.476 1.382-11.272.691-1.725-.345-4.025-1.612-5.75-1.382-1.725.23-2.185 1.267-3.565 2.073-4.141 2.534-5.981-1.151-9.776-1.151-2.186 0-2.416 1.267-4.026 2.188-4.83 2.764-2.875 0-6.095-1.152-1.611-.576-3.451 0-4.946.691-2.875 1.498-2.875 2.534-6.441 2.534-3.45 0-2.76-.46-5.29-1.727-3.105-1.498-5.981-.461-9.201-.692-2.99.346-5.291-1.497-6.671-5.528a2.815 2.815 0 0 0 0-1.383c-.115-.115 0-.46-.23-.575-1.955-1.383-2.3.345-4.37-.461-1.495-2.304-2.875-4.608-4.371-6.911 1.381-.691 2.761-1.267 4.256-1.843 1.035-.576 2.07-1.037 2.99-1.728 3.22-2.303 5.176-5.99 8.626-8.063 6.441-3.916 13.111.807 18.977-3.34 1.495-1.152 2.76-2.995 5.06-3.686 1.956-.576 4.026-.576 6.096-.921 3.565-.576 6.786-1.498 9.891-3.34 1.035-.576.115-2.074-.805-1.498z" fill="#F5F2EB"></path><path d="M243.364 71.068c-4.945 7.257-15.757 7.602-22.887 11.98-3.221 1.957-5.866 4.491-8.741 7.025-2.99 2.65-6.556 3.686-9.891 5.644-3.565 2.074-7.131 6.566-4.601 10.712.576 1.037 1.611 1.383 2.186 2.189 1.725 1.267 2.645 3.225 2.76 5.759 0 .576 0 1.267.115 1.843 1.035 1.613 1.035 1.958 2.645 2.764 3.451 1.843 7.591 2.88 11.271 4.147 3.911 1.382 7.821 2.88 11.962 3.11 1.495.115 2.76 0 4.255-.115 4.025-.346 4.715.806 7.821 2.764 2.185 1.382 3.91 2.073 6.555 1.728 3.681-.346 7.016-2.419 10.811-2.419 3.911 0 7.246 2.073 11.157 1.382 4.945-.806 9.545-2.073 14.606-2.419 4.945-.23 10.006-.576 14.951-.806 1.151-.115 1.151-1.843 0-1.728-7.705.461-15.756.116-23.347 1.498-1.725.345-3.335.921-5.06 1.382-3.106.806-5.291.115-8.281-.461-2.76-.461-4.946-.806-7.706-.115-5.52 1.267-8.741 3.571-13.686-.806-1.38-1.152-2.185-1.958-4.026-2.189-4.485-.46-8.165.807-12.766-.345-3.91-.922-7.591-2.534-11.271-3.917-1.495-.575-3.105-.921-4.485-1.612-2.071-.346-3.336-1.613-3.796-3.801 0-.576 0-1.152.115-1.728-.69-1.958-.575-2.879-2.185-4.492-1.955-1.958-4.256-1.958-3.565-6.105.46-2.88 3.565-4.607 5.865-5.874 2.53-1.267 5.176-2.304 7.591-4.147 3.335-2.649 5.98-5.644 9.661-7.832 3.565-2.189 7.476-3.57 11.386-4.838 4.83-1.612 9.201-3.455 12.191-7.717.46-.46-1.035-1.267-1.61-.46z" fill="#F5F2EB"></path><path d="M193.104 104.817c-.345 5.644-4.025 10.827-1.725 16.471 1.61 4.031 5.06 8.063 8.511 10.597 6.095 4.377 13.571 7.372 20.472 10.366 2.07.922 4.6 2.419 6.9 2.419 1.036 0 1.956-.461 2.876-.576 2.53-.345 4.485.691 6.67 1.037 2.186.345 3.106.461 5.406 0 4.6-.922 6.901-1.267 11.386.346 2.415.921 4.831 1.727 7.361 1.842 1.725.116 3.565-.575 5.29-.575 2.416 0 4.141 1.267 6.211 1.958 3.795 1.382 5.06 0 8.166-2.189 4.945-3.571 7.821-1.152 12.651-1.267 2.53 0 4.945-.691 7.246-1.728 1.035-.46.115-1.958-.92-1.497-4.486 1.958-8.051 1.152-12.537.461-1.61-.231-2.99-.231-4.6.46-1.38.576-2.415 1.843-3.68 2.765-3.221 2.649-5.521.806-8.856-.346-1.841-.691-3.566-.345-5.521-.23-3.335.345-5.75.23-8.856-.806-4.6-1.613-7.59-2.419-12.306-1.498-3.565.691-6.326-.345-9.776-.921-1.725-.346-3.105.576-4.83.806-5.866.806-14.147-4.838-19.322-7.487-6.096-3.11-11.616-6.22-15.182-12.324-3.68-6.335.23-11.519.575-18.084.23-1.152-1.495-1.152-1.61 0zM274.532 86.272c-9.661-.576-19.552 4.147-28.638 7.026-2.76.922-13.111 1.959-10.006 7.027 3.336 5.413 16.217 4.031 21.162 3.57 10.006-.921 19.897-3.34 29.903-.921 1.035.23 1.495-1.382.46-1.613-12.651-2.995-25.072 1.613-37.838 1.267a28.49 28.49 0 0 1-6.211-.691c-.92-.115-1.84-.345-2.645-.691-.23-1.382-.345-2.764-.575-4.146.92-1.498 8.626-2.765 10.466-3.34 7.705-2.42 15.756-6.106 23.922-5.645 1.035-.115 1.035-1.843 0-1.843z" fill="#F5F2EB"></path><path d="M276.602 90.65c-4.37 1.266-8.625 2.879-12.651 4.837-.575.23-.575 1.267 0 1.497 4.026 1.728 8.051 1.152 12.191.346 1.035-.23.575-1.843-.46-1.613-3.565.691-7.36 1.383-10.926-.115V97.1c3.911-1.959 8.051-3.456 12.306-4.608 1.035-.46.69-2.073-.46-1.843z" fill="#F5F2EB"></path><path d="M60.61 83.508l203.226 46.188L267.516 242l-203.34-42.618-3.565-115.874z" fill="#AA9B8C"></path><path d="M263.836 129.696l103.166-87.654 1.84 100.325L267.517 242" fill="#B7A89A"></path><path d="M364.586 37.204l-100.06 93.068 47.27 31.906L403 66.691l-38.414-29.487z" fill="#D8D0CA"></path><path d="M130.768 129.12l-.575 49.875 58.771 9.56-.69-48.031-57.506-11.404z" fill="#F4E4D3"></path></svg><svg width="78" height="98" viewBox="0 0 78 98" fill="none" id="presentation" y="579"><path d="M5.736 9.126L59.427.941c3.16-.517 6.176 1.708 6.594 4.88l11.045 76.916c.483 3.669-2.822 4.609-6.378 5.178L19.864 96.43c-3.556.57-6.896-1.815-7.366-5.384L1.3 15.258c-.392-2.974 1.574-5.654 4.436-6.132z" fill="#EE7754"></path><path d="M58.176 6.754L8.292 14.74c-2.862.478-3.577 1.178-3.138 3.743l9.713 61.457c.478 2.862 2.169 3.446 5.44 3.015l46.243-7.304c3.172-.418 5.017-.964 4.552-3.727L62.158 8.65c-.413-2.366-1.305-2.249-3.982-1.896z" fill="#FFF3D6"></path><path d="M52.925 47.312c4.698.907 8.174 4.123 8.84 9.178.828 6.278-3.61 12.063-9.888 12.89-6.278.828-12.063-3.61-12.89-9.888-.461-3.5.443-6.502 2.672-8.887l9.392 9.502 1.874-12.795z" fill="#4BCC6A"></path><path d="M50.35 58.221l-8.203-8.64c2.688-2.333 6.175-3.753 9.684-2.86" fill="#EE7754"></path><path d="M27.82 21.69l2.175 12.714 18.727-11.565-20.903-1.149z" fill="#F5F2EB"></path><path d="M34.098 23.921L20.333 22.57c-.988-.022-2.298 1.192-3.077 1.789l-1.159.83c-1.488 1.139-2.365 2.313-2.484 4.12-.013.193.004.387.049.575l.952 4.013c.228 2.472 1.223 4.24 2.153 4.355 2.338.288 5.847.068 8.762-2.03.232-.167-.72-3.088-.703-5.627.006-.845.598-2.594 1.593-2.859l7.293-1.395a.602.602 0 0 0 .489-.627l-.103-1.793z" fill="#E9C78A"></path><path d="M54.558 19.21a5.942 5.942 0 0 0-1.871-1.545A5.889 5.889 0 0 0 50.36 17l-3.969-.28a26.228 26.228 0 0 0-12.636 2.251l-5.94 2.684.124.02 16.853 2.653-17.247 3.65a2.438 2.438 0 0 0-1.936 2.423l.025 1.87c.033 2.473 1.226 5.963 3.088 7.617 1.933 1.718 4.398 2.431 6.623 2.514l1.772.067a30.834 30.834 0 0 0 16.33-3.958 9.658 9.658 0 0 0 3.582-3.53 9.75 9.75 0 0 0 1.332-4.867c.023-3.947-1.32-7.8-3.803-10.905z" fill="#E9C78A"></path><path d="M30.005 22.523c.2.4.42.795.601 1.204.102.232.171.481.023.705-.149.224-.485.342-.73.435-.38.148-.77.265-1.145.428-.188.082-.447.176-.593.32-.084.083-.204.194-.135.342.028.06.178.14.229.19.145.136.362.352.286.575-.076.223-.429.296-.627.364-.472.169-.945.338-1.417.51-.157.057-.269-.181-.111-.239.367-.133.735-.266 1.102-.397.139-.05.54-.116.632-.224.208-.25-.09-.422-.244-.566-.307-.29-.213-.522.118-.758.516-.368 1.14-.534 1.728-.757.137-.044.27-.1.398-.165.372-.223.3-.56.147-.867-.163-.329-.331-.663-.498-.995-.076-.152.162-.26.237-.108l-.001.003zM25.814 22.451c.36.486.899 1.156.231 1.57-.393.24-.854.38-1.297.503-.22.061-.443.116-.664.173-.159.042-.529.211-.54.408-.006.103.239.26.31.306.25.172.49.355.5.682a.841.841 0 0 1-.364.678c-.31.226-.734.282-1.106.34-.506.073-1.019.112-1.532.113l.135-.082c-.068.2.399.43.495.602a.627.627 0 0 1 .043.478c-.125.443-.594.592-.988.703-.161.045-.205-.214-.044-.259.236-.067.551-.148.702-.363.226-.322-.09-.53-.302-.729a.464.464 0 0 1-.151-.528.133.133 0 0 1 .135-.082c.49-.003.98-.04 1.463-.113.4-.063 1.052-.109 1.212-.556.233-.657-.921-.729-.79-1.399.085-.457.949-.504 1.293-.596a6.3 6.3 0 0 0 1.111-.382c.321-.154.476-.284.348-.665-.077-.227-.26-.447-.4-.636-.103-.136.098-.302.2-.166zM22.184 22.06c.207.335.28.735.205 1.118a1.523 1.523 0 0 1-.61.949c-.363.252-.803.35-1.222.475a6.688 6.688 0 0 0-.938.354c-.117.043-.229.1-.333.169-.165.069-.222.222-.168.46a.718.718 0 0 1 .09.115c.092.317.19.521-.075.81-.31.34-.79.301-1.203.403-.27.07-.564.213-.727.445-.174.249-.11.461-.103.733.004.168-.01.325-.135.448-.066.065-.552.223-.49.324.09.145-.149.252-.236.109-.14-.227.014-.391.208-.505.227-.133.405-.181.382-.486-.006-.081-.02-.162-.018-.245a.918.918 0 0 1 .094-.395c.16-.325.5-.536.835-.645.2-.054.404-.094.61-.118.172-.028.372-.059.513-.175.3-.24.12-.487-.023-.752-.144-.265-.157-.45.11-.638.407-.286.923-.474 1.399-.621.499-.156 1.066-.248 1.452-.627.434-.423.462-1.087.151-1.6-.088-.144.15-.25.237-.108l-.005.002z" fill="#F5F2EB"></path><path d="M21.044 29.094c-.405.374.274.956.454 1.256.157.26.217.53.1.816-.06.14-.157.253-.223.388-.177.353-.05.55.143.852.176.273.28.507.242.842-.027.233-.133.503-.044.736.072.185.263.295.39.436a.67.67 0 0 1 .18.66c-.23 1.05.05 2.242.162 3.316.018.165-.228.206-.246.039l-.194-1.87c-.044-.414-.12-.852-.04-1.264.046-.226.154-.398.015-.65-.051-.093-.159-.16-.232-.233a1.098 1.098 0 0 1-.26-.335c-.175-.413.132-.835-.017-1.247-.126-.349-.475-.598-.459-1.002.018-.42.433-.657.365-1.088-.09-.572-1.168-1.238-.498-1.859.12-.107.28.092.162.203v.004zM16.4 29.124c-.2.638.49 1.079.763 1.565a1.14 1.14 0 0 1 .083.993c-.175.473-.51.874-.158 1.375.223.316.55.546.71.906.202.455.016.936.13 1.401.11.45.5.802.491 1.284-.008.481-.346.847-.269 1.364.09.593.474 1.113.823 1.577.1.133-.09.298-.191.164-.569-.755-1.145-1.654-.765-2.61.143-.362.191-.626.002-.996-.118-.227-.263-.437-.33-.687-.155-.569.11-1.124-.277-1.642-.23-.308-.561-.545-.692-.922-.132-.376.018-.707.174-1.046.142-.305.256-.594.105-.934-.129-.288-.372-.502-.556-.75-.255-.344-.41-.719-.277-1.137.05-.159.286-.063.236.095H16.4zM30.904 18.648c.935.415 1.935.519 2.942.537.937.016 1.934-.106 2.863.068.292.042.566.17.786.368.158.154.239.358.381.527a1.187 1.187 0 0 0 .829.413c.592.06 1.145-.229 1.688-.413.415-.144.848-.23 1.288-.257a4.889 4.889 0 0 1 2.632.6c.778.429 1.412 1.068 2.144 1.567.419.292.884.509 1.375.642.502.132 1.025.195 1.51.386.651.259 1.322.823 1.315 1.582-.006.703-.595 1.233-1.222 1.431-.462.147-.958.14-1.44.11-.268-.015-.775-.097-.73.333.022.213.154.413.195.625.129.675-.306 1.325-.855 1.664-.883.542-1.988.391-2.97.583a2.524 2.524 0 0 0-1.372.713c-.315.317-.592.69-1.028.853-.733.273-1.477-.17-2.11-.517-.428-.234-.888-.433-1.384-.406a.95.95 0 0 0-.61.226c-.197.187-.204.464-.325.691-.392.725-1.24.23-1.687-.158-.409-.354-.812-.593-1.34-.356-.372.165-.679.453-1.01.683-.596.416-1.18.562-1.822.123-.513-.35-.82-.7-1.473-.365a8.867 8.867 0 0 1-1.522.632 8.224 8.224 0 0 1-3.402.268c-.167-.021-.143-.283.026-.261a8.01 8.01 0 0 0 3.11-.201 7.781 7.781 0 0 0 1.474-.568c.322-.164.622-.356 1-.278.724.154 1.12 1.037 1.943.73.616-.23 1.039-.801 1.654-1.039.653-.252 1.12.087 1.61.507.209.18.431.357.719.388.386.044.51-.342.63-.627a1 1 0 0 1 .58-.57c.611-.234 1.313.008 1.863.304.409.22.827.488 1.287.582.581.119.992-.156 1.374-.551.261-.273.506-.552.84-.741.396-.224.852-.322 1.3-.383.991-.126 2.248-.014 2.942-.87.341-.421.355-.852.193-1.35-.074-.227-.183-.507-.061-.734.122-.228.349-.233.57-.225.625.021 1.265.128 1.87-.109.434-.17.853-.543.915-1.035.071-.56-.365-1.032-.82-1.296-.851-.49-1.9-.44-2.771-.91-.74-.402-1.349-.995-2.029-1.483a4.655 4.655 0 0 0-2.135-.898 4.561 4.561 0 0 0-2.286.248c-.463.162-.92.369-1.419.384-.39.012-.803-.08-1.105-.348-.39-.349-.47-.795-1.04-.94-.959-.241-2.054-.074-3.034-.095-1.005-.02-2.005-.137-2.934-.552-.156-.07-.064-.316.092-.246l-.004.014z" fill="#F5F2EB"></path><path d="M39.634 16.034c1.13 1.304 2.93 1.51 4.522 1.78 1.71.29 3.337.804 4.843 1.691.852.501 1.613 1.175 2.537 1.54.856.338 1.78.448 2.62.833 1.192.544 2.226 1.993 1.296 3.198-.212.272-.477.497-.691.766-.31.388-.365.769-.265 1.253.136.66.299 1.283-.326 1.725-.813.572-1.771 1.005-2.64 1.494-.914.512-1.82 1.051-2.785 1.469-.865.374-1.781.636-2.732.659-.461.008-.96-.049-1.4.114-.519.192-.639.666-.912 1.086-.949 1.45-2.95.795-4.345.668a3.822 3.822 0 0 0-1.843.277c-.459.186-.898.42-1.371.572-1.01.323-1.977.011-3-.04-1.257-.065-2.534.148-3.78.273l-3.682.372c-.168.017-.214-.243-.045-.26 2.048-.207 4.097-.456 6.151-.612.958-.074 1.856.033 2.808.138 1.07.117 1.857-.293 2.81-.68.83-.337 1.63-.364 2.517-.23.866.13 1.758.334 2.614.06a1.75 1.75 0 0 0 .99-.747c.209-.338.333-.713.67-.95.626-.443 1.499-.255 2.216-.322 2.02-.188 3.811-1.412 5.528-2.376l1.261-.709c.486-.272 1.198-.516 1.179-1.174-.02-.678-.381-1.274-.025-1.925.346-.629 1.116-1.002 1.205-1.77.108-.922-.722-1.725-1.491-2.079-.792-.367-1.668-.48-2.484-.78-.846-.31-1.54-.868-2.29-1.352-1.705-1.099-3.564-1.648-5.535-1.975-1.552-.26-3.228-.553-4.32-1.811-.118-.14.085-.304.195-.176z" fill="#F5F2EB"></path><path d="M60.048 21.858c.22 1.534.445 3.123.13 4.651-.281 1.364-1.029 2.515-1.994 3.488-1.123 1.131-2.467 2.045-3.773 2.95a72.416 72.416 0 0 1-4.404 2.823c-.628.368-1.226.81-1.992.745-.389-.033-.78-.164-1.178-.13-.445.037-.8.294-1.156.54-.549.378-1.068.601-1.75.53-.814-.087-1.548-.327-2.37-.112-1.423.37-2.556 1.447-4.022 1.707-.83.147-1.702-.023-2.517.217-.738.218-1.175.922-1.899 1.156-1.352.435-2.3-1.168-3.598-1.157-.523.005-.993.246-1.464.44-.389.165-.794.29-1.21.369a5.85 5.85 0 0 1-2.598-.128c-.163-.044-.07-.29.093-.246a5.55 5.55 0 0 0 2.612.086c.755-.16 1.415-.59 2.168-.74 1.218-.242 1.997.765 3.064 1.111.842.27 1.369-.31 1.996-.762.571-.41 1.22-.507 1.913-.523.824-.02 1.572-.05 2.336-.368.642-.266 1.235-.63 1.855-.94.587-.293 1.212-.549 1.877-.587.724-.044 1.416.254 2.135.23.79-.024 1.271-.647 1.95-.94.62-.27 1.21-.038 1.852-.004.839.047 1.68-.662 2.36-1.074a68.704 68.704 0 0 0 2.242-1.411c1.354-.888 2.698-1.806 3.97-2.81 1.271-1.003 2.477-2.179 3.025-3.737.597-1.704.334-3.57.081-5.328-.028-.167.231-.209.26-.04l.006-.006z" fill="#F5F2EB"></path></svg><svg width="242" height="243" viewBox="0 0 242 243" fill="none" id="prevslogo" y="677"><path fill-rule="evenodd" clip-rule="evenodd" d="M156.492 41.757a87.457 87.457 0 0 0-50.4-6.384A87.49 87.49 0 0 0 60.64 58.082a87.569 87.569 0 0 0-25.183 44.147 87.598 87.598 0 0 0 3.574 50.705 87.54 87.54 0 0 0 31.126 40.171 87.468 87.468 0 0 0 48.187 16.097 87.468 87.468 0 0 0 49.005-13.404 87.537 87.537 0 0 0 33.305-38.385 87.703 87.703 0 0 0 1.816-66.964 87.635 87.635 0 0 0-45.978-48.692zM85.845 199.874a85.61 85.61 0 0 1-37.536-32.595 85.686 85.686 0 0 1 2.63-95.141 85.617 85.617 0 0 1 39.28-30.474 85.56 85.56 0 0 1 49.579-3.501 85.586 85.586 0 0 1 43.166 24.65 85.662 85.662 0 0 1 22.2 44.493 85.697 85.697 0 0 1-6.248 49.336 85.708 85.708 0 0 1-47.601 45.011 85.634 85.634 0 0 1-65.47-1.779z" fill="#BB9753"></path><path fill-rule="evenodd" clip-rule="evenodd" d="M151.431 153.558s-4.129.798-6.751-.831a4.72 4.72 0 0 1-2.266-5.016 4.725 4.725 0 0 1 .765-1.788 6.024 6.024 0 0 1 4.014-2.487 18.231 18.231 0 0 0 14.694 3.783 18.298 18.298 0 0 0-9.906-11.498 5.985 5.985 0 0 1 .508-4.684 4.725 4.725 0 0 1 4.955-2.392 4.72 4.72 0 0 1 1.806.72c2.622 1.629 3.73 5.699 3.73 5.699a3.38 3.38 0 0 0 3.554-2.155 7.54 7.54 0 0 0-3.552-8.915c-7.042-4.375-14.597 2.385-14.806 9.981-7.269-2.134-14.214-5.757-18.182-12.713 9.928 3.677 24.421 2.573 30.191-6.55a17.357 17.357 0 0 0-.351-18.67c-2.124-3.137-4.576-4.806-7.137-4.924-2.561-.119-3.32 1.573-1.736 3.557 3.249 4.164 6.135 10.61 2.088 17.131a12.937 12.937 0 0 1-3.339 3.823 12.927 12.927 0 0 1-14.413.893 6.897 6.897 0 0 1-3.373-4.327 6.917 6.917 0 0 1 .848-5.423 5.101 5.101 0 0 1 3.269-2.535 5.104 5.104 0 0 1 4.074.716c3.094 1.922 1.792 6.422 1.792 6.422 2.098 1.303 4.346.082 5.616-1.965 3.794-6.115-3.529-13.373-9.411-12.064a21.083 21.083 0 0 0 6.422-6.19c2.654-4.278 2.322-11.502 2.322-11.502s-6.605 2.915-9.259 7.192a21.089 21.089 0 0 0-2.697 8.505c-1.436-5.855-11.186-9.203-14.98-3.089-1.254 2.02-1.368 4.605.73 5.908 0 0 3.453-3.163 6.548-1.241a5.137 5.137 0 0 1 2.441 3.337 5.135 5.135 0 0 1-.814 4.054 6.899 6.899 0 0 1-9.854 2.06 12.937 12.937 0 0 1-5.591-8.244 12.93 12.93 0 0 1 1.929-9.774c4.071-6.56 11.166-6.752 16.35-5.677 2.496.514 3.682-.84 2.417-3.135-1.265-2.294-3.858-3.65-7.577-4.215A17.296 17.296 0 0 0 109.62 83.3c-5.7 9.184-.239 22.666 7.567 30.024-7.991-.474-14.317-5.094-19.453-10.666 6.713-3.556 9.403-13.338 2.375-17.704a7.546 7.546 0 0 0-9.64.72 3.415 3.415 0 0 0-.341 4.15s4.071-.851 6.76.819a4.723 4.723 0 0 1 2.14 4.965 4.728 4.728 0 0 1-.75 1.752 5.99 5.99 0 0 1-4 2.496 18.318 18.318 0 0 0-14.695-3.784 18.224 18.224 0 0 0 9.907 11.499 6.043 6.043 0 0 1-.47 4.708 4.727 4.727 0 0 1-3.012 2.324 4.712 4.712 0 0 1-3.748-.652c-2.623-1.629-3.673-5.645-3.673-5.645a3.413 3.413 0 0 0-3.567 2.147 7.541 7.541 0 0 0 3.639 8.951c7.028 4.366 14.597-2.385 14.797-9.969 7.269 2.134 14.214 5.758 18.183 12.713-10.002-3.704-24.5-2.621-30.2 6.564a17.29 17.29 0 0 0 .347 18.649c2.123 3.136 4.576 4.805 7.137 4.924 2.56.118 3.32-1.574 1.727-3.545-3.262-4.171-6.126-10.622-2.166-17.179a12.918 12.918 0 0 1 17.764-4.708 6.896 6.896 0 0 1 3.525 7.13 6.903 6.903 0 0 1-.986 2.628 5.104 5.104 0 0 1-3.269 2.535 5.104 5.104 0 0 1-4.074-.716c-3.094-1.922-1.797-6.443-1.797-6.443-2.085-1.295-4.341-.061-5.603 1.973-3.794 6.115 3.521 13.386 9.403 12.077a20.844 20.844 0 0 0-6.414 6.177c-2.654 4.278-2.335 11.493-2.335 11.493s6.618-2.906 9.272-7.183a21.09 21.09 0 0 0 2.697-8.505c1.436 5.855 11.194 9.19 14.989 3.075 1.254-2.02 1.367-4.604-.731-5.907 0 0-3.461 3.176-6.556 1.254a5.107 5.107 0 0 1-2.446-3.328 5.125 5.125 0 0 1 .811-4.051 6.908 6.908 0 0 1 4.481-3.165 6.9 6.9 0 0 1 5.373 1.106 12.894 12.894 0 0 1 5.593 8.24 12.906 12.906 0 0 1-1.944 9.77c-4.071 6.561-11.153 6.76-16.271 5.726-2.489-.528-3.682.84-2.409 3.121 1.273 2.282 3.857 3.651 7.576 4.216 3.278.431 6.611-.09 9.602-1.5a17.269 17.269 0 0 0 7.27-6.453c5.699-9.185.247-22.679-7.568-30.024 7.991.473 14.317 5.094 19.453 10.666-6.704 3.543-9.408 13.316-2.366 17.691a7.517 7.517 0 0 0 9.553-.756 3.385 3.385 0 0 0 .354-4.143zm-33.96-26.549a21.766 21.766 0 0 0-3.57-9.617c3.431.472 6.926.111 10.19-1.051a21.743 21.743 0 0 0 3.649 9.666 21.926 21.926 0 0 0-10.211 1.055" fill="#BB9753"></path><path d="M57.092 122.84l.081-4.348-7.109-.108.007-.977 8.022.13-.095 6.302-8.023-.13.02-.969 7.097.1zM50.284 127.943l7.89-1.005c.05.448.201 1.578.314 2.012.275 2.279-.88 3.088-2.122 3.244a2.564 2.564 0 0 1-2-.639 2.544 2.544 0 0 1-.84-1.926c-.041-.316-.087-.798-.104-1.209l-3.05.377-.088-.854zm7.182.136l-3.076.361c.013.389.047.774.094 1.167a1.541 1.541 0 0 0 1.113 1.649c.233.066.477.077.714.031.939-.108 1.483-.751 1.27-2.046-.04-.316-.104-.828-.167-1.195M60.203 137.676a3.97 3.97 0 0 1-2.956 4.999 4.089 4.089 0 0 1-5.087-3.748 4.098 4.098 0 0 1 2.311-3.908 4.089 4.089 0 0 1 5.732 2.657zm-7.097 1.863a3.213 3.213 0 0 0 4.453 2.265 3.214 3.214 0 0 0-.23-5.956 3.209 3.209 0 0 0-1.878-.088 3.084 3.084 0 0 0-2.403 2.547c-.064.411-.044.829.058 1.232zM54.63 147.164l7.348-3.234.39.896-5.875 2.586 7.827 1.88.35.782-7.34 3.221-.397-.883 5.875-2.586-7.827-1.881-.35-.781zM59.928 155.766l.843.106a2.89 2.89 0 0 0 .214 2.26 1.54 1.54 0 0 0 1.625.975c.226-.027.443-.104.636-.225.676-.416.814-1.167.29-2.02l-.489-.794.786-.475.452.735a1.335 1.335 0 0 0 .836.598 1.338 1.338 0 0 0 1.011-.178 1.293 1.293 0 0 0 .593-1.438 1.302 1.302 0 0 0-.248-.493 2.218 2.218 0 0 0-1.719-1.067l.243-.831a3.166 3.166 0 0 1 2.307 1.524 2.086 2.086 0 0 1-.598 3.101c-.33.191-.705.29-1.086.287a2.137 2.137 0 0 1-1.082-.307 1.793 1.793 0 0 1-.83 2.247 2.497 2.497 0 0 1-2.844-.308 2.5 2.5 0 0 1-.611-.801 3.202 3.202 0 0 1-.295-2.892M70.185 159.013c.28.338.93 1.105 1.396 1.703 1.192 1.505.922 2.555.054 3.252a1.885 1.885 0 0 1-2.316.07 1.793 1.793 0 0 1-.463 2.476c-1.274 1.027-2.594.461-3.626-.835-.442-.547-1.002-1.313-1.298-1.715l6.253-4.951zm-2.81 3.472l-2.138 1.69.74 1.005c.727.906 1.55 1.162 2.313.546.764-.616.608-1.331-.106-2.23l-.808-1.011zm2.694-2.144l-2.02 1.617.794 1.003a1.384 1.384 0 0 0 .92.631 1.375 1.375 0 0 0 1.085-.259c.664-.514.653-1.23-.004-2.074l-.748-.902M75.21 165.008l3.223 3.183-.656.647-2.523-2.494-1.821 1.85 2.288 2.258-.656.647-2.275-2.249-1.888 1.9 2.62 2.572-.643.656-3.306-3.254 5.638-5.716zM75.448 175.119l.734.456a11.198 11.198 0 0 0 4.36-3.6l.998-1.198 3.715 2.798-4.275 5.689.869.649-1.488 1.93-.774-.481.932-1.239-4.953-3.731-.919 1.247-.787-.489 1.588-2.031zm1.542 1.176l3.262 2.444 3.729-4.955-2.257-1.693-.946 1.085a10.519 10.519 0 0 1-3.754 3.122M88.086 175.403l3.95 2.217-.442.799-3.098-1.743-1.276 2.262 2.801 1.577-.454.79-2.802-1.577-1.312 2.349 3.199 1.787-.45.812-4.04-2.274 3.924-6.999zM97.898 184.932l-4.092-1.633-1.365 3.37-.903-.361 2.989-7.451.903.36-1.288 3.218 4.084 1.646 1.296-3.23.903.36-2.976 7.46-.902-.361 1.351-3.378zM106.737 182.819a4.123 4.123 0 1 1-4.739 5.492 4.126 4.126 0 0 1-.163-2.393 3.951 3.951 0 0 1 4.902-3.099zm-1.636 7.145a3.205 3.205 0 0 0 3.413-1.137 3.218 3.218 0 0 0 .216-3.592 3.221 3.221 0 0 0-1.39-1.268 3.212 3.212 0 0 0-4.5 2.175 3.085 3.085 0 0 0 1.145 3.304c.334.246.713.422 1.116.518zM116.696 184.433a64.5 64.5 0 0 1 2.198.002c1.908.058 2.562.937 2.542 2.052a1.886 1.886 0 0 1-1.436 1.816 1.792 1.792 0 0 1 1.609 1.945c-.046 1.626-1.313 2.293-2.96 2.252-.711-.024-1.751-.106-2.153-.102l.2-7.965zm.955.921l-.066 2.595 1.287.035a1.37 1.37 0 0 0 1.568-1.298c.029-.837-.518-1.303-1.589-1.333l-1.2.001zm-.089 3.453l-.079 2.732c.275.026.778.065 1.241.08 1.183.026 1.892-.443 1.92-1.425.028-.982-.634-1.321-1.796-1.352l-1.286-.035zM130.404 183.667l.823-.125 4.711 7.398-1.035.175-1.409-2.238-3.604.596-.611 2.566-.972.16 2.097-8.532zm-.28 4.843l2.851-.465-1.983-3.159-.868 3.624zM137.711 189.596l.814-.258a11.007 11.007 0 0 0-.377-5.688l-.397-1.556 4.512-1.414 2.121 6.771 1.034-.321.734 2.274-.865.28-.444-1.421-5.962 1.878.452 1.408-.864.281-.758-2.234zm1.836-.587l3.884-1.223-1.809-5.868-2.663.836.328 1.403c.485 1.581.592 3.255.312 4.885M147.549 181.788c.374-.222.703-.4.921-.518 1.809-.895 3.1-.456 3.765.902s.041 2.861-1.681 3.791l-1.653.791-3.584-7.225.865-.427 1.367 2.686zm.408.835l1.382 2.84.882-.397c1.163-.587 1.573-1.423 1.056-2.434-.516-1.012-1.333-1.102-2.488-.528-.3.147-.591.313-.871.495l.039.024zm3.005-5.895l.877-.419 3.553 7.188-.873.439-3.557-7.208zM154.482 174.595l3.71-2.495.512.755-2.904 1.958 3.977 5.888-.8.558-4.495-6.664zM159.849 170.775l3.451-2.927.587.693-2.7 2.302 1.683 1.973 2.437-2.085.601.701-2.451 2.076 1.745 2.047 2.784-2.378.601.7-3.543 3.016-5.195-6.118zM165.331 165.864l3.079-3.322.671.617-2.417 2.606 1.903 1.764 2.172-2.359.684.625-2.185 2.35 1.973 1.826 2.487-2.69.671.617-3.149 3.405-5.889-5.439zM60.495 85.887a3.985 3.985 0 0 1 4.13-2.004 3.982 3.982 0 0 1 1.512.583A4.029 4.029 0 0 1 67.6 90.1a3.969 3.969 0 0 1-5.594 1.433 3.999 3.999 0 0 1-1.472-5.623l-.04-.024zm6.35 3.763a3.09 3.09 0 0 0-1.2-4.273 3.087 3.087 0 0 0-4.569 3.42 3.09 3.09 0 0 0 1.416 1.894 3.086 3.086 0 0 0 4.251-.995M71.21 84.405l-6.232-5.034c.236-.38.959-1.223 1.296-1.65 1.44-1.794 2.784-1.559 3.791-.752a2.562 2.562 0 0 1 .146 3.835c-.163.262-.507.612-.784.912l2.427 1.944-.644.745zm-4.91-5.231l2.418 1.956c.204-.328.53-.56.773-.864.75-.916.72-1.862-.068-2.496-.787-.635-1.506-.5-2.37.454-.171.275-.506.667-.74.958M76.19 78.489l-5.454-5.879.706-.67 4.363 4.71-.787-8.014.637-.586 5.454 5.879-.72.661-4.362-4.71.791 8.036-.628.573zM79.137 65.366l3.647-2.57.534.75-2.868 2.017 4.094 5.816-.8.557-4.607-6.57zM89.279 68.165l-3.691-7.11.859-.447 2.955 5.69 1.37-7.948.772-.393 3.683 7.123-.86.448-2.955-5.69-1.362 7.934-.771.393zM102.196 58.672l-4.183 1.383 1.144 3.455-.915.304L95.7 56.2l.928-.296 1.091 3.277 4.183-1.382-1.096-3.299.923-.317 2.543 7.615-.924.317-1.152-3.443zM108.414 52.709l.83-.138 4.819 7.283-1.022.184-1.438-2.221-3.634.615-.576 2.568-.98.174 2.001-8.465zm-.225 4.841l2.841-.507-2.032-3.08-.809 3.587zM120.9 52.457l-2.873.033-.105 1.516c-.319 5.111-1.38 5.797-2.628 5.64l-.063-.894c.571.046 1.529-.268 1.741-5.5l.072-1.609 4.803-.125.225 8.011-.967.036-.205-7.108zM126.885 54.805c.428.012.857.024 1.124.062 2.059.225 2.851 1.262 2.737 2.791-.113 1.53-1.53 2.467-3.516 2.27-.687-.063-1.406-.164-1.866-.214l.868-7.986.968.11-.315 2.967zm-.099.92l-.347 3.166.998.147c1.311.142 2.144-.322 2.278-1.475.134-1.153-.589-1.656-1.887-1.79a8.633 8.633 0 0 0-1.042-.048zM139.188 58.532l-4.272-1.109-.901 3.531-.942-.24 1.993-7.779.941.24-.858 3.375 4.267 1.088.872-3.367.933.252-1.984 7.766-.942-.24.893-3.517zM147.694 56.867l.769.314.009 8.768-.947-.406-.012-2.644-3.331-1.397-1.89 1.844-.907-.381 6.309-6.098zm-2.802 3.93l2.662 1.128-.037-3.66-2.625 2.533zM155.224 66.414l-1.312-.815-3.334 1.565-.944-.587 3.53-1.588a2.376 2.376 0 0 1-.213-2.733c.766-1.233 2.17-1.797 4.065-.693l1.587.986-4.077 6.922-.813-.505 1.511-2.552zm.48-.775l1.694-2.73-.997-.618a1.692 1.692 0 0 0-2.016-.06 1.709 1.709 0 0 0-.488.522 1.656 1.656 0 0 0 .393 2.062l1.414.824zM168.85 71.804l-3.226-2.913-4.769 5.254-.724-.649 5.394-5.94 4.665 4.226-5.381 5.947-.723-.65 4.764-5.275zM167.077 80.174l6.152-5.141 1.371 1.597c1.453 1.757.944 3.077-.024 3.875a2.567 2.567 0 0 1-3.05.211 2.563 2.563 0 0 1-.768-.764c-.192-.247-.504-.623-.738-.95l-2.352 1.976-.591-.804zm6.018-3.843l-2.381 1.993c.233.327.448.624.711.933.762.91 1.692 1.051 2.451.414.759-.638.871-1.404.007-2.414l-.788-.926zM180.563 84.773a3.972 3.972 0 0 1-1.359 5.645 4.091 4.091 0 0 1-4.9-6.503 4.087 4.087 0 0 1 6.259.858zm-6.254 3.84a3.084 3.084 0 0 0 3.23 1.382 3.076 3.076 0 0 0 1.138-.486 3.082 3.082 0 0 0 1.593-1.932 3.1 3.1 0 0 0-1.255-3.396 3.084 3.084 0 0 0-3.616.129 3.092 3.092 0 0 0-1.137 4.292M177.108 93.249l.343.795a11.42 11.42 0 0 0 5.577-.935l1.507-.555 1.845 4.346-6.549 2.766.426 1.011-2.214.933-.353-.837 1.365-.589-2.431-5.745-1.364.588-.366-.845 2.214-.933zm.726 1.76l1.581 3.745 5.7-2.422-1.14-2.525-1.351.45c-1.522.645-3.175.92-4.823.804M182.687 105.877c-1.326-.205-2.054-.584-2.295-1.425a1.78 1.78 0 0 1 .018-1.025l.89.117a.988.988 0 0 0-.038.648 1.15 1.15 0 0 0 1.039.755l.327.058 4.831-5.033.283 1.067-4.074 4.194 5.486.791.245.951-6.712-1.098zM189.945 110.268l.125.969-7.907 1.032-.126-.969 7.908-1.032zm-3.502 2.715l-3.742 4.274-.156-1.242 3.715-4.054 4.257 3.007.149 1.165-4.223-3.15zM190.876 119.763l-.02.969-7.107-.143-.071 4.301 7.094.135-.02.969-7.094-.135-.024 1.094-2.409-.042.022-.914 1.495.02.114-6.419 8.02.165zM182.414 129.314l7.889 1.428-.179.962-6.307-1.137 5.443 5.926-.148.853-7.889-1.429.166-.969 6.321 1.145-5.457-5.934.161-.845zM181.947 143.613l.472-1.434-2.15-2.917.339-1.043 2.284 3.109a2.426 2.426 0 0 1 2.597-.731c1.364.466 2.216 1.758 1.52 3.816-.172.511-.475 1.322-.628 1.772l-7.603-2.56.333-.975 2.836.963zm.874.288l3.013 1c.139-.223.265-.69.378-1.02.117-.217.184-.458.198-.704a1.683 1.683 0 0 0-.526-1.329 1.712 1.712 0 0 0-.628-.378 1.646 1.646 0 0 0-1.926.821l-.509 1.61z" fill="#BB9753"></path><path fill-rule="evenodd" clip-rule="evenodd" d="M58.232 103.898a1.557 1.557 0 1 1-2.843-1.275 1.55 1.55 0 0 1 .867-.819 1.554 1.554 0 0 1 2.01.902 1.554 1.554 0 0 1-.034 1.192zM178.645 157.704a1.54 1.54 0 0 1-2.301.622 1.542 1.542 0 0 1-.611-1.601 1.551 1.551 0 0 1 1.242-1.179 1.545 1.545 0 0 1 1.67 2.158z" fill="#BB9753"></path></svg><svg width="103" height="70" viewBox="0 0 103 70" fill="none" id="statistics" y="920"><path d="M0 0l2.6 69.7 99.1-5.6L103 .9 0 0z" fill="#FFF3D6"></path><path d="M6.4 43.8l13.2-33.1L35 52l20.5-22.3 20.7 11.9 19.3-10.7" stroke="#BB9753" stroke-miterlimit="10"></path><path d="M6.7 54.8L29.6 38l42.8-6.5 25.2 4.2" stroke="#BB9753" stroke-miterlimit="10"></path><path d="M5.8 26.3l5.3 4.3 8.3 1.9 6.6-4 8.2-2.5 11-16.9L79.6 23l18.7-8.3" stroke="#EE7754" stroke-miterlimit="10"></path><path d="M11.6 31.6c1.4 0 1.5-2.2 0-2.2-1.5-.1-1.5 2.2 0 2.2zM26 29.5c1.4 0 1.5-2.2 0-2.2-1.4-.1-1.4 2.2 0 2.2zM29.8 39.1c1.4 0 1.5-2.2 0-2.2-1.5-.1-1.5 2.2 0 2.2zM50.5 35.8c1.4 0 1.5-2.2 0-2.2s-1.5 2.2 0 2.2zM61.4 34.4c1.4 0 1.5-2.2 0-2.2-1.5-.1-1.5 2.2 0 2.2zM89.5 35.2c1.4 0 1.5-2.2 0-2.2s-1.5 2.2 0 2.2z" fill="#4BCC6A"></path><path d="M95.1 61l1.4-1.8" stroke="#2A2893" stroke-miterlimit="10"></path><path d="M7.3 7.3L5.2 5.5 7 62.2l89.3-3-1.5-2.3" stroke="#BB9753" stroke-miterlimit="10"></path><path d="M3.2 6.6L5 4.8" stroke="#2A2893" stroke-miterlimit="10"></path></svg><svg width="43" height="43" viewBox="0 0 43 43" fill="none" id="str-down" y="990"><path fill="#fff" d="M21.213 42.427L19.8 41.013l21.213-21.214 1.414 1.415z"></path><path fill="#fff" d="M22.628 41.012l-1.414 1.414L0 21.213 1.415 19.8z"></path></svg><svg width="26" height="8" viewBox="0 0 26 8" fill="none" id="str-right-white" y="1033"><path d="M25.354 4.354a.5.5 0 0 0 0-.708L22.172.464a.5.5 0 1 0-.707.708L24.293 4l-2.828 2.828a.5.5 0 1 0 .707.708l3.182-3.182zM0 4.5h25v-1H0v1z" fill="#fff"></path></svg><svg width="15" height="8" viewBox="0 0 15 8" fill="none" id="str-up" y="1041"><path fill="#fff" d="M7.078.007l.706.708L.706 7.779 0 7.07z"></path><path fill="#fff" d="M6.364.707L7.071 0l7.071 7.071-.707.707z"></path></svg><svg width="15" height="8" viewBox="0 0 15 8" fill="none" id="str-up-blue" y="1049"><path fill="#099acc" d="M7.078.007l.706.708L.706 7.779 0 7.07z"></path><path fill="#099acc" d="M6.364.707L7.071 0l7.071 7.071-.707.707z"></path></svg><svg width="121" height="110" viewBox="0 0 121 110" fill="none" id="vote" y="1057"><path d="M34.748 65.211s6.408 20.567 13.075 29.594c6.63 8.921-9.73 10.45-9.73 10.45L27.37 65.049l7.379.162z" fill="#C5D5D8"></path><path d="M67.796 12.928s16.643 36.15 21.85 37.89" stroke="#fff" stroke-miterlimit="10"></path><path d="M42.856 83.183l1.817 4.566-3.278.426-1.804-3.508 3.265-1.484z" fill="#EA5959"></path><path d="M71.618 7.592l23.366 47.046L36.8 65.682l-7.588-21.93 42.406-36.16z" fill="#C5D5D8"></path><path d="M32.462 37.787l14.292 31.061s-18.549 10.905-26.145 7.04c-5.29-2.655-11.123-16.102-13.714-23.587-1.058-3.058.987-6.363 4.927-7.608l20.64-6.906z" fill="#EE7754"></path><path d="M68.441 10.698l20.855 46.617" stroke="#fff" stroke-miterlimit="10"></path><path d="M80.703 12.004s18.194 17.079 17.712 30.704M82.514 6.655s24.33 19.796 22.741 32.27" stroke="#EA5959" stroke-miterlimit="10"></path></svg></svg>